<svg xmlns="http://www.w3.org/2000/svg" width="14" height="14" viewBox="0 0 14 14"><g fill="none" fill-rule="evenodd"><rect width="11" height="11" x="1.5" y="1.5" stroke="currentColor" stroke-linecap="round" stroke-linejoin="round" rx="1"/><rect width="1" height="1" x=".5" y=".5" stroke="currentColor" stroke-linejoin="round"/><path stroke="currentColor" stroke-linejoin="round" d="M7.5,4 C8.05228475,4 8.5,4.44771525 8.5,5 L8.50057405,6.0498926 C7.52054491,6.24858767 6.74858767,7.02054491 6.5498926,8.00057405 L4.5,8 C3.94771525,8 3.5,7.55228475 3.5,7 L3.5,5 C3.5,4.44771525 3.94771525,4 4.5,4 L7.5,4 Z"/><rect width="1" height="1" x="13" y=".5" stroke="currentColor" stroke-linejoin="round"/><rect width="1" height="1" x="13" y="13" stroke="currentColor" stroke-linejoin="round"/><rect width="1" height="1" x=".5" y="13" stroke="currentColor" stroke-linejoin="round"/><circle cx="9.5" cy="9" r="1.5" stroke="currentColor"/></g></svg>