<svg xmlns="http://www.w3.org/2000/svg" width="14" height="14" viewBox="0 0 14 14"><g fill="none" fill-rule="evenodd" stroke-linecap="round" stroke-linejoin="round"><path stroke="currentColor" d="M5.5,5 L10,5 C10.5522847,5 11,5.44771525 11,6 L11,13 C11,13.5522847 10.5522847,14 10,14 L5.5,14 C4.11928813,14 3,12.8807119 3,11.5 L3,7.5 C3,6.83695878 3.2633921,6.20107399 3.73223305,5.73223305 C4.20107399,5.2633921 4.83695878,5 5.5,5 Z" transform="rotate(90 7 9.5)"/><polygon stroke="currentColor" points="7.5 .5 6.5 .5 5 5.5 9 5.5"/><line x1="5" x2="9" y1="11" y2="11" stroke="currentColor"/><line x1="2.5" x2="11.5" y1="8.5" y2="8.5" stroke="currentColor"/></g></svg>