<svg xmlns="http://www.w3.org/2000/svg" width="14" height="14" viewBox="0 0 14 14"><g fill="none" fill-rule="evenodd" stroke-linecap="round" stroke-linejoin="round"><path stroke="currentColor" d="M12.64,1.87 L11.8,4.35 C11.7411858,4.46632162 11.7411858,4.60367838 11.8,4.72 L13.37,6.82 C13.4620635,6.94264958 13.4758991,7.10713819 13.4056169,7.24344308 C13.3353347,7.37974796 13.1933089,7.4638706 13.04,7.46 L10.42,7.46 C10.2899455,7.46382213 10.1686154,7.52632552 10.09,7.63 L8.63,9.73 C8.54263635,9.85523803 8.39159229,9.91981077 8.24069362,9.8964321 C8.08979495,9.87305343 7.96537144,9.76580262 7.92,9.62 L7.14,7.12 C7.10382399,6.99438117 7.00561883,6.89617601 6.88,6.86 L4.38,6.08 C4.23419738,6.03462856 4.12694657,5.91020505 4.1035679,5.75930638 C4.08018923,5.60840771 4.14476197,5.45736365 4.27,5.37 L6.41,3.86 C6.51367448,3.7813846 6.57617787,3.66005449 6.58,3.53 L6.58,0.91 C6.58568023,0.770035591 6.66416351,0.64324064 6.7869035,0.575733644 C6.9096435,0.508226647 7.05875408,0.509844974 7.18,0.58 L9.28,2.15 C9.38814885,2.225114 9.52579323,2.24371459 9.65,2.2 L12.13,1.36 C12.2751451,1.30898873 12.4366833,1.34574263 12.5454703,1.45452967 C12.6542574,1.56331671 12.6910113,1.72485494 12.64,1.87 Z"/><line x1="7.04" x2=".5" y1="6.96" y2="13.5" stroke="currentColor"/></g></svg>