<svg xmlns="http://www.w3.org/2000/svg" width="14" height="14" viewBox="0 0 14 14"><g fill="none" fill-rule="evenodd" stroke-linecap="round" stroke-linejoin="round"><path stroke="currentColor" d="M5.5,12.5 C6.05869971,11.9850255 6.37652502,11.2598316 6.37652502,10.5 C6.37652502,9.74016839 6.05869971,9.01497447 5.5,8.5 C4.98502553,7.94130029 4.25983161,7.62347498 3.5,7.62347498 C2.74016839,7.62347498 2.01497447,7.94130029 1.5,8.5 C0.5,9.5 0.5,13.5 0.5,13.5 C0.5,13.5 4.5,13.5 5.5,12.5 Z"/><path stroke="currentColor" d="M12.92,1.08 C12.2032932,0.372415122 11.0722428,0.308150896 10.28,0.93 L4.5,5 L3.79,7.64 C4.44161602,7.72254703 5.04520225,8.02610502 5.5,8.5 C5.97389498,8.95479775 6.27745297,9.55838398 6.36,10.21 L9,9.5 L13.07,3.72 C13.6918491,2.92775718 13.6275849,1.7967068 12.92,1.08 L12.92,1.08 Z"/><line x1=".5" x2="3.75" y1="13.5" y2="10.25" stroke="currentColor"/></g></svg>