<svg xmlns="http://www.w3.org/2000/svg" width="14" height="14" viewBox="0 0 14 14"><g fill="none" fill-rule="evenodd" stroke-linecap="round" stroke-linejoin="round"><path stroke="currentColor" d="M11.5 8.5 2.5 8.5 1.74 12.3C1.68203763 12.5941583 1.75911636 12.8988028 1.95 13.13 2.13842003 13.362277 2.42091674 13.4980222 2.72 13.5L11.28 13.5C11.5790833 13.4980222 11.86158 13.362277 12.05 13.13 12.2408836 12.8988028 12.3179624 12.5941583 12.26 12.3L11.5 8.5ZM11.5 5.5C12.0522847 5.5 12.5 5.94771525 12.5 6.5L12.5 8.5 1.5 8.5 1.5 6.5C1.5 5.94771525 1.94771525 5.5 2.5 5.5L4 5.5C4.55228475 5.5 5 5.05228475 5 4.5L5 2.5C5 1.3954305 5.8954305.5 7 .5 8.1045695.5 9 1.3954305 9 2.5L9 4.5C9 5.05228475 9.44771525 5.5 10 5.5L11.5 5.5Z"/><line x1="8.5" x2="8.5" y1="13.5" y2="11" stroke="currentColor"/></g></svg>