<svg xmlns="http://www.w3.org/2000/svg" width="14" height="14" viewBox="0 0 14 14"><g fill="none" fill-rule="evenodd" stroke-linecap="round" stroke-linejoin="round"><path stroke="currentColor" d="M12.46,1.54 C11.7989994,0.873126405 10.898958,0.497983051 9.96,0.497983051 C9.02104198,0.497983051 8.12100059,0.873126405 7.46,1.54 L2.87,6.13 C1.93636856,7.06212779 1.72126519,8.49479739 2.34,9.66 L0.79,11.21 C0.402276405,11.6000375 0.402276405,12.2299625 0.79,12.62 L1.38,13.21 C1.77003745,13.5977236 2.39996255,13.5977236 2.79,13.21 L4.34,11.66 C5.50520261,12.2787348 6.93787221,12.0636314 7.87,11.13 L12.46,6.54 C13.1268736,5.87899941 13.5020169,4.97895802 13.5020169,4.04 C13.5020169,3.10104198 13.1268736,2.20100059 12.46,1.54 Z"/><line x1="4.5" x2="12.5" y1="1.5" y2="9.5" stroke="currentColor"/></g></svg>