<svg xmlns="http://www.w3.org/2000/svg" width="14" height="14" viewBox="0 0 14 14"><g fill="none" fill-rule="evenodd" stroke-linecap="round" stroke-linejoin="round"><path stroke="currentColor" d="M12.29 5.4C12.67 5.74 12.99 6.07 13.23 6.33 13.5735185 6.7106191 13.5735185 7.2893809 13.23 7.67 12.18 8.8 9.79 11 7 11L6.6 11M3.87 10.13C2.71163432 9.4812458 1.66497417 8.65067033.77 7.67.426481464 7.2893809.426481464 6.7106191.77 6.33 1.82 5.2 4.21 3 7 3 8.09977444 3.02298593 9.17611164 3.32215953 10.13 3.87"/><line x1="12.5" x2="1.5" y1="1.5" y2="12.5" stroke="currentColor"/><path stroke="currentColor" d="M5.59 8.41C5.21441221 8.03664971 5.00223279 7.52957685 5 7 5 5.8954305 5.8954305 5 7 5 7.52957685 5.00223279 8.03664971 5.21441221 8.41 5.59M8.74 8C8.56198431 8.3043014 8.3066951 8.55614075 8 8.73"/></g></svg>