<svg xmlns="http://www.w3.org/2000/svg" width="14" height="14" viewBox="0 0 14 14"><g fill="none" fill-rule="evenodd" stroke-linecap="round" stroke-linejoin="round"><path stroke="currentColor" d="M7.5,9 L4.5,9.54 L5,6.5 L10.73,0.79 C10.9177666,0.600687349 11.1733625,0.494201676 11.44,0.494201676 C11.7066375,0.494201676 11.9622334,0.600687349 12.15,0.79 L13.21,1.85 C13.3993127,2.0377666 13.5057983,2.29336246 13.5057983,2.56 C13.5057983,2.82663754 13.3993127,3.0822334 13.21,3.27 L7.5,9 Z"/><path stroke="currentColor" d="M12,9.5 L12,12.5 C12,13.0522847 11.5522847,13.5 11,13.5 L1.5,13.5 C0.94771525,13.5 0.5,13.0522847 0.5,12.5 L0.5,3 C0.5,2.44771525 0.94771525,2 1.5,2 L4.5,2"/></g></svg>