<svg xmlns="http://www.w3.org/2000/svg" width="14" height="14" viewBox="0 0 14 14"><g fill="none" fill-rule="evenodd" stroke-linecap="round" stroke-linejoin="round"><circle cx="3" cy="11" r="2.5" stroke="currentColor"/><path stroke="currentColor" d="M5.5,3 L5.5,1.5 C5.5,0.94771525 5.05228475,0.5 4.5,0.5 L3.32,0.5 C2.83413576,0.491163619 2.41224912,0.832891795 2.32,1.31 L0.55,10.5"/><line x1="4.5" x2="9.5" y1="5.5" y2="5.5" stroke="currentColor"/><line x1="5.5" x2="5.5" y1="8" y2="11" stroke="currentColor"/><circle cx="11" cy="11" r="2.5" stroke="currentColor"/><path stroke="currentColor" d="M8.5,3 L8.5,1.5 C8.5,0.94771525 8.94771525,0.5 9.5,0.5 L10.68,0.5 C11.1658642,0.491163619 11.5877509,0.832891795 11.68,1.31 L13.47,10.5"/><line x1="8.5" x2="8.5" y1="8" y2="11" stroke="currentColor"/></g></svg>