<svg xmlns="http://www.w3.org/2000/svg" width="14" height="14" viewBox="0 0 14 14"><g fill="none" fill-rule="evenodd" stroke-linecap="round" stroke-linejoin="round"><path stroke="currentColor" d="M5.5,3 C5.5,1.61928813 4.38071187,0.5 3,0.5 C1.61928813,0.5 0.5,1.61928813 0.5,3 L0.5,10.5 L3,13.5 L5.5,10.5 L5.5,3 Z"/><line x1=".5" x2="5.5" y1="4.5" y2="4.5" stroke="currentColor"/><path stroke="currentColor" d="M7.5,2.5 C7.5,1.3954305 8.3954305,0.5 9.5,0.5 C10.6045695,0.5 11.5,1.3954305 11.5,2.5 L11.5,10.5 C11.5,11.0522847 11.0522847,11.5 10.5,11.5 L8.5,11.5 C7.94771525,11.5 7.5,11.0522847 7.5,10.5 L7.5,2.5 Z"/><line x1="9.5" x2="9.5" y1="11.5" y2="13.5" stroke="currentColor"/><path stroke="currentColor" d="M7.5,4.5 L12.5,4.5 C13.0522847,4.5 13.5,4.94771525 13.5,5.5 L13.5,9.5"/></g></svg>