<svg xmlns="http://www.w3.org/2000/svg" width="14" height="14" viewBox="0 0 14 14"><g fill="none" fill-rule="evenodd" stroke-linecap="round" stroke-linejoin="round"><path stroke="currentColor" d="M9.73,7.65 L13,5.54 C13.2579561,5.38355067 13.4314938,5.11900542 13.4722563,4.8200804 C13.5130188,4.52115538 13.4166488,4.21980454 13.21,4 L10,0.79 C9.78019546,0.583351233 9.47884462,0.48698124 9.1799196,0.527743742 C8.88099458,0.568506245 8.61644933,0.742043886 8.46,1 L6.3,4.23 L1.81,5.23 C1.60099919,5.28071366 1.43512686,5.43941022 1.37522583,5.64596549 C1.3153248,5.85252076 1.37055814,6.07533797 1.52,6.23 L7.67,12.39 C7.82833035,12.5332878 8.05006125,12.5833498 8.25459675,12.5219892 C8.45913225,12.4606285 8.61668997,12.2967799 8.67,12.09 L9.73,7.65 Z"/><line x1="4.59" x2=".5" y1="9.38" y2="13.5" stroke="currentColor"/></g></svg>