<svg xmlns="http://www.w3.org/2000/svg" width="14" height="14" viewBox="0 0 14 14"><g fill="none" fill-rule="evenodd" stroke-linecap="round" stroke-linejoin="round"><path stroke="currentColor" d="M8.5,9.5 C9.05228475,9.5 9.5,9.05228475 9.5,8.5"/><line x1="4.5" x2="6" y1="9.5" y2="9.5" stroke="currentColor"/><line x1="9.5" x2="9.5" y1="4.5" y2="6" stroke="currentColor"/><path stroke="currentColor" d="M5.5,4.5 C4.94771525,4.5 4.5,4.94771525 4.5,5.5"/><path stroke="currentColor" d="M0.5,1.5 C0.5,0.94771525 0.94771525,0.5 1.5,0.5 L8.5,0.5 C9.05228475,0.5 9.5,0.94771525 9.5,1.5 L9.5,4.5 L12.5,4.5 C13.0522847,4.5 13.5,4.94771525 13.5,5.5 L13.5,12.5 C13.5,13.0522847 13.0522847,13.5 12.5,13.5 L5.5,13.5 C4.94771525,13.5 4.5,13.0522847 4.5,12.5 L4.5,9.5 L1.5,9.5 C0.94771525,9.5 0.5,9.05228475 0.5,8.5 L0.5,1.5 Z"/><line x1="8" x2="9.5" y1="4.5" y2="4.5" stroke="currentColor"/><line x1="4.5" x2="4.5" y1="8" y2="9.5" stroke="currentColor"/></g></svg>