<svg xmlns="http://www.w3.org/2000/svg" width="14" height="14" viewBox="0 0 14 14"><g fill="none" fill-rule="evenodd" stroke-linecap="round" stroke-linejoin="round"><path stroke="currentColor" d="M1.5,0.5 L4.5,0.5 C5.05228475,0.5 5.5,0.94771525 5.5,1.5 L5.5,11 C5.5,12.3807119 4.38071187,13.5 3,13.5 L3,13.5 C2.33695878,13.5 1.70107399,13.2366079 1.23223305,12.767767 C0.763392101,12.298926 0.5,11.6630412 0.5,11 L0.5,1.5 C0.5,0.94771525 0.94771525,0.5 1.5,0.5 Z"/><path stroke="currentColor" d="M5.5,5 L9,1.48 C9.39003745,1.09227641 10.0199625,1.09227641 10.41,1.48 L12.52,3.6 C12.9077236,3.99003745 12.9077236,4.61996255 12.52,5.01 L4.77,12.77"/><path stroke="currentColor" d="M9,8.5 L12.5,8.5 C13.0522847,8.5 13.5,8.94771525 13.5,9.5 L13.5,12.5 C13.5,13.0522847 13.0522847,13.5 12.5,13.5 L3,13.5"/><line x1=".5" x2="5.5" y1="4.5" y2="4.5" stroke="currentColor"/><line x1=".5" x2="5.5" y1="8.5" y2="8.5" stroke="currentColor"/></g></svg>