<svg xmlns="http://www.w3.org/2000/svg" width="14" height="14" viewBox="0 0 14 14"><g fill="none" fill-rule="evenodd" stroke-linecap="round" stroke-linejoin="round"><path stroke="currentColor" d="M13.000001,6.5 C13.0016062,3.66250607 11.0152839,1.2118256 8.23894115,0.625911293 C5.46259845,0.039996988 2.65539172,1.47905981 1.51028699,4.0752319 C0.365182264,6.67140399 1.19529415,9.71479449 3.5,11.37 L3.5,12.5 C3.5,13.0522847 3.94771525,13.5 4.5,13.5 L9.5,13.5 C10.0522847,13.5 10.5,13.0522847 10.5,12.5 L10.5,11.37 C12.0684646,10.2435529 12.9989064,8.43105234 13.000001,6.5 Z"/><circle cx="4.5" cy="7" r="1" stroke="currentColor"/><circle cx="9.5" cy="7" r="1" stroke="currentColor"/><line x1="6" x2="6" y1="11.5" y2="13.5" stroke="currentColor"/><line x1="8" x2="8" y1="11.5" y2="13.5" stroke="currentColor"/></g></svg>