<svg xmlns="http://www.w3.org/2000/svg" width="14" height="14" viewBox="0 0 14 14"><path fill="none" stroke="currentColor" stroke-linecap="round" stroke-linejoin="round" d="M1.5 10.5 12.5 10.5 12.5 12.5C12.5 13.0522847 12.0522847 13.5 11.5 13.5L2.5 13.5C1.94771525 13.5 1.5 13.0522847 1.5 12.5L1.5 10.5ZM10.5 6.5C9.94771525 6.5 9.5 6.05228475 9.5 5.5L9.5 3C9.5 1.61928813 8.38071187.5 7 .5 5.61928813.5 4.5 1.61928813 4.5 3L4.5 5.5C4.5 6.05228475 4.05228475 6.5 3.5 6.5L2.5 6.5C1.3954305 6.5.5 7.3954305.5 8.5L.5 9.5C.5 10.0522847.94771525 10.5 1.5 10.5L12.5 10.5C13.0522847 10.5 13.5 10.0522847 13.5 9.5L13.5 8.5C13.5 7.3954305 12.6045695 6.5 11.5 6.5L10.5 6.5Z"/></svg>