<svg xmlns="http://www.w3.org/2000/svg" width="14" height="14" viewBox="0 0 14 14"><g fill="none" fill-rule="evenodd" stroke-linecap="round" stroke-linejoin="round"><path stroke="currentColor" d="M8.5 3.5 8.5 2.5C8.5 1.94771525 8.05228475 1.5 7.5 1.5L6.5 1.5M4 10.5 1.5 10.5C.94771525 10.5.5 10.0522847.5 9.5L.5 2.5C.5 1.94771525.94771525 1.5 1.5 1.5L2.5 1.5"/><rect width="7" height="8" x="6.5" y="5.5" stroke="currentColor" rx="1"/><path stroke="currentColor" d="M6.75,0.5 L2.25,0.5 L2.66,2.12 C2.71144575,2.34333196 2.91082222,2.50117166 3.14,2.5 L5.86,2.5 C6.08917778,2.50117166 6.28855425,2.34333196 6.34,2.12 L6.75,0.5 Z"/><line x1="8.5" x2="11.5" y1="8.5" y2="8.5" stroke="currentColor"/><line x1="8.5" x2="11.5" y1="10.5" y2="10.5" stroke="currentColor"/></g></svg>