<svg xmlns="http://www.w3.org/2000/svg" width="14" height="14" viewBox="0 0 14 14"><g fill="none" fill-rule="evenodd" stroke-linecap="round" stroke-linejoin="round"><path stroke="currentColor" d="M3.5 9.5C3.5 10.0522847 3.94771525 10.5 4.5 10.5M4.5.5C3.94771525.5 3.5.94771525 3.5 1.5M13.5 1.5C13.5.94771525 13.0522847.5 12.5.5M12.5 10.5C13.0522847 10.5 13.5 10.0522847 13.5 9.5"/><path stroke="currentColor" d="M10.5,13.5 L2.5,13.5 C1.3954305,13.5 0.5,12.6045695 0.5,11.5 L0.5,3.5"/><line x1="7.5" x2="9.5" y1=".5" y2=".5" stroke="currentColor"/><line x1="7.5" x2="9.5" y1="10.5" y2="10.5" stroke="currentColor"/><line x1="13.5" x2="13.5" y1="4.5" y2="6.5" stroke="currentColor"/><line x1="3.5" x2="3.5" y1="4.5" y2="6.5" stroke="currentColor"/></g></svg>