<svg xmlns="http://www.w3.org/2000/svg" width="14" height="14" viewBox="0 0 14 14"><g fill="none" fill-rule="evenodd" stroke-linecap="round" stroke-linejoin="round"><path stroke="currentColor" d="M7.5 9.5 8.5 9.5C9.05228475 9.5 9.5 9.05228475 9.5 8.5L9.5 7.5M9.5 4.5 9.5 1.5C9.5.94771525 9.05228475.5 8.5.5L1.5.5C.94771525.5.5.94771525.5 1.5L.5 8.5C.5 9.05228475.94771525 9.5 1.5 9.5L4.5 9.5M4.5 12.5C4.5 13.0522847 4.94771525 13.5 5.5 13.5M13.5 5.5C13.5 4.94771525 13.0522847 4.5 12.5 4.5M12.5 13.5C13.0522847 13.5 13.5 13.0522847 13.5 12.5"/><line x1="9.5" x2="10" y1="4.5" y2="4.5" stroke="currentColor"/><line x1="8" x2="10" y1="13.5" y2="13.5" stroke="currentColor"/><line x1="13.5" x2="13.5" y1="8" y2="10" stroke="currentColor"/><line x1="4.5" x2="4.5" y1="9.5" y2="10" stroke="currentColor"/></g></svg>