<svg xmlns="http://www.w3.org/2000/svg" width="14" height="14" viewBox="0 0 14 14"><g fill="none" fill-rule="evenodd" stroke-linecap="round" stroke-linejoin="round"><line x1=".5" x2="13.5" y1=".5" y2="13.5" stroke="currentColor"/><path stroke="currentColor" d="M1.79 1.79C1.97871883 1.60281349 2.23419702 1.49846324 2.5 1.49998326L11.5 1.49998326C12.0522847 1.49998326 12.5000167 1.94771525 12.5000167 2.5L12.5000167 11.5C12.5015368 11.765803 12.3971865 12.0212812 12.21 12.21M9 12.5 2.5 12.5C1.94771525 12.5 1.5 12.0522847 1.5 11.5L1.5 5"/><line x1="5.25" x2="5.25" y1="1.5" y2="5.25" stroke="currentColor"/><line x1="8.75" x2="8.75" y1="1.5" y2="8.75" stroke="currentColor"/><line x1="12.5" x2="5.25" y1="5.25" y2="5.25" stroke="currentColor"/><line x1="12.5" x2="8.75" y1="8.75" y2="8.75" stroke="currentColor"/><line x1="5.25" x2="5.25" y1="8.5" y2="12.5" stroke="currentColor"/><line x1="8.75" x2="8.75" y1="12" y2="12.5" stroke="currentColor"/><line x1="5.5" x2="1.5" y1="8.75" y2="8.75" stroke="currentColor"/><line x1="2" x2="1.5" y1="5.25" y2="5.25" stroke="currentColor"/></g></svg>