<svg xmlns="http://www.w3.org/2000/svg" width="14" height="14" viewBox="0 0 14 14"><g fill="none" fill-rule="evenodd" stroke-linecap="round" stroke-linejoin="round"><path stroke="currentColor" d="M11.5,5.99996388 L12.5,5.99996388 C12.7893572,5.99754306 13.065592,6.12054835 13.2573608,6.33724709 C13.4491296,6.55394583 13.5376282,6.84308933 13.5,7.13 L12.77,12.63 C12.7043321,13.130992 12.2752593,13.5042854 11.77,13.5000365 L2.23,13.5000365 C1.72474072,13.5042854 1.2956679,13.130992 1.23,12.63 L0.51,7.13 C0.472609595,6.84482479 0.559817696,6.55735757 0.749349635,6.34102313 C0.938881573,6.1246887 1.21238436,6.00043541 1.5,5.99996388 L2.5,5.99996388"/><path stroke="currentColor" d="M10.46,13.5 L8.33,4 L8.75,4 C9.71649831,4 10.5,3.21649831 10.5,2.25 C10.5,1.28350169 9.71649831,0.5 8.75,0.5 L5.25,0.5 C4.28350169,0.5 3.5,1.28350169 3.5,2.25 C3.5,3.21649831 4.28350169,4 5.25,4 L5.66,4 L3.54,13.5"/></g></svg>