<svg xmlns="http://www.w3.org/2000/svg" width="14" height="14" viewBox="0 0 14 14"><g fill="none" fill-rule="evenodd" stroke-linecap="round" stroke-linejoin="round"><path stroke="currentColor" d="M6.13,12.06 C4.6,13.6 2,14.11 0.5,12.57 C2.5,10.5 0.5,9.5 2,8 C2.71759388,7.2006481 3.81826168,6.86343879 4.86046981,7.12364381 C5.90267794,7.38384883 6.71567967,8.19883834 6.97333884,9.24167878 C7.23099801,10.2845192 6.89110188,11.3843603 6.09,12.1 L6.13,12.06 Z"/><path stroke="currentColor" d="M12.92,1.08 C12.5279826,0.690500443 11.9922768,0.480561664 11.44,0.5 C10.8880976,0.515001806 10.3669468,0.757481725 10,1.17 L4.62,7.17 C5.19691509,7.28424019 5.72436115,7.57416087 6.13,8 C6.49483478,8.36335122 6.76000765,8.81448949 6.9,9.31 L12.83,4 C13.2400306,3.63541624 13.4822734,3.11839054 13.5,2.57 C13.5222419,2.01429442 13.3120902,1.47442193 12.92,1.08 Z"/></g></svg>