<svg xmlns="http://www.w3.org/2000/svg" width="14" height="14" viewBox="0 0 14 14"><path fill="none" stroke="currentColor" stroke-linecap="round" stroke-linejoin="round" d="M13,6.81 L7.05,12.81 C6.58364359,13.2851903 5.94580337,13.5529047 5.28,13.5529047 C4.61419663,13.5529047 3.97635641,13.2851903 3.51,12.81 L1.73,11 C0.76046921,10.0152561 0.76046921,8.43474391 1.73,7.45 L8.07,1.09 C8.4455332,0.711374698 8.95672493,0.498403351 9.49,0.498403351 C10.0232751,0.498403351 10.5344668,0.711374698 10.91,1.09 L11.62,1.8 C11.9986253,2.1755332 12.2115966,2.68672493 12.2115966,3.22 C12.2115966,3.75327507 11.9986253,4.2644668 11.62,4.64 L6,10.28 C5.8122334,10.4693127 5.55663754,10.5757983 5.29,10.5757983 C5.02336246,10.5757983 4.7677666,10.4693127 4.58,10.28 L4.23,9.92 C4.04068735,9.7322334 3.93420168,9.47663754 3.93420168,9.21 C3.93420168,8.94336246 4.04068735,8.6877666 4.23,8.5 L8,4.76"/></svg>