<svg xmlns="http://www.w3.org/2000/svg" width="14" height="14" viewBox="0 0 14 14"><g fill="none" fill-rule="evenodd" stroke-linecap="round" stroke-linejoin="round"><circle cx="8.5" cy="4" r="1" stroke="currentColor"/><circle cx="4.5" cy="9.5" r="1" stroke="currentColor"/><circle cx="4.5" cy="5.5" r="1" stroke="currentColor"/><path stroke="currentColor" d="M9.52,12.28 C9.49722631,11.8836456 9.24214087,11.5382991 8.87,11.4 C7.93562589,11.0928987 7.3632239,10.1520109 7.52007143,9.18105 C7.67691895,8.21008913 8.51645601,7.49728373 9.5,7.5 L11.37,7.5 C12.0208759,7.50181156 12.6319225,7.18678346 13.0079759,6.65553347 C13.3840292,6.12428348 13.4780468,5.44326852 13.26,4.83 C12.1567251,1.71486143 8.89164137,-0.0765950323 5.6715114,0.666416995 C2.45138143,1.40942902 0.30132483,4.45037367 0.674494002,7.73397667 C1.04766317,11.0175797 3.82526072,13.4985149 7.13,13.5000246 C7.71836141,13.5016427 8.30405244,13.4208577 8.87,13.26 C9.29963367,13.1396154 9.57620794,12.7226265 9.52,12.28 Z"/></g></svg>