<svg xmlns="http://www.w3.org/2000/svg" width="14" height="14" viewBox="0 0 14 14"><g fill="none" fill-rule="evenodd" stroke-linecap="round" stroke-linejoin="round"><line x1=".5" x2="2.5" y1="13.5" y2="11.5" stroke="currentColor"/><path stroke="currentColor" d="M4.71,12.29 C4.5222334,12.4793127 4.26663754,12.5857983 4,12.5857983 C3.73336246,12.5857983 3.4777666,12.4793127 3.29,12.29 L1.71,10.71 C1.52068735,10.5222334 1.41420168,10.2666375 1.41420168,10 C1.41420168,9.73336246 1.52068735,9.4777666 1.71,9.29 L9.88,1.12 C10.7084271,0.291572875 12.0515729,0.291572875 12.88,1.12 C13.7084271,1.94842712 13.7084271,3.29157288 12.88,4.12 L4.71,12.29 Z"/><path stroke="currentColor" d="M11.5,5.5 L7.21,1.21 C7.0222334,1.02068735 6.76663754,0.914201676 6.5,0.914201676 C6.23336246,0.914201676 5.9777666,1.02068735 5.79,1.21 L2.5,4.5"/></g></svg>