<svg xmlns="http://www.w3.org/2000/svg" width="14" height="14" viewBox="0 0 14 14"><path fill="none" stroke="currentColor" stroke-linecap="round" stroke-linejoin="round" d="M8.5.67C7.51285486.443241449 6.48714514.443241449 5.5.67M3.59 1.47C3.16095399 1.73617578 2.76196564 2.04799021 2.4 2.4 2.04799021 2.76196564 1.73617578 3.16095399 1.47 3.59M.67 5.5C.443241449 6.48714514.443241449 7.51285486.67 8.5M1.47 10.41C1.73617578 10.839046 2.04799021 11.2380344 2.4 11.6 2.76196564 11.9520098 3.16095399 12.2638242 3.59 12.53M5.5 13.33C6.48714514 13.5567586 7.51285486 13.5567586 8.5 13.33M10.41 12.53C10.839046 12.2638242 11.2380344 11.9520098 11.6 11.6 11.9520098 11.2380344 12.2638242 10.839046 12.53 10.41M13.33 8.5C13.5567586 7.51285486 13.5567586 6.48714514 13.33 5.5M12.53 3.59C12.2638242 3.16095399 11.9520098 2.76196564 11.6 2.4 11.2380344 2.04799021 10.839046 1.73617578 10.41 1.47"/></svg>