<svg xmlns="http://www.w3.org/2000/svg" width="14" height="14" viewBox="0 0 14 14"><g fill="none" fill-rule="evenodd" stroke-linecap="round" stroke-linejoin="round"><path stroke="currentColor" d="M2.5,8.5 L11.5,8.5 C12.0522847,8.5 12.5,8.94771525 12.5,9.5 L12.5,13.5 L1.5,13.5 L1.5,9.5 C1.5,8.94771525 1.94771525,8.5 2.5,8.5 Z"/><path stroke="currentColor" d="M1.5,9.5 C0.94771525,9.5 0.5,9.05228475 0.5,8.5 L0.5,6.5 C0.5,5.94771525 0.94771525,5.5 1.5,5.5 L12.5,5.5 C13.0522847,5.5 13.5,5.94771525 13.5,6.5 L13.5,8.5 C13.5,9.05228475 13.0522847,9.5 12.5,9.5"/><rect width="8" height="5" x="3" y=".5" stroke="currentColor"/><line x1="4" x2="10" y1="11" y2="11" stroke="currentColor"/></g></svg>