<svg xmlns="http://www.w3.org/2000/svg" width="14" height="14" viewBox="0 0 14 14"><g fill="none" fill-rule="evenodd" stroke-linecap="round" stroke-linejoin="round"><g stroke="currentColor" transform="translate(7.5 .5)"><rect width="6" height="4.5" y="3" rx=".5"/><path d="M1,3 L1,2 C1,0.8954305 1.8954305,0 3,0 C4.1045695,0 5,0.8954305 5,2 L5,3"/></g><path stroke="currentColor" d="M.5 8.5 3.5 8.5C4.16304122 8.5 4.79892601 8.7633921 5.26776695 9.23223305 5.7366079 9.70107399 6 10.3369588 6 11L6 11M3 11 8 11C9.1045695 11 10 11.8954305 10 13L10 13C10 13.2761424 9.77614237 13.5 9.5 13.5L.5 13.5"/></g></svg>