<svg xmlns="http://www.w3.org/2000/svg" width="14" height="14" viewBox="0 0 14 14"><path fill="none" stroke="currentColor" stroke-linecap="round" stroke-linejoin="round" d="M12.84 12.07 1.17 8C.780255123 7.86402241.514111057 7.50254315.5 7.09L.5 6C.501687581 5.57638257.770108876 5.1997915 1.17 5.06L12.84 1C12.9919851.948660584 13.1593745.973364902 13.2900488 1.06642086 13.4207231 1.15947682 13.4988116 1.30958248 13.5 1.47L13.5 11.6C13.4988116 11.7604175 13.4207231 11.9105232 13.2900488 12.0035791 13.1593745 12.0966351 12.9919851 12.1213394 12.84 12.07L12.84 12.07ZM8.48 10.57C8.30525662 12.0117652 7.03951398 13.0691046 5.58966762 12.984442 4.13982126 12.8997795 3.0057466 11.7023048 3 10.25L3 8.66"/></svg>