<svg xmlns="http://www.w3.org/2000/svg" width="14" height="14" viewBox="0 0 14 14"><path fill="none" stroke="currentColor" stroke-linecap="round" stroke-linejoin="round" d="M11.75,10 C12.7164983,10 13.5,10.7835017 13.5,11.75 C13.5,12.7164983 12.7164983,13.5 11.75,13.5 C10.7835017,13.5 10,12.7164983 10,11.75 L10,2.25 C10,1.28350169 10.7835017,0.5 11.75,0.5 C12.7164983,0.5 13.5,1.28350169 13.5,2.25 C13.5,3.21649831 12.7164983,4 11.75,4 L2.25,4 C1.28350169,4 0.5,3.21649831 0.5,2.25 C0.5,1.28350169 1.28350169,0.5 2.25,0.5 C3.21649831,0.5 4,1.28350169 4,2.25 L4,11.75 C4,12.7164983 3.21649831,13.5 2.25,13.5 C1.28350169,13.5 0.5,12.7164983 0.5,11.75 C0.5,10.7835017 1.28350169,10 2.25,10 L11.75,10 Z"/></svg>