<svg xmlns="http://www.w3.org/2000/svg" width="14" height="14" viewBox="0 0 14 14"><g fill="none" fill-rule="evenodd" stroke-linecap="round" stroke-linejoin="round"><path stroke="currentColor" d="M13.5 2.5 13.5 1.5C13.5.94771525 13.0522847.5 12.5.5L1.5.5C.94771525.5.5.94771525.5 1.5L.5 2.5M.5 11.5.5 12.5C.5 13.0522847.94771525 13.5 1.5 13.5L12.5 13.5C13.0522847 13.5 13.5 13.0522847 13.5 12.5L13.5 11.75"/><line x1="10.5" x2="13.5" y1="5" y2="5" stroke="currentColor"/><line x1="12" x2="12" y1="5" y2="9" stroke="currentColor"/><polyline stroke="currentColor" points="6.5 5 6.5 9 8.5 9"/><path stroke="currentColor" d="M3.5,9.00000002 L3.5,6.50000002 C3.5,5.67157288 2.82842712,5.00000002 2,5.00000002 C1.17157288,5.00000002 0.5,5.67157288 0.5,6.50000002 L0.5,9.00000002"/><line x1=".5" x2="3.5" y1="7.5" y2="7.5" stroke="currentColor"/></g></svg>