<svg xmlns="http://www.w3.org/2000/svg" width="14" height="14" viewBox="0 0 14 14"><g fill="none" fill-rule="evenodd" stroke-linecap="round" stroke-linejoin="round"><rect width="13" height="13" x=".5" y=".5" stroke="currentColor" rx="1" transform="rotate(180 7 7)"/><path stroke="currentColor" d="M9.99999899,6.5 C9.99999899,8.15685425 8.65685425,9.5 6.99999899,9.5 L6.99999899,9.5 C5.34314575,9.5 3.99999899,8.15685425 3.99999899,6.5 L3.99999899,4.31 C3.99965394,4.13724909 4.08850675,3.97655723 4.23499953,3.88499924 C4.3814923,3.79344126 4.56486993,3.7839891 4.72,3.86 L6.99999899,5 L9.28,3.86 C9.43513007,3.7839891 9.6185077,3.79344126 9.76500047,3.88499924 C9.91149325,3.97655723 10.0003461,4.13724909 9.99999899,4.31 L9.99999899,6.5 Z"/><line x1="7" x2="7" y1="9.5" y2="13.5" stroke="currentColor"/><line x1="7" x2="9.5" y1="13.5" y2="11" stroke="currentColor"/><line x1="7" x2="4.5" y1="13.5" y2="11" stroke="currentColor"/></g></svg>