<svg xmlns="http://www.w3.org/2000/svg" width="14" height="14" viewBox="0 0 14 14"><g fill="none" fill-rule="evenodd" stroke-linecap="round" stroke-linejoin="round"><path stroke="currentColor" d="M7.36,13.43 L7.36,13.43 C7.1283248,13.5193969 6.8716752,13.5193969 6.64,13.43 L6.64,13.43 C2.93726002,11.9781334 0.50109668,8.40720993 0.5,4.43 L0.5,1.5 C0.5,0.94771525 0.94771525,0.5 1.5,0.5 L12.5,0.5 C13.0522847,0.5 13.5,0.94771525 13.5,1.5 L13.5,4.42 C13.5030186,8.40086034 11.0661398,11.9768015 7.36,13.43 Z"/><rect width="5" height="4" x="4.5" y="5.5" stroke="currentColor" rx="1"/><path stroke="currentColor" d="M8.5,5.49999997 L8.5,4.49999997 C8.5,3.96410161 8.21410163,3.46891107 7.75000001,3.20096187 C7.28589839,2.93301267 6.71410161,2.93301267 6.24999999,3.20096187 C5.78589837,3.46891107 5.5,3.96410161 5.5,4.49999997 L5.5,5.49999997"/></g></svg>