<svg xmlns="http://www.w3.org/2000/svg" width="14" height="14" viewBox="0 0 14 14"><g fill="none" fill-rule="evenodd" stroke-linecap="round" stroke-linejoin="round"><path stroke="currentColor" d="M1.5,2.5 C0.94771525,2.5 0.5,2.94771525 0.5,3.5 L0.5,12.5 C0.5,13.0522847 0.94771525,13.5 1.5,13.5 L12.5,13.5 C13.0522847,13.5 13.5,13.0522847 13.5,12.5 L13.5,3.5 C13.5,2.94771525 13.0522847,2.5 12.5,2.5 L10.5,2.5"/><line x1="3.5" x2="3.5" y1=".5" y2="4.5" stroke="currentColor"/><line x1="10.5" x2="10.5" y1=".5" y2="4.5" stroke="currentColor"/><line x1="3.5" x2="8.5" y1="2.5" y2="2.5" stroke="currentColor"/><path stroke="currentColor" d="M6.45,5.37 C6.53811025,5.14306228 6.75655772,4.99354157 7,4.99354157 C7.24344228,4.99354157 7.46188975,5.14306228 7.55,5.37 L8.19,7 L9.9,7 C10.1281097,7.01740651 10.32647,7.16301602 10.4114342,7.37542633 C10.4963983,7.58783664 10.4531784,7.83007822 10.3,8 L8.79,9.36 L9.43,10.64 C9.54905071,10.8709178 9.50002181,11.152834 9.31,11.33 C9.12175375,11.5089653 8.84082669,11.5490978 8.61,11.43 L7,10.55 L5.39,11.43 C5.15917331,11.5490978 4.87824625,11.5089653 4.69,11.33 C4.49997819,11.152834 4.45094929,10.8709178 4.57,10.64 L5.21,9.36 L3.7,8 C3.54682157,7.83007822 3.5036017,7.58783664 3.58856583,7.37542633 C3.67352995,7.16301602 3.87189025,7.01740651 4.1,7 L5.81,7 L6.45,5.37 Z"/></g></svg>