<svg xmlns="http://www.w3.org/2000/svg" width="14" height="14" viewBox="0 0 14 14"><g fill="none" fill-rule="evenodd" stroke-linecap="round" stroke-linejoin="round"><path stroke="currentColor" d="M1.5,2.5 C0.94771525,2.5 0.5,2.94771525 0.5,3.5 L0.5,12.5 C0.5,13.0522847 0.94771525,13.5 1.5,13.5 L12.5,13.5 C13.0522847,13.5 13.5,13.0522847 13.5,12.5 L13.5,3.5 C13.5,2.94771525 13.0522847,2.5 12.5,2.5 L10.5,2.5"/><line x1="3.5" x2="3.5" y1=".5" y2="4.5" stroke="currentColor"/><line x1="10.5" x2="10.5" y1=".5" y2="4.5" stroke="currentColor"/><line x1="3.5" x2="8.5" y1="2.5" y2="2.5" stroke="currentColor"/><polyline stroke="currentColor" points="10 8.5 7 5.5 4 8.5"/><polyline stroke="currentColor" points="5 7.5 5 11 9 11 9 7.5"/></g></svg>