<svg xmlns="http://www.w3.org/2000/svg" width="14" height="14" viewBox="0 0 14 14"><g fill="none" fill-rule="evenodd" stroke-linecap="round" stroke-linejoin="round"><polyline stroke="currentColor" points="8.5 6.5 9.5 6.5 9.5 11"/><line x1="8.5" x2="10.5" y1="11" y2="11" stroke="currentColor"/><path stroke="currentColor" d="M1.5,2.5 C0.94771525,2.5 0.5,2.94771525 0.5,3.5 L0.5,12.5 C0.5,13.0522847 0.94771525,13.5 1.5,13.5 L12.5,13.5 C13.0522847,13.5 13.5,13.0522847 13.5,12.5 L13.5,3.5 C13.5,2.94771525 13.0522847,2.5 12.5,2.5 L10.5,2.5"/><line x1="3.5" x2="3.5" y1=".5" y2="4.5" stroke="currentColor"/><line x1="10.5" x2="10.5" y1=".5" y2="4.5" stroke="currentColor"/><line x1="3.5" x2="8.5" y1="2.5" y2="2.5" stroke="currentColor"/><path stroke="currentColor" d="M3.5,6.5 L6,6.5 L4.5,8.5 C4.5,8.5 6,8.5 6,9.5 C6.05720456,9.91272882 5.91767884,10.3284124 5.62304564,10.6230456 C5.32841244,10.9176788 4.91272882,11.0572046 4.5,11 L3.5,11"/></g></svg>