<svg xmlns="http://www.w3.org/2000/svg" width="14" height="14" viewBox="0 0 14 14"><g fill="none" fill-rule="evenodd"><path stroke="currentColor" stroke-linecap="round" stroke-linejoin="round" d="M1.51160526,1.49831986 L1.51160526,5.5029068 L1.51160526,5.5029068 L1.51160526,12.5 C1.51160526,13.0522847 1.95932051,13.5 2.51160526,13.5 L11.5118046,13.5 C12.0640893,13.5 12.5118046,13.0522847 12.5118046,12.5 L12.5118046,5.53333378 L12.5118046,5.53333378 L12.5118046,1.49831986 C12.5118046,0.946035114 12.0640893,0.498319864 11.5118046,0.498319864 L2.51160526,0.498319864 C1.95932051,0.498319864 1.51160526,0.946035114 1.51160526,1.49831986 Z M1.5,5.5 L12.5,5.5"/><line x1="7.857" x2="10" y1="3" y2="3" stroke="currentColor" stroke-linecap="round"/><circle cx="4.25" cy="8.25" r="1" fill="currentColor"/><circle cx="7" cy="8.25" r="1" fill="currentColor"/><circle cx="9.75" cy="8.25" r="1" fill="currentColor"/><circle cx="4.25" cy="10.75" r="1" fill="currentColor"/><circle cx="7" cy="10.75" r="1" fill="currentColor"/><circle cx="9.75" cy="10.75" r="1" fill="currentColor"/></g></svg>