<svg xmlns="http://www.w3.org/2000/svg" viewBox="0 0 14 14" height="14" width="14"><g><line x1="6.5" y1="11" x2="7.5" y2="11" fill="none" stroke="currentColor" stroke-linecap="round" stroke-linejoin="round"></line><line x1="10" y1="5" x2="10" y2="3" fill="none" stroke="currentColor" stroke-linecap="round" stroke-linejoin="round"></line><path d="M12,1.75A1.25,1.25,0,0,1,10.75,3H9.25a1.25,1.25,0,0,1,0-2.5h1.5A1.25,1.25,0,0,1,12,1.75Z" fill="none" stroke="currentColor" stroke-linecap="round" stroke-linejoin="round"></path><polyline points="5.5 5 5.5 1.5 2.5 1.5 2.5 5" fill="none" stroke="currentColor" stroke-linecap="round" stroke-linejoin="round"></polyline><rect x="0.5" y="8.5" width="13" height="5" rx="1" fill="none" stroke="currentColor" stroke-linecap="round" stroke-linejoin="round"></rect><path d="M12.5,8.5V6a1,1,0,0,0-1-1h-9a1,1,0,0,0-1,1V8.5" fill="none" stroke="currentColor" stroke-linecap="round" stroke-linejoin="round"></path></g></svg>