<svg xmlns="http://www.w3.org/2000/svg" width="14" height="14" viewBox="0 0 14 14"><g fill="none" fill-rule="evenodd"><path stroke="currentColor" stroke-linecap="round" stroke-linejoin="round" d="M0.5,2 C0.5,1 1,0.5 2,0.5 C3,0.5 5.83333333,0.5 10.5,0.5 L10.5,5.5 L10.5,13.5 C9.83333333,12.5 9,12 8,12 C6.5,12 6,13.5 5.5,13.5 C5,13.5 4.5,12 3,12 C2,12 1.16666667,12.5 0.5,13.5 L0.5,2 Z"/><path stroke="currentColor" stroke-linejoin="round" d="M11.5,0.5 C11.6666667,0.5 11.8333333,0.5 12,0.5 C12.5546875,0.5 12.9939957,0.730758667 13.3179245,1.192276 C13.4122503,1.32399826 13.4714775,1.47731575 13.5,1.63699341 C13.5,1.72014364 13.5,1.84114583 13.5,2 C13.5,2.33333333 13.5,3.66666667 13.5,6 L11.0048828,6 C11.0026048,6.0000008 11.0003268,5.99999746 10.9980488,5.99999809 C10.6660163,5.99934832 10.5,5.83268229 10.5,5.5 C10.5,4.16666667 10.5,2.83333333 10.5,1.5 C10.5,0.94771525 10.9477153,0.5 11.5,0.5 Z"/><line x1="9.5" x2="11.5" y1=".5" y2=".5" stroke="currentColor" stroke-linecap="square"/><line x1="3.5" x2="7.5" y1="4" y2="4" stroke="currentColor" stroke-linecap="round" stroke-linejoin="round"/><line x1="3.5" x2="7.5" y1="6.5" y2="6.5" stroke="currentColor" stroke-linecap="round" stroke-linejoin="round"/><line x1="3.5" x2="7.5" y1="9" y2="9.066" stroke="currentColor" stroke-linecap="round" stroke-linejoin="round"/></g></svg>