<svg xmlns="http://www.w3.org/2000/svg" width="14" height="14" viewBox="0 0 14 14"><g fill="none" fill-rule="evenodd" stroke-linecap="round" stroke-linejoin="round"><rect width="13" height="13" x=".5" y=".5" stroke="currentColor" rx="1"/><path stroke="currentColor" d="M5.49,10.56 L5.49,6.73 C5.49567525,6.61048322 5.56036052,6.50159624 5.66260531,6.43944745 C5.7648501,6.37729865 5.89129156,6.37001056 6,6.42 L9.32,8.33 C9.42932149,8.39736303 9.49589951,8.51659063 9.49589951,8.645 C9.49589951,8.77340937 9.42932149,8.89263697 9.32,8.96 L6,10.88 C5.88950389,10.9254192 5.7638766,10.9146919 5.66268067,10.8511964 C5.56148474,10.7877009 5.49717356,10.6792511 5.49,10.56 Z"/><line x1=".5" x2="13.5" y1="4" y2="4" stroke="currentColor"/><line x1="4" x2="5.5" y1="4" y2=".5" stroke="currentColor"/><line x1="8.5" x2="10" y1="4" y2=".5" stroke="currentColor"/></g></svg>