<svg xmlns="http://www.w3.org/2000/svg" width="14" height="14" viewBox="0 0 14 14"><g fill="none" fill-rule="evenodd" stroke-linecap="round" stroke-linejoin="round"><g stroke="currentColor" transform="translate(3.5 5.93)"><path d="M0,7.57 L3.14,0.24 C3.20055513,0.0946676939 3.34255667,0 3.5,0 C3.65744333,0 3.79944487,0.0946676939 3.86,0.24 L7,7.57"/><line x1="1.41" x2="5.59" y1="4.28" y2="4.28"/></g><path stroke="currentColor" d="M0.5,4 C0.5,2.06700338 2.06700338,0.5 4,0.5"/><path stroke="currentColor" d="M.5 4C.5 2.06700338 2.06700338.5 4 .5M3 4C3 3.44771525 3.44771525 3 4 3"/><path stroke="currentColor" d="M3 4C3 3.44771525 3.44771525 3 4 3M10 .5C11.9329966.5 13.5 2.06700338 13.5 4"/><path stroke="currentColor" d="M10 .5C11.9329966.5 13.5 2.06700338 13.5 4M10 3C10.5522847 3 11 3.44771525 11 4"/><path stroke="currentColor" d="M10,3 C10.5522847,3 11,3.44771525 11,4"/></g></svg>