<svg xmlns="http://www.w3.org/2000/svg" width="14" height="14" viewBox="0 0 14 14"><path fill="none" stroke="currentColor" stroke-linecap="round" stroke-linejoin="round" d="M2.18 5.44C2.44219557 5.62667583 2.59851169 5.92814263 2.6 6.25 2.64114873 6.5445492 2.53412661 6.84040817 2.31406135 7.04046749 2.0939961 7.24052681 1.78930633 7.31895138 1.5 7.25.54 7 .09 5.57 1 3.25M5.7 5.44C5.96598537 5.62448939 6.12621521 5.9263177 6.13 6.25 6.17114873 6.5445492 6.06412661 6.84040817 5.84406135 7.04046749 5.6239961 7.24052681 5.31930633 7.31895138 5.03 7.25 4.03 7.06 3.62 5.59 4.5 3.25M11.82 8.56C11.5578044 8.37332417 11.4014883 8.07185737 11.4 7.75 11.3588513 7.4554508 11.4658734 7.15959183 11.6859386 6.95953251 11.9060039 6.75947319 12.2106937 6.68104862 12.5 6.75 13.5 6.94 13.91 8.41 13.02 10.75M8.3 8.56C8.03401463 8.37551061 7.87378479 8.0736823 7.87 7.75 7.82885127 7.4554508 7.93587339 7.15959183 8.15593865 6.95953251 8.3760039 6.75947319 8.68069367 6.68104862 8.97 6.75 9.97 6.94 10.38 8.41 9.5 10.75"/></svg>