<svg xmlns="http://www.w3.org/2000/svg" width="14" height="14" viewBox="0 0 14 14"><g fill="none" fill-rule="evenodd" stroke-linecap="round" stroke-linejoin="round"><line x1="3" x2="11" y1="7.5" y2="7.5" stroke="currentColor"/><line x1="7" x2="7" y1="5.5" y2="7.5" stroke="currentColor"/><path stroke="currentColor" d="M4.5,7.5 C4.5,9.82 6.66,11.78 9.5,13.5"/><path stroke="currentColor" d="M9.5 7.5C9.55 9.82 7.34 11.78 4.5 13.5M.5 4C.5 2.06700338 2.06700338.5 4 .5"/><path stroke="currentColor" d="M.5 4C.5 2.06700338 2.06700338.5 4 .5M3 4C3 3.44771525 3.44771525 3 4 3"/><path stroke="currentColor" d="M3 4C3 3.44771525 3.44771525 3 4 3M10 .5C11.9329966.5 13.5 2.06700338 13.5 4"/><path stroke="currentColor" d="M10 .5C11.9329966.5 13.5 2.06700338 13.5 4M10 3C10.5522847 3 11 3.44771525 11 4"/><path stroke="currentColor" d="M10,3 C10.5522847,3 11,3.44771525 11,4"/></g></svg>