<svg xmlns="http://www.w3.org/2000/svg" width="14" height="14" viewBox="0 0 14 14"><path fill="none" stroke="currentColor" stroke-linecap="round" stroke-linejoin="round" d="M5,9.43 C4.5814886,9.7886361 4.05106763,9.99019607 3.5,10 C2.68282934,10.0783795 1.873372,9.78758556 1.29289322,9.20710678 C0.712414436,8.626628 0.421620516,7.81717066 0.5,7 C0.421620516,6.18282934 0.712414436,5.373372 1.29289322,4.79289322 C1.873372,4.21241444 2.68282934,3.92162052 3.5,4 C6.25,4 7.75,10 10.5,10 C11.3171707,10.0783795 12.126628,9.78758556 12.7071068,9.20710678 C13.2875856,8.626628 13.5783795,7.81717066 13.5,7 C13.5783795,6.18282934 13.2875856,5.373372 12.7071068,4.79289322 C12.126628,4.21241444 11.3171707,3.92162052 10.5,4 C9.96624172,4.02116185 9.45528519,4.22202062 9.05,4.57"/></svg>