<svg xmlns="http://www.w3.org/2000/svg" width="14" height="14" viewBox="0 0 14 14"><g fill="none" fill-rule="evenodd" stroke-linecap="round" stroke-linejoin="round"><path stroke="currentColor" d="M4.28,5.25 C4.49393992,3.33741374 5.90045562,1.77257874 7.77947936,1.35661451 C9.65850311,0.940650292 11.5940608,1.76564209 12.5952409,3.40923417 C13.5964209,5.05282625 13.4415844,7.15116385 12.21,8.63"/><polyline stroke="currentColor" points="8.75 3.75 8.75 5.75 10.25 5.75"/><path stroke="currentColor" d="M.75 7.75 4.75 7.75C5.41304122 7.75 6.04892601 8.0133921 6.51776695 8.48223305 6.9866079 8.95107399 7.25 9.58695878 7.25 10.25L7.25 10.25M4.25 10.25 9.25 10.25C10.3545695 10.25 11.25 11.1454305 11.25 12.25L11.25 12.25C11.25 12.5261424 11.0261424 12.75 10.75 12.75L.75 12.75"/></g></svg>