<svg xmlns="http://www.w3.org/2000/svg" width="14" height="14" viewBox="0 0 14 14"><g fill="none" fill-rule="evenodd" stroke-linecap="round" stroke-linejoin="round"><path stroke="currentColor" d="M13.5 6.92C13.4903356 8.03115673 13.2377678 9.12675496 12.76 10.13M7 13.42C5.27609282 13.42 3.62279238 12.7351805 2.40380592 11.5161941 1.18481946 10.2972076.5 8.64390718.5 6.92"/><polyline stroke="currentColor" points="9 8.92 7 6.42 4 6.42"/><circle cx="12" cy="11.42" r="1.5" stroke="currentColor"/><path stroke="currentColor" d="M.92 4.52C1.13793437 3.9753555 1.43075417 3.46376228 1.79 3M3.72 1.28C4.28355864.954584355 4.89413426.718450137 5.53.58M13.08 4.52C12.8620656 3.9753555 12.5692458 3.46376228 12.21 3M10.28 1.28C9.71644136.954584355 9.10586574.718450137 8.47.58"/></g></svg>