<svg xmlns="http://www.w3.org/2000/svg" width="14" height="14" viewBox="0 0 14 14"><g fill="none" fill-rule="evenodd" stroke-linecap="round" stroke-linejoin="round"><path stroke="currentColor" d="M12.93,11.34 C8.99650087,10.77996 5.00349913,10.77996 1.07,11.34 C0.927478728,11.360159 0.783183163,11.3179187 0.674031121,11.2240862 C0.56487908,11.1302538 0.501460159,10.9939325 0.499955701,10.85 L0.499955701,2.49 C0.498050953,2.34491628 0.560502161,2.20642939 0.670531502,2.11184277 C0.780560843,2.01725614 0.926852231,1.97629763 1.07,2 C5.00420357,2.55000481 8.99579643,2.55000481 12.93,2 C13.0714183,1.97659369 13.2159944,2.01628495 13.3256385,2.10861681 C13.4352826,2.20094868 13.4989986,2.33666125 13.5000243,2.48 L13.5000243,10.84 C13.5014358,10.9856779 13.4392632,11.1247371 13.3297432,11.2208072 C13.2202232,11.3168774 13.0742492,11.360403 12.93,11.34 Z"/><line x1="7" x2="7" y1="10.92" y2="13.42" stroke="currentColor"/><line x1="4.5" x2="9.5" y1="13.42" y2="13.42" stroke="currentColor"/></g></svg>