<svg xmlns="http://www.w3.org/2000/svg" width="14" height="14" viewBox="0 0 14 14"><g fill="none" fill-rule="evenodd"><path stroke="currentColor" stroke-linejoin="round" d="M2.5,13 L7,13 L7,1.96392632 C7,1.68778394 6.77614237,1.46392632 6.5,1.46392632 L3,1.46392632 C2.72385763,1.46392632 2.5,1.68778394 2.5,1.96392632 L2.5,7.5 L2.5,7.5 L2.5,8"/><line x1="4" x2="5.417" y1="4" y2="4" stroke="currentColor" stroke-linecap="round" stroke-linejoin="round"/><line x1="11.397" x2="12.126" y1="11.166" y2="11.166" stroke="currentColor" stroke-linecap="round" stroke-linejoin="round"/><line x1="11.397" x2="12.126" y1="9.666" y2="9.666" stroke="currentColor" stroke-linecap="round" stroke-linejoin="round"/><line x1="10.189" x2="10.917" y1="3.552" y2="3.552" stroke="currentColor" stroke-linecap="round" stroke-linejoin="round" transform="rotate(90 10.5 3.552)"/><polygon stroke="currentColor" stroke-linejoin="round" points=".5 13 4.5 13 4.5 10 2.5 8 .5 10"/><polygon stroke="currentColor" stroke-linejoin="round" points="8.5 8 12.5 8 12.5 3 10.5 .5 8.5 3"/><line x1="4" x2="5.417" y1="6" y2="6" stroke="currentColor" stroke-linecap="round" stroke-linejoin="round"/><polygon stroke="currentColor" points="7 8 13.5 8 13.5 13 7 13"/><line x1="10.189" x2="10.917" y1="5.552" y2="5.552" stroke="currentColor" stroke-linecap="round" stroke-linejoin="round" transform="rotate(90 10.5 5.552)"/></g></svg>