<svg xmlns="http://www.w3.org/2000/svg" width="14" height="14" viewBox="0 0 14 14"><g fill="none" fill-rule="evenodd" stroke-linecap="round" stroke-linejoin="round"><path stroke="currentColor" d="M7.17948954 2.56903444 12.2866507 4.5333272C12.544387 4.63245653 12.6729633 4.92175327 12.573834 5.17948954 12.5230469 5.31153582 12.418697 5.41588577 12.2866507 5.4666728L7.17948954 7.43096556C7.06395526 7.47540182 6.93604474 7.47540182 6.82051046 7.43096556L1.71334929 5.4666728C1.45561302 5.36754347 1.32703669 5.07824673 1.42616602 4.82051046 1.47695306 4.68846418 1.581303 4.58411423 1.71334929 4.5333272L6.82051046 2.56903444C6.93604474 2.52459818 7.06395526 2.52459818 7.17948954 2.56903444ZM10 7.5 10.5 10C9.33333333 10.6666667 8.16666667 11 7 11 5.83333333 11 4.66666667 10.6666667 3.5 10L4 7.5"/><path stroke="currentColor" d="M7,4 L2.5,6 L1.5,8.5"/><circle cx="1.5" cy="8.463" r="1" stroke="currentColor"/><line x1="1.75" x2="2" y1="9.25" y2="10.245" stroke="currentColor"/><line x1="1.125" x2=".875" y1="9.373" y2="10.123" stroke="currentColor"/></g></svg>