<svg xmlns="http://www.w3.org/2000/svg" version="1.1" xmlns:xlink="http://www.w3.org/1999/xlink" xmlns:svgjs="http://svgjs.com/svgjs" width="512" height="512" viewBox="0 0 512 512">
  <g fill-rule="evenodd">
    <path d="m124.77 508.72c41.926 2.155 84.732 3.278 131.23 3.278s89.302-1.123 131.23-3.278c60.667-3.144 109.72-54.474 116.47-119.1 4.57-43.561 8.302-88.155 8.302-133.6 0-45.492-3.773-90.13-8.301-133.65-6.75-64.668-55.804-115.95-116.47-119.1-41.928-2.155-84.734-3.278-131.23-3.278-46.496 0-89.302 1.123-131.23 3.278-60.667 3.144-109.72 54.474-116.47 119.1-4.571 43.561-8.302 88.155-8.302 133.65 0 45.448 3.773 90.087 8.301 133.6 6.75 64.668 55.804 115.95 116.47 119.1z" fill="#036"></path>
    <g fill="#CCD7E6">
      <path d="M353.598 55.628c2.082-2.444 1.884-4.424-.44-4.424h-11.411c-2.32 0-3.486-.265-7.224 3.665l-31.87 36.304-.086-35.545c0-2.444-1.883-4.424-4.208-4.424h-7.746c-2.324 0-4.21 1.98-4.21 4.424l-.003 80.751c0 2.44 1.883 4.421 4.207 4.421h7.782c2.324 0 4.207-1.98 4.207-4.42l.007-21.116 14.158-16.087 21.859 37.202c1.423 2.44 3.42 4.421 5.744 4.421h11.675c2.326 0 3.057-1.98 1.634-4.42l-30.15-49.842 26.075-30.91zM166.4 136.376c0 2.443 1.776 4.424 3.965 4.424h8.03c2.194 0 3.97-1.98 3.97-4.424l.035-80.752c0-2.443-1.776-4.424-3.968-4.424h-8.024c-2.195 0-3.968 1.98-3.968 4.424l-.04 80.752zM252.445 55.624c0-2.443 2.01-4.424 4.488-4.424h8.974c2.484 0 4.493 1.98 4.493 4.424l-.012 80.755c0 2.44-2.011 4.421-4.49 4.421h-8.914c-2.478 0-4.488-1.98-4.488-4.42l-.032-33.265h-36.122l.007 33.264c0 2.44-2.007 4.421-4.489 4.421h-8.972c-2.479 0-4.488-1.98-4.488-4.42l.003-80.756c0-2.443 2.01-4.424 4.488-4.424h9c2.476 0 4.49 1.98 4.49 4.424l-.039 32.487h36.122l-.019-32.487z"></path>
    </g>
  </g>
  <g fill="#fff" stroke="#000" stroke-width="0" aria-label="LUXC">
    <path d="m119.55 381.69q0 6.12-4.5333 10.427-4.3067 4.08-10.88 4.08h-63.92q-6.8 0-12.013-4.5333-4.9867-4.5333-4.9867-11.107v-131.69q0-5.8933 4.5333-10.2 4.76-4.3067 11.333-4.3067t11.107 4.3067q4.76 4.3067 4.76 10.2v118.77h49.187q6.12 0 10.653 4.08 4.76 4.08 4.76 9.9733z"></path>
    <path d="m246.25 341.8q0 12.24-3.8533 22.667-3.8533 10.2-11.333 17.907-7.2534 7.48-17.907 11.787-10.427 4.08-23.8 4.08-13.6 0-24.253-4.3067-10.653-4.3067-17.907-11.787-7.2534-7.48-11.107-17.68-3.6267-10.427-3.6267-22.667v-92.48q0-6.5733 4.5333-10.653 4.76-4.3067 11.56-4.3067 6.3467 0 10.88 4.5333 4.76 4.3067 4.76 10.427v92.48q0 12.24 6.12 19.947t19.04 7.7067 18.813-7.7067q6.12-7.7067 6.12-19.947v-92.48q0-5.8933 4.5333-10.427t11.107-4.5333q7.0267 0 11.56 4.5333 4.76 4.5333 4.76 10.427v92.48z"></path>
    <path d="m292.04 389.17v-0.22666q-1.8133 3.1733-5.2134 6.3467-3.4 2.9467-9.2933 2.9467-6.12 0-10.88-4.5333-4.5333-4.5334-4.5333-10.2 0-1.8133 0.68-4.08t1.5867-3.6267l39.213-62.56-36.04-56.893q-1.8133-3.6267-1.8133-7.7067 0-5.44 4.5333-9.7467 4.5333-4.5333 10.653-4.5333 5.2133 0 9.0667 3.1733 4.08 3.1733 6.5734 7.2533l25.613 42.16 25.613-42.16q2.2667-3.1733 6.12-6.8t9.7467-3.6267 10.427 4.3067q4.5333 4.3067 4.5333 10.2 0 1.8133-0.68 3.8533-0.45333 1.8133-1.36 3.6267l-35.813 56.893 39.213 62.56q0.90667 1.36 1.5867 3.6267t0.68 4.08q0 5.6667-4.76 10.2-4.5333 4.5333-10.427 4.5333-5.8933 0-9.2933-2.9467-3.4-2.9467-5.44-6.12l-30.147-49.867z"></path>
    <path d="m424.41 338.63q0 7.2534 1.36 13.147t4.5333 9.9734q3.1733 4.08 8.3867 6.3467t12.92 2.2667q5.44 0 9.9734-1.36t8.84-4.08l2.2667-1.36q2.2667-1.36 4.08-2.2667 1.8133-1.1333 5.6667-1.1333 6.5733 0 10.653 4.08 4.3067 4.08 4.3067 9.52 0 4.9867-4.08 9.52-3.8533 4.3067-10.427 7.7067-6.5733 3.1733-14.96 5.2133-8.3867 1.8133-17.453 1.8133-14.96 0-25.84-4.08-10.88-4.3067-18.133-12.013-7.0267-7.9333-10.427-18.813-3.4-11.107-3.4-24.48v-44.88q0-13.373 3.4-24.253 3.4-11.107 10.427-18.813 7.2534-7.9333 18.133-12.013 10.88-4.3067 25.84-4.3067 9.0667 0 17.453 2.04 8.3867 1.8133 14.96 5.2133 6.5734 3.1733 10.427 7.7067 4.08 4.3067 4.08 9.2934 0 5.44-4.3067 9.52-4.08 4.08-10.653 4.08-3.8533 0-5.6667-0.90667-1.8133-1.1333-4.08-2.4933l-2.2667-1.36q-4.3067-2.72-8.84-4.08-4.5333-1.36-9.9734-1.36-7.7067 0-12.92 2.2667t-8.3867 6.3467-4.5333 9.9734-1.36 13.147z"></path>
  </g>

 <style>@media (prefers-color-scheme: light) { :root { filter: none; } }
@media (prefers-color-scheme: dark) { :root { filter: contrast(1) brightness(1.1); } }
</style></svg>