<svg xmlns="http://www.w3.org/2000/svg" width="14" height="14" viewBox="0 0 14 14"><g fill="none" fill-rule="evenodd"><path stroke="currentColor" stroke-linecap="square" stroke-linejoin="round" d="M1.5,11 C0.94771525,11 0.5,10.5522847 0.5,10 L0.5,8 C0.5,7.44771525 0.94771525,7 1.5,7 L3.5,7 L3.5,7 L4.27207592,4.68377223 C4.40818997,4.27543009 4.79032881,4 5.22075922,4 L9.27924078,4 C9.70967119,4 10.09181,4.27543009 10.2279241,4.68377223 L11,7 L11,7 L12.5,7 C13.0522847,7 13.5,7.44771525 13.5,8 L13.5,10 C13.5,10.5522847 13.0522847,11 12.5,11 L12.5,11 L12.5,11"/><line x1="5.5" x2="8.5" y1="11" y2="11" stroke="currentColor" stroke-linecap="round" stroke-linejoin="round"/><path fill="currentColor" d="M3.56966972 9C4.67423922 9 5.56966972 9.8954305 5.56966972 11 5.56966972 12.1045695 4.67423922 13 3.56966972 13 2.46510022 13 1.56966972 12.1045695 1.56966972 11 1.56966972 9.8954305 2.46510022 9 3.56966972 9ZM3.56966972 10C3.01738497 10 2.56966972 10.4477153 2.56966972 11 2.56966972 11.5522847 3.01738497 12 3.56966972 12 4.12195447 12 4.56966972 11.5522847 4.56966972 11 4.56966972 10.4477153 4.12195447 10 3.56966972 10ZM10.5 9C11.6045695 9 12.5 9.8954305 12.5 11 12.5 12.1045695 11.6045695 13 10.5 13 9.3954305 13 8.5 12.1045695 8.5 11 8.5 9.8954305 9.3954305 9 10.5 9ZM10.5 10C9.94771525 10 9.5 10.4477153 9.5 11 9.5 11.5522847 9.94771525 12 10.5 12 11.0522847 12 11.5 11.5522847 11.5 11 11.5 10.4477153 11.0522847 10 10.5 10Z"/></g></svg>