<svg xmlns="http://www.w3.org/2000/svg" width="14" height="14" viewBox="0 0 14 14"><g fill="none" fill-rule="evenodd" stroke-linecap="round" stroke-linejoin="round"><circle cx="5" cy="2.75" r="2.25" stroke="currentColor"/><path stroke="currentColor" d="M3.5 12.5.5 12.5.5 11C.516181121 9.45069271 1.32652226 8.01815356 2.64607466 7.20612132 3.96562706 6.39408907 5.60963548 6.31625926 7 7M9.9343922 8.74038462 10.1325342 8.27076923C10.2009274 8.10803188 10.3710913 8.00051527 10.5610739 8L10.9389261 8C11.1289087 8.00051527 11.2990726 8.10803188 11.3674658 8.27076923L11.5656078 8.74038462 12.238369 9.09576923 12.7821076 9.01961538C12.9672799 8.99653824 13.1492971 9.07842612 13.2429029 9.22692308L13.4272211 9.52307692C13.5239073 9.67407718 13.5092499 9.86416651 13.3903574 10.0011538L13.0539768 10.3946154 13.0539768 11.1053846 13.3995733 11.4988462C13.5184658 11.6358335 13.5331232 11.8259228 13.436437 11.9769231L13.2521188 12.2730769C13.158513 12.4215739 12.9764958 12.5034618 12.7913235 12.4803846L12.2475849 12.4042308 11.5748237 12.7596154 11.3766817 13.2292308C11.3082885 13.3919681 11.1381246 13.4994847 10.948142 13.5L10.5610739 13.5C10.3710913 13.4994847 10.2009274 13.3919681 10.1325342 13.2292308L9.9343922 12.7596154 9.26163097 12.4042308 8.71789244 12.4803846C8.53272009 12.5034618 8.35070293 12.4215739 8.25709707 12.2730769L8.07277893 11.9769231C7.97609269 11.8259228 7.99075012 11.6358335 8.10964256 11.4988462L8.44602317 11.1053846 8.44602317 10.3946154 8.10042665 10.0011538C7.98153422 9.86416651 7.96687678 9.67407718 8.06356302 9.52307692L8.24788117 9.22692308C8.34148703 9.07842612 8.52350418 8.99653824 8.70867653 9.01961538L9.25241506 9.09576923 9.9343922 8.74038462ZM9.82840927 10.75C9.82840927 11.2173179 10.2410195 11.5961538 10.75 11.5961538 11.2589805 11.5961538 11.6715907 11.2173179 11.6715907 10.75 11.6715907 10.2826821 11.2589805 9.90384615 10.75 9.90384615 10.2410195 9.90384615 9.82840927 10.2826821 9.82840927 10.75Z"/></g></svg>