<svg xmlns="http://www.w3.org/2000/svg" width="14" height="14" viewBox="0 0 14 14"><g fill="none" fill-rule="evenodd" stroke-linecap="round" stroke-linejoin="round"><circle cx="5" cy="2.75" r="2.25" stroke="currentColor"/><path stroke="currentColor" d="M3.5,12.5 L0.5,12.5 L0.5,11 C0.516181121,9.45069271 1.32652226,8.01815356 2.64607466,7.20612132 C3.96562706,6.39408907 5.60963548,6.31625926 7,7"/><line x1="5.516" x2="5.343" y1="12.247" y2="12.766" stroke="currentColor"/><circle cx="5.776" cy="11.618" r="1" stroke="currentColor"/><line x1="5.949" x2="6.122" y1="12.162" y2="12.851" stroke="currentColor"/><path stroke="currentColor" d="M11.8622891 11.002204 12.208443 12.7329732C11.4007507 13.1945116 10.5930584 13.4252809 9.78536606 13.4252809 8.97767375 13.4252809 8.16998144 13.1945116 7.36228914 12.7329732L7.70844298 11.002204M9.9648556 7.60969993 13.0720168 8.80476192C13.329753 8.90389125 13.4583294 9.19318799 13.3592 9.45092426 13.308413 9.58297054 13.2040631 9.68732049 13.0720168 9.73810752L9.9648556 10.9331695C9.84932132 10.9776058 9.7214108 10.9776058 9.60587652 10.9331695L6.49871535 9.73810752C6.24097907 9.63897819 6.11240275 9.34968145 6.21153208 9.09194518 6.26231911 8.9598989 6.36666906 8.85554895 6.49871535 8.80476192L9.60587652 7.60969993C9.7214108 7.56526367 9.84932132 7.56526367 9.9648556 7.60969993Z"/><line x1="6.285" x2="5.785" y1="8.945" y2="11.445" stroke="currentColor"/></g></svg>