<svg xmlns="http://www.w3.org/2000/svg" width="14" height="14" viewBox="0 0 14 14"><g fill="none" fill-rule="evenodd" stroke-linecap="round" stroke-linejoin="round"><circle cx="5" cy="5.694" r="1.5" stroke="currentColor"/><path stroke="currentColor" d="M7.5,9.5 C7.16666667,8.16666667 6.33333333,7.5 5,7.5 C3.66666667,7.5 2.83333333,8.16666667 2.5,9.5"/><path stroke="currentColor" d="M1.5,2.5 L12.5,2.5 C13.0522847,2.5 13.5,2.94771525 13.5,3.5 L13.5,10.5 C13.5,11.0522847 13.0522847,11.5 12.5,11.5 L1.5,11.5 C0.94771525,11.5 0.5,11.0522847 0.5,10.5 L0.5,3.5 C0.5,2.94771525 0.94771525,2.5 1.5,2.5 Z"/><line x1="9.5" x2="11.5" y1="6" y2="6" stroke="currentColor"/><line x1="9.5" x2="11.5" y1="8" y2="8" stroke="currentColor"/></g></svg>