<svg xmlns="http://www.w3.org/2000/svg" width="14" height="14" viewBox="0 0 14 14"><g fill="none" fill-rule="evenodd" stroke-linecap="round" stroke-linejoin="round"><circle cx="5" cy="2.75" r="2.25" stroke="currentColor"/><path stroke="currentColor" d="M3.5 12.5.5 12.5.5 11C.516181121 9.45069271 1.32652226 8.01815356 2.64607466 7.20612132 3.96562706 6.39408907 5.60963548 6.31625926 7 7M7.4343922 8.74038462 7.63253421 8.27076923C7.70092742 8.10803188 7.87109128 8.00051527 8.0610739 8L8.4389261 8C8.62890872 8.00051527 8.79907258 8.10803188 8.86746579 8.27076923L9.0656078 8.74038462 9.73836903 9.09576923 10.2821076 9.01961538C10.4672799 8.99653824 10.6492971 9.07842612 10.7429029 9.22692308L10.9272211 9.52307692C11.0239073 9.67407718 11.0092499 9.86416651 10.8903574 10.0011538L10.5539768 10.3946154 10.5539768 11.1053846 10.8995733 11.4988462C11.0184658 11.6358335 11.0331232 11.8259228 10.936437 11.9769231L10.7521188 12.2730769C10.658513 12.4215739 10.4764958 12.5034618 10.2913235 12.4803846L9.74758494 12.4042308 9.0748237 12.7596154 8.8766817 13.2292308C8.80828848 13.3919681 8.63812463 13.4994847 8.44814201 13.5L8.0610739 13.5C7.87109128 13.4994847 7.70092742 13.3919681 7.63253421 13.2292308L7.4343922 12.7596154 6.76163097 12.4042308 6.21789244 12.4803846C6.03272009 12.5034618 5.85070293 12.4215739 5.75709707 12.2730769L5.57277893 11.9769231C5.47609269 11.8259228 5.49075012 11.6358335 5.60964256 11.4988462L5.94602317 11.1053846 5.94602317 10.3946154 5.60042665 10.0011538C5.48153422 9.86416651 5.46687678 9.67407718 5.56356302 9.52307692L5.74788117 9.22692308C5.84148703 9.07842612 6.02350418 8.99653824 6.20867653 9.01961538L6.75241506 9.09576923 7.4343922 8.74038462ZM7.32840927 10.75C7.32840927 11.2173179 7.74101949 11.5961538 8.25 11.5961538 8.75898051 11.5961538 9.17159073 11.2173179 9.17159073 10.75 9.17159073 10.2826821 8.75898051 9.90384615 8.25 9.90384615 7.74101949 9.90384615 7.32840927 10.2826821 7.32840927 10.75ZM10.85 7.19C12.5939069 7.85340407 13.7475331 9.5241731 13.75 11.39L13.75 12.5 12.25 12.5M9.25.5C10.4926407.5 11.5 1.50735931 11.5 2.75 11.5 3.99264069 10.4926407 5 9.25 5"/></g></svg>