<svg xmlns="http://www.w3.org/2000/svg" width="14" height="14" viewBox="0 0 14 14"><g fill="none" fill-rule="evenodd"><circle cx="5" cy="2.75" r="2.25" stroke="currentColor" stroke-linecap="round" stroke-linejoin="round"/><path stroke="currentColor" stroke-linecap="round" stroke-linejoin="round" d="M3.5 12.5.5 12.5.5 11C.516181121 9.45069271 1.32652226 8.01815356 2.64607466 7.20612132 3.96562706 6.39408907 5.60963548 6.31625926 7 7M13.4074892 11.7619944 11.7617068 13.4077769C11.6378214 13.5315082 11.437127 13.5315082 11.3132416 13.4077769L8.04706148 10.1415968C8.01382269 10.1098212 7.99671899 10.0647296 8.00052265 10.0189035L8.25014004 8.39850584C8.25435757 8.31853662 8.31824893 8.25464526 8.39821815 8.25042773L10.0186158 8.00081033C10.064442 7.99700667 10.1095335 8.01411038 10.1413091 8.04734917L13.4074892 11.3135293C13.5312205 11.4374146 13.5312205 11.6381091 13.4074892 11.7619944L13.4074892 11.7619944Z"/><circle cx="9.816" cy="9.817" r="1" fill="currentColor"/></g></svg>