<svg xmlns="http://www.w3.org/2000/svg" width="14" height="14" viewBox="0 0 14 14"><g fill="none" fill-rule="evenodd" stroke-linecap="round" stroke-linejoin="round"><path stroke="currentColor" d="M5.5,8.5 L8.5,8.5 L7.90629951,9.80963343 C7.85108173,9.93143736 7.84696073,10.0702853 7.89485742,10.1951497 L8.5,11.7727273 L8.5,11.7727273 L7,13.5 L5.5,11.7727273 L6.10844788,10.4573466 C6.24151297,10.1696782 6.23032463,9.8359597 6.07829109,9.55784955 L5.5,8.5 L5.5,8.5 Z"/><circle cx="7.18" cy="3.75" r="3.25" stroke="currentColor"/><path stroke="currentColor" d="M4,9 C3,9 1.3613871,10.8139278 0.5,13.5 L4.5,13.5"/><path stroke="currentColor" d="M13.5,9 C12.5,9 10.8613871,10.8139278 10,13.5 L13.5,13.5" transform="matrix(-1 0 0 1 23.5 0)"/></g></svg>