<svg xmlns="http://www.w3.org/2000/svg" width="14" height="14" viewBox="0 0 14 14"><g fill="none" fill-rule="evenodd" stroke-linecap="round" stroke-linejoin="round"><path stroke="currentColor" d="M10.723892,7.5 L9.223892,5.5 L4.223892,5.5 L2.723892,7.5 L2.723892,12.5 C2.723892,13.0522847 3.17160725,13.5 3.723892,13.5 L9.723892,13.5 C10.2761767,13.5 10.723892,13.0522847 10.723892,12.5 L10.723892,7.5 Z"/><line x1="10.724" x2="13.224" y1="7.5" y2="5.5" stroke="currentColor"/><line x1="2.724" x2=".224" y1="7.5" y2="5.5" stroke="currentColor"/><path stroke="currentColor" d="M4.223892,0.5 L9.223892,0.5 C9.77617675,0.5 10.223892,0.94771525 10.223892,1.5 L10.223892,3 L3.223892,3 L3.223892,1.5 C3.223892,0.94771525 3.67160725,0.5 4.223892,0.5 Z"/><line x1="4.224" x2="4.224" y1="3" y2="5.5" stroke="currentColor"/><line x1="9.224" x2="9.224" y1="3" y2="5.5" stroke="currentColor"/></g></svg>