<svg xmlns="http://www.w3.org/2000/svg" width="14" height="14" viewBox="0 0 14 14"><g fill="none" fill-rule="evenodd" stroke-linecap="round" stroke-linejoin="round"><path stroke="currentColor" d="M7.97389152,4 L7.97389152,1 C7.97389152,0.723857625 7.75003437,0.5 7.47389152,0.5 L5.97389152,0.5 C5.69774962,0.5 5.47389152,0.723857625 5.47389152,1 L5.47389152,4 L5.47389152,4 C4.53642854,4.62314089 3.97329366,5.674326 3.97389152,6.8 L3.97389152,12.5 C3.97389152,13.0522847 4.42160725,13.5 4.97389152,13.5 L8.47389152,13.5 C9.02617675,13.5 9.47389152,13.0522847 9.47389152,12.5 L9.47389152,6.8 C9.47449034,5.674326 8.91135546,4.62314089 7.97389152,4 L7.97389152,4 Z"/><line x1="3.974" x2="9.474" y1="7.5" y2="7.5" stroke="currentColor"/><line x1="9.474" x2="3.974" y1="11" y2="11" stroke="currentColor"/></g></svg>