<svg xmlns="http://www.w3.org/2000/svg" width="14" height="14" viewBox="0 0 14 14"><g fill="none" fill-rule="evenodd" stroke-linecap="round" stroke-linejoin="round"><path stroke="currentColor" d="M1.223892.5 9.223892.5C9.77617675.5 10.223892.94771525 10.223892 1.5L10.223892 11.5C10.223892 12.6045695 9.3284615 13.5 8.223892 13.5L2.223892 13.5C1.1193225 13.5.223892 12.6045695.223892 11.5L.223892 1.5C.223892.94771525.67160725.5 1.223892.5ZM10.223892 3 12.223892 3C12.7761767 3 13.223892 3.44771525 13.223892 4L13.223892 8.5C13.223892 9.05228475 12.7761767 9.5 12.223892 9.5L10.223892 9.5"/><line x1="3.474" x2="3.474" y1="4" y2="9.5" stroke="currentColor"/><line x1="6.974" x2="6.974" y1="4" y2="9.5" stroke="currentColor"/></g></svg>