<svg xmlns="http://www.w3.org/2000/svg" width="14" height="14" viewBox="0 0 14 14"><g fill="none" fill-rule="evenodd" stroke-linecap="round" stroke-linejoin="round"><path stroke="currentColor" d="M1.723892,4 L9.723892,4 C10.0000344,4 10.223892,4.22385763 10.223892,4.5 L10.223892,9 C10.223892,10.1045695 9.3284615,11 8.223892,11 L3.223892,11 C2.1193225,11 1.223892,10.1045695 1.223892,9 L1.223892,4.5 C1.223892,4.22385763 1.44774962,4 1.723892,4 Z"/><line x1=".224" x2="13.224" y1="13.5" y2="13.5" stroke="currentColor"/><path stroke="currentColor" d="M10.223892,5 L11.223892,5 C12.3284615,5 13.223892,5.8954305 13.223892,7 L13.223892,7 C13.223892,8.1045695 12.3284615,9 11.223892,9 L10.223892,9"/><line x1="2.724" x2="2.724" y1=".5" y2="1.5" stroke="currentColor"/><line x1="7.724" x2="7.724" y1=".5" y2="1.5" stroke="currentColor"/><line x1="5.224" x2="5.224" y1=".5" y2="1.5" stroke="currentColor"/></g></svg>