<svg xmlns="http://www.w3.org/2000/svg" width="14" height="14" viewBox="0 0 14 14"><g fill="none" fill-rule="evenodd" stroke-linecap="round" stroke-linejoin="round"><path stroke="currentColor" d="M2.723892 5.5 7.723892 5.5C8.27617675 5.5 8.723892 5.94771525 8.723892 6.5L8.723892 11.5C8.723892 12.6045695 7.8284615 13.5 6.723892 13.5L3.723892 13.5C2.6193225 13.5 1.723892 12.6045695 1.723892 11.5L1.723892 6.5C1.723892 5.94771525 2.17160725 5.5 2.723892 5.5ZM8.723892 6.5 9.223892 6.5C10.6046039 6.5 11.723892 7.61928813 11.723892 9 11.723892 10.3807119 10.6046039 11.5 9.223892 11.5L8.723892 11.5"/><line x1="3.724" x2="3.724" y1=".5" y2="2.5" stroke="currentColor"/><line x1="6.724" x2="6.724" y1=".5" y2="2.5" stroke="currentColor"/></g></svg>