<svg xmlns="http://www.w3.org/2000/svg" width="14" height="14" viewBox="0 0 14 14"><g fill="none" fill-rule="evenodd" stroke-linecap="round" stroke-linejoin="round"><path stroke="currentColor" d="M7.723892,6 C5.9577327,6.00127904 4.29922657,6.84912522 3.263892,8.28 L1.223892,7 L0.223892,8 L2.223892,11.5 L2.223892,12.5 C2.223892,13.0522847 2.67160725,13.5 3.223892,13.5 L12.223892,13.5 C12.7761767,13.5 13.223892,13.0522847 13.223892,12.5 L13.223892,11.5 C13.223892,8.46243388 10.7614581,6 7.723892,6 Z"/><line x1="7.724" x2="7.724" y1="6" y2="4.5" stroke="currentColor"/><path stroke="currentColor" d="M3.723892,7.73 L3.723892,4.5 C3.723892,2.290861 5.514753,0.5 7.723892,0.5 C9.933031,0.5 11.723892,2.290861 11.723892,4.5 L11.723892,7.73"/></g></svg>