<svg xmlns="http://www.w3.org/2000/svg" width="14" height="14" viewBox="0 0 14 14"><g fill="none" fill-rule="evenodd" stroke-linecap="round" stroke-linejoin="round"><path stroke="currentColor" d="M11.223892 6 10.333892 12.62C10.2728686 13.1249651 9.84251767 13.5036739 9.333892 13.5000265L4.103892 13.5000265C3.59526633 13.5036739 3.1649154 13.1249651 3.103892 12.62L2.223892 6M10.453892 3.68C10.3108981 3.25462906 9.90204436 2.97660853 9.453892 3L3.943892 3C3.51397609 2.99889024 3.13146412 3.27268828 2.993892 3.68L2.223892 6 11.223892 6 10.453892 3.68Z"/><path stroke="currentColor" d="M8.223892,3 L8.223892,1.5 C8.223892,0.94771525 7.77617675,0.5 7.223892,0.5 L6.223892,0.5 C5.67160725,0.5 5.223892,0.94771525 5.223892,1.5 L5.223892,3"/></g></svg>