<svg xmlns="http://www.w3.org/2000/svg" width="14" height="14" viewBox="0 0 14 14"><g fill="none" fill-rule="evenodd" stroke-linecap="round" stroke-linejoin="round"><path stroke="currentColor" d="M7 13.4999428C5.53523834 11.8873043 3.54879578 10.8427401 1.39 10.5499428.881065063 10.4936277.496893765 10.0619745.499981297 9.54994276L.499981297 1.49994276C.499981297 1.20763095.627862249.929945446.85.739942764 1.06813309.55347375 1.35586342.46970416 1.64.509942764 3.70429174.852549617 5.59271753 1.88131889 7 3.42994276L7 13.4999428ZM7 13.4999428C8.46476166 11.8873043 10.4512042 10.8427401 12.61 10.5499428 13.1189349 10.4936277 13.5031062 10.0619745 13.5000187 9.54994276L13.5000187 1.49994276C13.5000187 1.20763095 13.3721378.929945446 13.15.739942764 12.9318669.55347375 12.6441366.46970416 12.36.509942764 10.2957083.852549617 8.40728247 1.88131889 7 3.42994276L7 13.4999428Z"/><path stroke="currentColor" d="M8.5 9.5C9.5 8.5 10.6666667 8 12 8M8.5 7.5C9.5 6.5 10.6666667 6 12 6M8.5 5.5C9.5 4.5 10.6666667 4 12 4"/><path stroke="currentColor" d="M2 9.5C3 8.5 4.16666667 8 5.5 8M2 7.5C3 6.5 4.16666667 6 5.5 6M2 5.5C3 4.5 4.16666667 4 5.5 4" transform="matrix(-1 0 0 1 7.5 0)"/></g></svg>