<svg xmlns="http://www.w3.org/2000/svg" width="14" height="14" viewBox="0 0 14 14"><g fill="none" fill-rule="evenodd" stroke-linecap="round" stroke-linejoin="round"><path stroke="currentColor" d="M7.0000187,13.4998855 C5.64793069,12.3834479 3.81429097,11.6602909 1.82155592,11.4575858 C1.35176971,11.4185986 0.99714997,11.119763 1,10.7652808 L1,5.19222573 C1,4.98985681 1.11804398,4.79761375 1.32309426,4.66607395 C1.52444794,4.53698052 1.79004523,4.47898641 2.05232521,4.5068438 C3.95782573,4.74403223 5.70098842,5.45625433 7.0000187,6.52837435 L7.0000187,13.4998855 Z"/><circle cx="7" cy="2.5" r="2" stroke="currentColor"/><path stroke="currentColor" d="M7.0000187,13.4998855 C8.35209829,12.3834479 10.1857266,11.6602909 12.1784492,11.4575858 C12.6482325,11.4185986 13.00285,11.119763 13,10.7652808 L13,5.19222573 C13,4.98985681 12.8819568,4.79761375 12.6769077,4.66607395 C12.4755553,4.53698052 12.2099597,4.47898641 11.9476814,4.5068438 C10.0421927,4.74403223 8.29904089,5.45625433 7.0000187,6.52837435 L7.0000187,13.4998855 Z"/></g></svg>