<svg xmlns="http://www.w3.org/2000/svg" width="14" height="14" viewBox="0 0 14 14"><g fill="none" fill-rule="evenodd" stroke-linecap="round" stroke-linejoin="round"><path stroke="currentColor" d="M6.15,0.53 C6.02681854,0.456417841 5.87318146,0.456417841 5.75,0.53 C5.64677965,0.611782898 5.62100724,0.757826552 5.69,0.87 C6.92,3 7.18,5.9 5.5,7.5 C4.85362691,6.95682091 4.34046746,6.27260832 4,5.5 C2.73368568,6.20330402 1.96302543,7.55195947 2,9 C2.05123424,10.2652167 2.61081805,11.4562355 3.55201697,12.3033145 C4.49321589,13.1503935 5.73639525,13.5818616 7,13.5 C10.22,13.5 11.89,11.5 12,9 C12.13,6 10,2.31 6.15,0.53 Z"/><path stroke="currentColor" d="M9.5,9 C9.5,10.1045695 8.6045695,11 7.5,11"/></g></svg>