<svg xmlns="http://www.w3.org/2000/svg" width="14" height="14" viewBox="0 0 14 14"><path fill="none" stroke="currentColor" stroke-linecap="round" stroke-linejoin="round" d="M7 13.5C5.53523834 11.8873616 3.54879578 10.8427973 1.39 10.55.881065063 10.4936849.496893765 10.0620317.499981297 9.55L.499981297 1.5C.499981297 1.20768818.627862249.930002682.85.74 1.06813309.553530986 1.35586342.469761395 1.64.51 3.70429174.852606852 5.59271753 1.88137613 7 3.43L7 13.5ZM7 13.5C8.46476166 11.8873616 10.4512042 10.8427973 12.61 10.55 13.1189349 10.4936849 13.5031062 10.0620317 13.5000187 9.55L13.5000187 1.5C13.5000187 1.20768818 13.3721378.930002682 13.15.74 12.9318669.553530986 12.6441366.469761395 12.36.51 10.2957083.852606852 8.40728247 1.88137613 7 3.43L7 13.5Z"/></svg>