<svg xmlns="http://www.w3.org/2000/svg" width="14" height="14" viewBox="0 0 14 14"><g fill="none" fill-rule="evenodd" stroke-linecap="round" stroke-linejoin="round"><path stroke="currentColor" d="M5.5 9 .5 9 .5 12C.5 12.5522847.94771525 13 1.5 13L4.5 13C5.05228475 13 5.5 12.5522847 5.5 12L5.5 9ZM13.5 9 8.5 9 8.5 12C8.5 12.5522847 8.94771525 13 9.5 13L12.5 13C13.0522847 13 13.5 12.5522847 13.5 12L13.5 9Z"/><line x1="5.5" x2="8.5" y1="9" y2="9" stroke="currentColor"/><path stroke="currentColor" d="M13.5 9 13.5 3C13.5 1.8954305 12.6045695 1 11.5 1L10.5 1M.5 9 .5 3C.5 1.8954305 1.3954305 1 2.5 1L3.5 1"/></g></svg>