<svg xmlns="http://www.w3.org/2000/svg" width="14" height="14" viewBox="0 0 14 14"><path fill="none" stroke="currentColor" stroke-linecap="round" stroke-linejoin="round" d="M2.5.499996768C1.76258491.498918155 1.05060306.769471258.5 1.26L.5 5.74C1.05060306 6.23052874 1.76258491 6.50108184 2.5 6.49999677 2.66631834 6.51523859 2.83368166 6.51523859 3 6.49999677L3 12.29C3 12.9803559 3.55964407 13.54 4.25 13.54 4.94035593 13.54 5.5 12.9803559 5.5 12.29L5.5 3.49999677C5.5 1.84314575 4.15685425.499996768 2.5.499996768ZM11.5.499996768C12.2374151.498918155 12.9493969.769471258 13.5 1.26L13.5 5.74C12.9493969 6.23052874 12.2374151 6.50108184 11.5 6.49999677 11.3336817 6.51523859 11.1663183 6.51523859 11 6.49999677L11 12.29C11 12.9803559 10.4403559 13.54 9.75 13.54 9.05964406 13.54 8.5 12.9803559 8.5 12.29L8.5 3.49999677C8.5 1.84314575 9.84314575.499996768 11.5.499996768Z"/></svg>