<svg xmlns="http://www.w3.org/2000/svg" width="14" height="14" viewBox="0 0 14 14"><g fill="none" fill-rule="evenodd" stroke-linecap="round" stroke-linejoin="round"><rect width="5" height="7" x="4.5" y="6.5" stroke="currentColor" rx="1"/><line x1="2" x2="2" y1="7.5" y2="10.5" stroke="currentColor"/><line x1="12" x2="12" y1="7.5" y2="10.5" stroke="currentColor"/><path stroke="currentColor" d="M2,8.5 L1,8.5 C0.723857625,8.5 0.5,8.27614237 0.5,8 L0.5,7 C0.5,3.41014913 3.41014913,0.5 7,0.5 L7,0.5 C8.72390718,0.5 10.3772076,1.18481946 11.5961941,2.40380592 C12.8151805,3.62279238 13.5,5.27609282 13.5,7 L13.5,8 C13.5,8.27614237 13.2761424,8.5 13,8.5 L12,8.5"/><line x1="7" x2="7" y1="9" y2="10" stroke="currentColor"/></g></svg>