<svg xmlns="http://www.w3.org/2000/svg" width="14" height="14" viewBox="0 0 14 14"><g fill="none" fill-rule="evenodd"><path fill="currentColor" fill-rule="nonzero" d="M12.2569383 8.12469108C12.1911186 8.12390984 12.1266665 8.10555069 12.0701218 8.07166387 12.0136771 8.03777655 11.9672898 7.98943681 11.93565 7.93162463L10.0626101 4.48764324C10.0159304 4.40180371 10.0052854 4.30102425 10.0329228 4.20726976 10.0605601 4.11361776 10.1242298 4.03471319 10.2099718 3.98803344L11.5804644 3.24233747C11.6664015 3.19478023 11.7677684 3.18364529 11.8620129 3.21138014 11.9560549 3.23979749 12.035352 3.30376214 12.0830067 3.38969918L13.9545716 6.86168041C14.0017388 6.94761744 14.0126763 7.0488869 13.9850414 7.14282889 13.9574041 7.23687088 13.8934394 7.31607045 13.8072099 7.3627502L12.4337673 8.08189631C12.3791776 8.11041116 12.3184354 8.12515858 12.2569133 8.12469108L12.2569383 8.12469108ZM10.8864457 4.4582109 12.4072375 7.25819577 13.1293086 6.8809478 11.6085168 4.06471303 10.8864457 4.4582109ZM1.79674481 8.35444216C1.73473265 8.35414687 1.67389298 8.33783843 1.61998827 8.30727259L.189046002 7.51597687C.105256455 7.46949212.0430517914 7.39224754.0155119403 7.30054804-.0120279108 7.20884853-.00265196151 7.11002157.0416842988 7.02524952L1.95749894 3.34101944 1.95740129 3.34092177C2.00320105 3.25312974 2.08230312 3.1872126 2.17703011 3.15820775 2.27185459 3.12861791 2.37468404 3.13926261 2.46140357 3.18770009L3.92624565 3.98789577C4.01091269 4.03457552 4.07370485 4.11270009 4.1012447 4.20527709 4.12888206 4.29795159 4.11892036 4.39765855 4.07360735 4.48300059L2.1224429 8.15698073C2.09080307 8.21606291 2.04392833 8.26547515 1.98660364 8.30024246 1.92937644 8.33500727 1.8637518 8.35365967 1.79675966 8.35444216L1.79674481 8.35444216ZM.859449878 7.04282193 1.64782062 7.48491954 3.240987 4.45943589 2.42459142 4.01733828.859449878 7.04282193Z"/><path fill="currentColor" fill-rule="nonzero" d="M5.96597227,6.08370211 L5.47817491,6.08370211 C5.30932832,6.08409271 5.14605171,6.02344744 5.0183024,5.91300054 C4.89066559,5.80255113 4.80726854,5.64962696 4.78344117,5.48252786 C4.7596133,5.31534127 4.79691759,5.14522969 4.8886156,5.00343045 L5.70061121,3.75081223 C5.83986796,3.53489589 6.07883416,3.4040391 6.33575778,3.4030641 L7.92442419,3.4030641 C8.10938319,3.40355238 8.28789722,3.47113124 8.42697147,3.59320058 L9.68838965,4.70286958 C9.74805683,4.7551143 9.83555636,4.75999927 9.90059601,4.71468601 L10.3765684,4.38168781 L10.3765684,4.38159017 C10.4847703,4.30629807 10.6249071,4.29448064 10.7442414,4.35053533 C10.8635758,4.40659003 10.9438504,4.52201941 10.9549828,4.6533587 C10.9661155,4.78470549 10.9062531,4.9119573 10.7980512,4.98723189 L10.3220787,5.3187801 L10.3220787,5.31887777 C10.1553796,5.43557714 9.95430572,5.49280183 9.75108181,5.4812794 C9.54795791,5.46975596 9.35460896,5.39026489 9.20205978,5.25550062 L7.93906661,4.14583161 L7.93916426,4.14583161 C7.93428153,4.1443668 7.92920331,4.1443668 7.92441834,4.14583161 L6.33575193,4.14583161 C6.32784172,4.14622226 6.32061526,4.15071434 6.31661153,4.1575503 L5.54141572,5.35266884 L5.95996346,5.35266884 L5.95996346,5.35276649 C5.99726826,5.35354774 6.03379056,5.34270805 6.06465039,5.32180916 C6.25986434,5.15813754 6.43144841,4.96818607 6.57452264,4.75736221 C6.64307726,4.65707025 6.75665165,4.59701058 6.87814599,4.59671808 L7.82569087,4.59671808 C7.95733016,4.59671808 8.0789145,4.6669327 8.14473915,4.78099458 C8.21055879,4.89495897 8.21055879,5.03539321 8.14473915,5.14934259 C8.0789195,5.26340447 7.95733766,5.33361909 7.82569087,5.33361909 L7.07266994,5.33361909 C6.90997582,5.5544179 6.71867186,5.75266683 6.50382302,5.92306591 C6.34591387,6.03195282 6.15762489,6.08820252 5.96592592,6.08371004 L5.96597227,6.08370211 Z"/><path fill="currentColor" fill-rule="nonzero" d="M5.59897426 4.89295855 3.62573492 4.89295855C3.49409564 4.89295855 3.37251129 4.82264643 3.30668665 4.70868205 3.24086701 4.59471766 3.24086701 4.45428342 3.30668665 4.34033404 3.37250629 4.22627216 3.49408814 4.15605753 3.62573492 4.15605753L5.59897426 4.15605753C5.73061355 4.15605753 5.85219789 4.22627216 5.91802253 4.34033404 5.98384218 4.45429842 5.98384218 4.59473266 5.91802253 4.70868205 5.85220289 4.82264643 5.73062105 4.89295855 5.59897426 4.89295855ZM3.04073809 9.7501823C2.78136449 9.75057292 2.53244083 9.64783785 2.34884183 9.46453384 2.16534782 9.28123483 2.06221838 9.03251117 2.06221838 8.77313758L2.06221838 8.24404044C2.0628043 7.98614183 2.16544032 7.73886817 2.34756683 7.55634415 2.52979335 7.37372764 2.77676451 7.2705957 3.03476312 7.26933561 3.29266173 7.26817384 3.54061039 7.36905267 3.72450939 7.55001919 3.91054339 7.7333182 4.01650781 7.98291685 4.0192328 8.24406544L4.0192328 8.77316258C4.0192328 9.03253617 3.91610836 9.28125983 3.73250935 9.46455884 3.54901534 9.64785785 3.30008669 9.75058229 3.04071309 9.75020832L3.04073809 9.7501823ZM3.04073809 8.00536673C2.97687093 8.00458548 2.91544626 8.0293901 2.87003651 8.07421385 2.82462676 8.11903761 2.79904189 8.18026828 2.79904189 8.24403794L2.79904189 8.77313508C2.79376842 8.83953972 2.8165223 8.90506686 2.86173655 8.9538966 2.90695131 9.00282134 2.97042847 9.03055619 3.03702811 9.03055619 3.10363025 9.03055619 3.1672024 9.00282134 3.21231966 8.9538966 3.25753442 8.90506936 3.28028929 8.83954222 3.27501432 8.77313508L3.27501432 8.24403794C3.275112 8.17929329 3.24903696 8.11708612 3.20284721 8.07167637 3.15938995 8.0293916 3.10128526 8.00566173 3.04073809 8.00536923L3.04073809 8.00536673Z"/><path fill="currentColor" fill-rule="nonzero" d="M4.25348153,10.2171798 C3.99518293,10.2163985 3.74763427,10.1132753 3.56511025,9.93045632 C3.38249374,9.74764481 3.2797618,9.49988365 3.2794618,9.24158504 L3.2794618,8.7124879 C3.2794618,8.36396479 3.46539829,8.04189153 3.76715916,7.86766747 C4.06900753,7.69335091 4.44098052,7.69335091 4.74272889,7.86766747 C5.04457726,8.04188653 5.23052625,8.36396479 5.23052625,8.7124879 L5.23052625,9.24158504 C5.229745,9.50028365 5.12652181,9.74823231 4.9434278,9.93103132 C4.76032379,10.1138428 4.51228013,10.2167798 4.25348153,10.2171548 L4.25348153,10.2171798 Z M4.25348153,8.4723642 L4.25348153,8.47226655 C4.12203724,8.47392669 4.01627531,8.58095847 4.01627531,8.71250025 L4.01627531,9.24159739 C4.01627531,9.37343168 4.12310974,9.4802686 4.25494652,9.4802686 C4.38687831,9.4802686 4.49371523,9.37343418 4.49371523,9.24159739 L4.49371523,8.71250025 C4.49264104,8.64716811 4.46617538,8.58486344 4.42008313,8.53867369 C4.37496587,8.49629142 4.3153962,8.47256155 4.25348153,8.47226655 L4.25348153,8.4723642 Z"/><path fill="currentColor" fill-rule="nonzero" d="M5.46647497,10.8581763 C5.20797637,10.8573951 4.96032771,10.7540744 4.7780037,10.5708779 C4.59567968,10.3876813 4.49343023,10.1396302 4.49382906,9.88113159 L4.49382906,9.35203445 C4.49392791,9.09413584 4.59617468,8.84666218 4.7782037,8.66396317 C4.96023271,8.48115165 5.20720138,8.37793971 5.46519998,8.37675624 C5.72309859,8.37569053 5.97104725,8.47676418 6.15464625,8.6580132 C6.34097275,8.84111721 6.44701967,9.09081086 6.44936966,9.35205945 L6.44936966,9.88115659 C6.44936966,10.1413052 6.34566022,10.3907288 6.16119622,10.5741278 C5.97662722,10.7575243 5.72662357,10.8597763 5.46647497,10.8582192 L5.46647497,10.8581763 Z M5.46647497,9.11336074 C5.33581068,9.11492323 5.23063625,9.22136765 5.23063625,9.35203195 L5.23063625,9.88112909 C5.22546053,9.94753373 5.24821415,10.0130609 5.29333091,10.0618906 C5.33854567,10.1108153 5.40212032,10.1386477 5.46862246,10.1386477 C5.5352246,10.1386477 5.59879676,10.1108153 5.64401151,10.0618906 C5.68912877,10.0130634 5.71188115,9.94753623 5.70670618,9.88112909 L5.70670618,9.35203195 C5.70563196,9.2874823 5.67975382,9.22576263 5.63444157,9.17967038 C5.58893431,9.13689811 5.52887464,9.11316574 5.46647247,9.11336074 L5.46647497,9.11336074 Z"/><path fill="currentColor" fill-rule="nonzero" d="M6.92521709 10.7772306C6.7192607 10.7773721 6.51926928 10.7078421 6.35794516 10.5797178L5.84504793 10.168595C5.76868084 10.1075604 5.71956111 10.0187908 5.70872117 9.92162387 5.69778372 9.82445689 5.72590857 9.72699492 5.78684574 9.65052533 5.84778291 9.57415825 5.93664993 9.52503851 6.03381691 9.51419857 6.13098388 9.50326113 6.22844586 9.53138598 6.30481544 9.59232315L6.81771267 10.0019959C6.88782979 10.0563906 6.98694926 10.0519957 7.0519889 9.99174199 7.11702855 9.93138982 7.12894099 9.83285535 7.08001625 9.75883325L6.70569328 9.41401011C6.63362367 9.34799547 6.5906539 9.25600347 6.58635892 9.15826149 6.58206194 9.06060702 6.61682876 8.96519504 6.6828434 8.89313793 6.74885804 8.82097082 6.84085005 8.77809855 6.93859202 8.77380357 7.03624649 8.76950685 7.13165847 8.80417341 7.20381558 8.87028805L7.5530387 9.18708634C7.57481583 9.20710573 7.59542097 9.22829612 7.61495336 9.250466L7.87725194 9.49362968C7.95283653 9.56530929 8.07129339 9.56530929 8.14697548 9.49362968 8.18633027 9.45681238 8.20869515 9.40535016 8.20869515 9.35144295 8.20869515 9.29753574 8.18633202 9.24597352 8.14697548 9.20925622L7.31727997 8.43856039 7.31727997 8.43846274C7.24081538 8.37332559 7.19442813 8.27977109 7.18857067 8.17958914 7.18280895 8.07929718 7.21816051 7.98105521 7.28642264 7.90751561 7.35478227 7.833981 7.45019175 7.79150123 7.55057121 7.78984124 7.65096067 7.78827875 7.74764014 7.82773104 7.81824476 7.89911815L8.95006364 8.94988747C9.0314107 9.02478957 9.15807002 9.0194171 9.23296211 8.93807104 9.26889942 8.89900875 9.28794182 8.84725153 9.28569683 8.79412681 9.28345074 8.7410996 9.26030697 8.69109987 9.22124468 8.65516256L8.18970025 7.73406754 8.1896026 7.73406754C8.09116564 7.64637302 8.04692838 7.51287624 8.07368573 7.38376944 8.10034559 7.25466763 8.19390008 7.1496882 8.31899691 7.10819593 8.44419123 7.06679115 8.58189548 7.0953055 8.68031995 7.18290302L9.71186438 8.10242305 9.71918859 8.10242305 10.1038615 8.4457712 10.1039592 8.44586885C10.1380415 8.47848617 10.1839387 8.49586858 10.2310085 8.49401359 10.2781757 8.49225579 10.3226105 8.47125971 10.3540553 8.4361039 10.3854026 8.40084909 10.4012225 8.35436684 10.3976101 8.30729709 10.3940946 8.26022735 10.3716327 8.21667258 10.3353054 8.18649775L6.99882344 5.2347637C6.90038647 5.14706918 6.85614921 5.0135724 6.88280907 4.8844656 6.90956642 4.75536379 7.00312092 4.65028686 7.12821774 4.60889209 7.25331457 4.56738731 7.39111632 4.59590391 7.48954079 4.68359918L10.8215228 7.64858316C11.0311891 7.83510465 11.143096 8.10795567 11.1248461 8.38792916 11.1066822 8.66800264 10.9603945 8.92405126 10.7283733 9.08187541 10.4963445 9.23978455 10.2044511 9.28177683 9.93735256 9.19593729 9.88637533 9.30736169 9.81372073 9.40755615 9.72358371 9.4906607 9.49526495 9.70237955 9.17631167 9.7863591 8.87328831 9.71468199 8.82309358 9.83567633 8.74780149 9.94475824 8.6522945 10.0344053 8.4128433 10.2565716 8.07474763 10.3376286 7.76069932 10.2481741 7.68745722 10.4076457 7.56958786 10.5424975 7.42125116 10.636447 7.27300946 10.730294 7.10065289 10.7792187 6.92505384 10.7771687L6.92521709 10.7772306ZM2.50424099 8.32494C2.45326376 8.32327983 2.40306903 8.31126807 2.35687928 8.28958769L1.81605721 8.03313908C1.71683774 7.99974176 1.63666318 7.92561966 1.5953559 7.82952768 1.55404862 7.7333357 1.55561112 7.62415879 1.59965288 7.5292293 1.64359764 7.43430731 1.72592219 7.3625302 1.82601915 7.33186787 1.92601861 7.30120303 2.03441553 7.31458271 2.12406754 7.36858767L2.66488962 7.62503628 2.66488962 7.62493863C2.76566907 7.67376587 2.83881368 7.76585537 2.86361854 7.87513728 2.88832541 7.98441419 2.86205605 8.09896357 2.79213393 8.1864606 2.72221181 8.27405762 2.61625488 8.32503485 2.50423549 8.32494L2.50424099 8.32494ZM3.68323461 8.87768701C3.62630242 8.87856591 3.56985523 8.86645657 3.51819551 8.8423347L3.49016816 8.82758878C3.39632117 8.78940649 3.32239656 8.71430939 3.28567676 8.61977741 3.24895696 8.52534542 3.25276694 8.41997349 3.29622371 8.32837898 3.33958347 8.23687448 3.41887804 8.16724735 3.51526502 8.13599752 3.611652 8.10465019 3.71663143 8.11441564 3.80558845 8.16294988L3.83508079 8.17623105C3.93605775 8.2239858 4.00998235 8.3150978 4.03595971 8.42378722 4.06193707 8.53247913 4.0371316 8.64712601 3.96857757 8.73541053 3.89992544 8.82369005 3.79504351 8.87603477 3.68322911 8.87769476L3.68323461 8.87768701Z"/><path fill="currentColor" fill-rule="nonzero" d="M10.6271971,8.34568989 C10.5146977,8.34568989 10.4084483,8.29442016 10.3385236,8.20633564 C10.2686015,8.11834862 10.2427242,8.00311424 10.2682115,7.89363733 C10.2936989,7.78406792 10.367821,7.69227092 10.4694804,7.64422368 L11.841448,6.98992722 L11.841448,6.98982957 C11.9302175,6.94324732 12.0340245,6.93484986 12.1290465,6.96648994 C12.2241634,6.99812977 12.3021905,7.0670744 12.3453528,7.15750391 C12.3884201,7.24793342 12.39291,7.35203286 12.3575597,7.44577735 C12.3223049,7.53952684 12.2503328,7.61491644 12.1583408,7.65446872 L10.7863732,8.30876519 C10.7367635,8.33298381 10.6823688,8.34558249 10.6271941,8.34568989 L10.6271971,8.34568989 Z"/></g></svg>