<svg xmlns="http://www.w3.org/2000/svg" width="14" height="14" viewBox="0 0 14 14"><path d="M6.99004579,0 C6.27442478,0.00305414962 5.54666843,0.588772756 5.54057471,1.29892504 C5.51249935,2.26967483 5.48310107,3.24370586 5.45421061,4.21557543 L4.54997086,2.02808764 C4.19067599,1.42090353 3.37971698,1.29434174 2.80060562,1.48121569 C2.16615604,1.73593302 1.73839801,2.51097557 1.95089682,3.07167557 C2.54110186,4.84463442 3.15307762,6.64170773 3.75479301,8.42190613 C2.81435555,11.4325664 5.15074876,14 7.71258342,14 C9.11150791,14 10.3711623,13.5282058 11.1886057,12.6146171 C11.9943564,11.7138409 12.3194848,10.388666 11.9565181,8.8503152 L11.9565181,6.10684092 C11.8709665,5.43851132 11.1778245,5.11064856 10.6343119,5.10424235 C10.305746,5.10648031 10.0075967,5.28592363 9.79824887,5.49619329 C9.55370336,5.2359812 9.18413771,5.1079142 8.89400912,5.09965904 C8.74915316,5.09823491 8.58395877,5.14848689 8.46687609,5.19080437 L8.46687609,1.31244059 C8.45243112,0.565986425 7.70617721,0.00528642883 6.99013954,0 L6.99004579,0 Z M6.99004579,0.875094075 C7.28382019,0.88786692 7.52960007,1.02682239 7.59897468,1.29447194 C7.59093853,3.12440965 7.5943971,4.99002424 7.5943971,6.55798424 C7.16135264,6.52950002 6.66666791,6.66733779 6.4129714,7.00454425 C5.73883454,7.99258561 5.07407263,9.01034034 4.40910238,10.01234 C4.38153482,9.55591022 4.44419854,9.06567858 4.62262202,8.55401477 C4.6549708,8.4637861 4.65659839,8.36277104 4.6271996,8.27151634 L2.77327765,2.78925527 C2.72994196,2.59852196 2.89514416,2.39933557 3.07772908,2.31074231 C3.34507134,2.22275062 3.60129387,2.22905787 3.77290749,2.42915051 L5.4314399,6.43485732 C5.50925978,6.61470528 5.71870392,6.72670465 5.91096848,6.69099912 C6.10322782,6.65539515 6.25896133,6.47575032 6.26750295,6.27993371 C6.31419539,4.62426586 6.36729405,2.96771261 6.41286672,1.31251351 C6.47807208,1.0364213 6.71783897,0.880693002 6.98994683,0.875094075 L6.99004579,0.875094075 Z M8.8666499,5.97928955 C9.06379203,5.98254474 9.28209029,6.08426813 9.3391733,6.25730883 L9.3391733,8.89583577 C9.29736364,9.11576423 9.10032307,9.19184975 8.90297782,9.18747477 C8.76981971,9.1840162 8.66097396,9.1247095 8.56219847,9.06906658 L8.68030198,8.90040606 C9.0061335,8.27043562 8.85414997,7.48856498 8.46678234,6.99093755 L8.46678234,6.22536891 C8.55090947,6.06321877 8.70624194,5.9845864 8.8666499,5.9791958 L8.8666499,5.97928955 Z M10.6432806,5.97928955 C10.8485607,5.97725506 11.0153879,6.09067695 11.0704136,6.27092855 L11.0840448,8.31253174 C11.0424383,8.5324602 10.8495696,8.61312902 10.6478493,8.60417074 C10.4171371,8.589319 10.2325131,8.50295515 10.2116539,8.31253174 L10.2116539,6.30275129 C10.2513255,6.09645296 10.4700352,5.97866455 10.6433702,5.97915779 L10.6432806,5.97928955 Z M7.8169943,7.51959345 C8.06825331,7.78592009 8.12024781,8.10482456 8.01240727,8.34448468 C7.50652468,9.0448714 7.01001703,9.77291421 6.51298855,10.4863998 C6.41390838,10.6288157 6.41105944,10.8320489 6.50627479,10.9772304 C6.6014878,11.1223911 6.78866905,11.2003125 6.95832956,11.1654221 C7.62941956,11.0277874 8.1972289,11.0440634 8.63954414,11.3841292 C9.10870818,11.773528 9.21073886,12.3362593 9.29383736,12.851621 C8.82652226,13.0277059 8.29397315,13.125057 7.71262222,13.125057 C6.46242087,13.125057 5.2386777,12.3536811 4.69545156,11.1608492 L7.04457908,7.61086899 C7.31160884,7.39918006 7.54465441,7.3748677 7.81707477,7.51972366 L7.8169943,7.51959345 Z M10.0979712,9.36528628 C10.2703947,9.43873118 10.4559379,9.47921794 10.6477858,9.47921794 C10.8300764,9.47921794 11.0084088,9.44086659 11.1748141,9.37444248 C11.3749067,10.5339933 11.0977078,11.4019051 10.5386197,12.0267714 C10.4108548,12.1695935 10.2661994,12.3011189 10.1070076,12.4187224 C9.98900822,11.7459136 9.65352051,11.0665945 9.17094508,10.6869612 C8.73972352,10.3554526 8.24930959,10.2418074 7.75777588,10.2266513 L8.06670645,9.78454436 C8.30982749,9.96530897 8.59873473,10.0625636 8.90276949,10.0625636 C9.42094368,10.0561551 9.87190471,9.80936974 10.0978409,9.36535399 L10.0979712,9.36528628 Z"/></svg>