<svg xmlns="http://www.w3.org/2000/svg" width="14" height="14" viewBox="0 0 14 14"><g fill="none" fill-rule="evenodd" stroke-linecap="round" stroke-linejoin="round"><line x1="7" x2="7" y1="13.5" y2="11" stroke="currentColor"/><path stroke="currentColor" d="M4.5 4 4.5 1.5C4.5.94771525 4.94771525.5 5.5.5L8.5.5C9.05228475.5 9.5.94771525 9.5 1.5L9.5 4M10.5 4 3.5 4C3.22385763 4 3 4.22385763 3 4.5L3 7.09C3.00110462 7.35233988 3.10525584 7.60373936 3.29 7.79L4.5 9 4.5 10C4.5 10.5522847 4.94771525 11 5.5 11L8.5 11C9.05228475 11 9.5 10.5522847 9.5 10L9.5 9 10.71 7.79C10.8947442 7.60373936 10.9988954 7.35233988 11 7.09L11 4.5C11 4.22385763 10.7761424 4 10.5 4Z"/><line x1="6.5" x2="7.5" y1="6.5" y2="6.5" stroke="currentColor"/></g></svg>