<svg xmlns="http://www.w3.org/2000/svg" width="14" height="14" viewBox="0 0 14 14"><g fill="none" fill-rule="evenodd" stroke-linecap="round" stroke-linejoin="round"><path stroke="currentColor" d="M1,8 C1.85714286,6.66666667 2.85714286,6 4,6 C5.14285714,6 6.14285714,6.66666667 7,8" transform="rotate(-90 4 7)"/><path stroke="currentColor" d="M-3,8.5 C-2,6.5 -0.333333333,5.5 2,5.5 C4.33333333,5.5 6,6.5 7,8.5" transform="rotate(-90 2 7)"/><path stroke="currentColor" d="M7,7.64285714 C7.85714286,6.64285714 8.85714286,6.14285714 10,6.14285714 C11.1428571,6.14285714 12.1428571,6.80952381 13,8.14285714" transform="rotate(90 10 7.143)"/><circle cx="7" cy="7" r="1" fill="currentColor" stroke="currentColor"/><path stroke="currentColor" d="M7.25,8.25 C8.25,6.58333333 9.91666667,5.75 12.25,5.75 C14.5833333,5.75 16.25,6.58333333 17.25,8.25" transform="rotate(90 12.25 7)"/></g></svg>