<svg xmlns="http://www.w3.org/2000/svg" width="14" height="14" viewBox="0 0 14 14"><g fill="none" fill-rule="evenodd" stroke-linecap="round" stroke-linejoin="round"><path stroke="currentColor" d="M13.5 10.5 13.5 12.5C13.5 13.0522847 13.0522847 13.5 12.5 13.5L10.5 13.5M10.5.5 12.5.5C13.0522847.5 13.5.94771525 13.5 1.5L13.5 3.5M.5 3.5.5 1.5C.5.94771525.94771525.5 1.5.5L3.5.5M3.5 13.5 1.5 13.5C.94771525 13.5.5 13.0522847.5 12.5L.5 10.5M11.5 7C11.5 7 9.5 10 7 10 4.5 10 2.5 7 2.5 7 2.5 7 4.5 4 7 4 9.5 4 11.5 7 11.5 7Z"/><circle cx="7" cy="7" r="1" stroke="currentColor"/></g></svg>