<svg xmlns="http://www.w3.org/2000/svg" width="14" height="14" viewBox="0 0 14 14"><g fill="none" fill-rule="evenodd" stroke-linecap="round" stroke-linejoin="round"><path stroke="currentColor" d="M7 13.39C8.32608245 13.39 9.59785201 12.8632158 10.5355339 11.9255339 11.4732158 10.987852 12 9.71608245 12 8.39L12 5.61C12.0000664 4.38168523 11.5479912 3.19632281 10.73 2.28M1.99999971 6.72 1.99999971 8.39C1.99931455 10.402449 3.20520733 12.2191698 5.06 13M9.5 1.28C7.10859845-.100646682 4.0507519.718659201 2.67 3.11 2.39697802 3.58153021 2.20434577 4.09521621 2.1 4.63"/><path stroke="currentColor" d="M6.48 3.51C7.22498084 3.35533838 7.99990335 3.54695024 8.58695796 4.0309787 9.17401256 4.51500717 9.50982222 5.23919767 9.5 6L9.5 7.61M8.86 9.71C8.16323878 10.4861225 7.05785919 10.7481261 6.08687195 10.3673031 5.11588471 9.98648012 4.4833514 9.04286393 4.5 8L4.5 6C4.49809839 5.65654671 4.56614725 5.31630241 4.7 5"/><line x1="7" x2="7" y1="6.11" y2="7.78" stroke="currentColor"/></g></svg>