<svg xmlns="http://www.w3.org/2000/svg" width="14" height="14" viewBox="0 0 14 14"><g fill="none" fill-rule="evenodd" stroke-linecap="round" stroke-linejoin="round"><path stroke="currentColor" d="M.5 4 .5 1.5C.5.94771525.94771525.5 1.5.5L4 .5M13.5 4 13.5 1.5C13.5.94771525 13.0522847.5 12.5.5L10 .5M.5 10 .5 12.5C.5 13.0522847.94771525 13.5 1.5 13.5L4 13.5M13.5 10 13.5 12.5C13.5 13.0522847 13.0522847 13.5 12.5 13.5L10 13.5"/><polyline stroke="currentColor" points="1 7.5 3.5 7.5 5 3.5 7 9 9 5 10.5 7.5 13 7.5"/></g></svg>