<svg xmlns="http://www.w3.org/2000/svg" width="14" height="14" viewBox="0 0 14 14"><g fill="none" fill-rule="evenodd" stroke-linecap="round" stroke-linejoin="round"><path stroke="currentColor" d="M13.5 10.5 13.5 12.5C13.5 13.0522847 13.0522847 13.5 12.5 13.5L10.5 13.5M10.5.5 12.5.5C13.0522847.5 13.5.94771525 13.5 1.5L13.5 3.5M.5 3.5.5 1.5C.5.94771525.94771525.5 1.5.5L3.5.5M3.5 13.5 1.5 13.5C.94771525 13.5.5 13.0522847.5 12.5L.5 10.5"/><line x1="4" x2="4" y1="3.5" y2="5.5" stroke="currentColor"/><line x1="10" x2="10" y1="3.5" y2="5.5" stroke="currentColor"/><polyline stroke="currentColor" points="7 4.5 7 8 5.5 8"/><path stroke="currentColor" d="M4.5,10 C5.90101261,11.3307994 8.09898739,11.3307994 9.5,10"/></g></svg>