<svg xmlns="http://www.w3.org/2000/svg" width="14" height="14" viewBox="0 0 14 14"><g fill="none" fill-rule="evenodd" stroke-linecap="round" stroke-linejoin="round"><path stroke="currentColor" d="M13.5 10.5 13.5 12.5C13.5 13.0522847 13.0522847 13.5 12.5 13.5L10.5 13.5M10.5.5 12.5.5C13.0522847.5 13.5.94771525 13.5 1.5L13.5 3.5M.5 3.5.5 1.5C.5.94771525.94771525.5 1.5.5L3.5.5M3.5 13.5 1.5 13.5C.94771525 13.5.5 13.0522847.5 12.5L.5 10.5"/><circle cx="7" cy="4.5" r="2" stroke="currentColor"/><path stroke="currentColor" d="M10.16,10.5 C9.57959337,9.28117073 8.34996912,8.50479234 7,8.50479234 C5.65003088,8.50479234 4.42040663,9.28117073 3.84,10.5"/></g></svg>