<svg xmlns="http://www.w3.org/2000/svg" width="14" height="14" viewBox="0 0 14 14"><g fill="none" fill-rule="evenodd" stroke-linecap="round" stroke-linejoin="round"><path stroke="currentColor" d="M3.37,5.85 L5.91,1.79 C6.11023513,1.463579 6.46707682,1.26617721 6.85,1.27 L6.85,1.27 C7.14953014,1.25918862 7.44070194,1.36996834 7.65729591,1.57714518 C7.87388988,1.78432203 7.99749482,2.07028528 8,2.37 L8,5.28 L12.39,5.28 C12.7181047,5.29064043 13.0260216,5.44099417 13.2361796,5.69318369 C13.4463375,5.94537321 13.5387004,6.2753553 13.49,6.6 L12.69,11.76 C12.6193933,12.3305919 12.1349435,12.7593086 11.56,12.7600154 L5,12.7600154 C4.68771929,12.7612237 4.37949098,12.6893037 4.1,12.55 L3.38,12.19"/><line x1="3.37" x2="3.37" y1="5.85" y2="12.16" stroke="currentColor"/><path stroke="currentColor" d="M1,5.85 L3.37,5.85 L3.37,12.16 L1,12.16 C0.723857625,12.16 0.5,11.9361424 0.5,11.66 L0.5,6.35 C0.5,6.07385763 0.723857625,5.85 1,5.85 Z"/></g></svg>