<svg xmlns="http://www.w3.org/2000/svg" width="14" height="14" viewBox="0 0 14 14"><path fill="none" stroke="currentColor" stroke-linecap="round" stroke-linejoin="round" d="M7.49,1.09 L9.08,4.3 C9.15358976,4.46579797 9.30970685,4.58002999 9.49,4.6 L13,5.12 C13.2074627,5.14666571 13.3808658,5.29074411 13.4450814,5.48981245 C13.509297,5.68888079 13.4527735,5.90712906 13.3,6.05 L10.77,8.56 C10.6388075,8.68257127 10.5785888,8.86322749 10.61,9.04 L11.22,12.57 C11.2560338,12.7769361 11.1710489,12.9863382 11.000985,13.1096345 C10.8309212,13.2329309 10.6054803,13.2485939 10.42,13.15 L7.26,11.48 C7.09601395,11.3994967 6.90398605,11.3994967 6.74,11.48 L3.58,13.15 C3.39451971,13.2485939 3.16907884,13.2329309 2.99901496,13.1096345 C2.82895108,12.9863382 2.74396623,12.7769361 2.78,12.57 L3.39,9 C3.42141122,8.82322749 3.36119248,8.64257127 3.23,8.52 L0.67,6.05 C0.515269634,5.90310143 0.461538694,5.67887098 0.532886958,5.4777986 C0.604235222,5.27672622 0.78728435,5.1365145 1,5.12 L4.51,4.6 C4.69029315,4.58002999 4.84641024,4.46579797 4.92,4.3 L6.51,1.09 C6.59840865,0.899108231 6.78962948,0.776936114 7,0.776936114 C7.21037052,0.776936114 7.40159135,0.899108231 7.49,1.09 Z"/></svg>