<svg xmlns="http://www.w3.org/2000/svg" width="14" height="14" viewBox="0 0 14 14"><g fill="none" fill-rule="evenodd" stroke-linecap="round" stroke-linejoin="round"><circle cx="6.87" cy="5" r="4.5" stroke="currentColor"/><circle cx="6.87" cy="5" r="2" stroke="currentColor"/><path stroke="currentColor" d="M6 9.42 5.12 13.12C5.08476947 13.2622455 4.99005277 13.3824629 4.86 13.45 4.7228475 13.5095288 4.5671525 13.5095288 4.43 13.45L1.11 12C.968911289 11.9332991.866127738 11.8056716.831035938 11.6536071.795944138 11.5015426.832407178 11.3417813.93 11.22L3.5 8M8 9.37 8.9 13.12C8.93623666 13.2647843 9.03525827 13.3858107 9.17 13.45 9.3035021 13.5103227 9.4564979 13.5103227 9.59 13.45L12.89 12C13.0333269 11.9340445 13.1371151 11.8043091 13.17 11.65 13.2084697 11.4989321 13.171181 11.338591 13.07 11.22L10.39 7.81"/></g></svg>