<svg xmlns="http://www.w3.org/2000/svg" width="14" height="14" viewBox="0 0 14 14"><g fill="none" fill-rule="evenodd" stroke-linecap="round" stroke-linejoin="round"><path stroke="currentColor" d="M3.37,8.15 L5.91,12.21 C6.11023513,12.536421 6.46707682,12.7338228 6.85,12.73 L6.85,12.73 C7.14953014,12.7408114 7.44070194,12.6300317 7.65729591,12.4228548 C7.87388988,12.215678 7.99749482,11.9297147 8,11.63 L8,8.72 L12.39,8.72 C12.7181047,8.70935957 13.0260216,8.55900583 13.2361796,8.30681631 C13.4463375,8.05462679 13.5387004,7.7246447 13.49,7.4 L12.69,2.24 C12.6193933,1.66940808 12.1349435,1.24069142 11.56,1.23998464 L5,1.23998464 C4.68771929,1.23877633 4.37949098,1.31069627 4.1,1.45 L3.38,1.81"/><line x1="3.37" x2="3.37" y1="8.15" y2="1.84" stroke="currentColor"/><path stroke="currentColor" d="M1,1.84 L3.37,1.84 L3.37,8.15 L1,8.15 C0.723857625,8.15 0.5,7.92614237 0.5,7.65 L0.5,2.34 C0.5,2.06385763 0.723857625,1.84 1,1.84 Z"/></g></svg>