<svg xmlns="http://www.w3.org/2000/svg" width="14" height="14" viewBox="0 0 14 14"><g fill="none" fill-rule="evenodd" stroke-linecap="round" stroke-linejoin="round"><line x1=".5" x2="13.5" y1="13.5" y2=".5" stroke="currentColor"/><path stroke="currentColor" d="M4.5 5 3 5C2.44771525 5 2 5.44771525 2 6L2 8C2 8.55228475 2.44771525 9 3 9L4.5 9 4.5 5ZM10 4 10 3C9.9988587 2.62344179 9.78627965 2.27945024 9.45 2.11 9.12643258 1.95544561 8.74488065 1.98596976 8.45 2.19L4.5 5M6.67 10.56 8.41 11.81C8.70488065 12.0140302 9.08643258 12.0445544 9.41 11.89 9.76185391 11.7319491 9.99143843 11.3856267 10 11L10 7"/><line x1="4.5" x2="4.79" y1="9" y2="9.21" stroke="currentColor"/></g></svg>