<svg xmlns="http://www.w3.org/2000/svg" width="14" height="14" viewBox="0 0 14 14"><g fill="none" fill-rule="evenodd" stroke="currentColor" stroke-linecap="round" stroke-linejoin="round" transform="matrix(-1 0 0 1 13.5 .5)"><path d="M3 10 3 2C3 .8954305 3.8954305 0 5 0L11.25 0M9.5 3 9.5 11C9.5 12.1045695 8.6045695 13 7.5 13M5.5 11 5.5 10.5C5.5 10.2238576 5.27614237 10 5 10L.5 10C.223857625 10 0 10.2238576 0 10.5L0 11C0 12.1045695.8954305 13 2 13L7.5 13C6.3954305 13 5.5 12.1045695 5.5 11Z"/><path d="M11.25,0 L11.25,0 C12.2164983,0 13,0.783501688 13,1.75 L13,2.5 C13,2.77614237 12.7761424,3 12.5,3 L9.5,3 L9.5,1.75 C9.5,0.783501688 10.2835017,0 11.25,0 L11.25,0 Z"/></g></svg>