<svg xmlns="http://www.w3.org/2000/svg" width="14" height="14" viewBox="0 0 14 14"><g fill="none" fill-rule="evenodd" stroke-linecap="round" stroke-linejoin="round"><path stroke="currentColor" d="M13.5000051,10.29 C13.5009867,10.5492356 13.3586236,10.7877899 13.13,10.91 C12.9053004,11.0446732 12.6246996,11.0446732 12.4,10.91 L7.32,7.59 C7.11859241,7.46140768 6.99669616,7.23895816 6.99669616,7 C6.99669616,6.76104184 7.11859241,6.53859232 7.32,6.41 L12.4,3.11 C12.6246996,2.97532677 12.9053004,2.97532677 13.13,3.11 C13.3586236,3.23221008 13.5009867,3.47076439 13.5000051,3.73 L13.5000051,10.29 Z"/><path stroke="currentColor" d="M7.0000051,10.29 C7.0009867,10.5492356 6.85862364,10.7877899 6.63,10.91 C6.40530045,11.0446732 6.12469955,11.0446732 5.9,10.91 L0.82,7.59 C0.618592405,7.46140768 0.496696164,7.23895816 0.496696164,7 C0.496696164,6.76104184 0.618592405,6.53859232 0.82,6.41 L5.9,3.11 C6.12469955,2.97532677 6.40530045,2.97532677 6.63,3.11 C6.85238359,3.22877611 6.99371541,3.45796284 7.0000051,3.71 L7.0000051,10.29 Z"/></g></svg>