<svg xmlns="http://www.w3.org/2000/svg" width="14" height="14" viewBox="0 0 14 14"><g fill="none" fill-rule="evenodd" stroke-linecap="round" stroke-linejoin="round"><path stroke="currentColor" d="M0.499994904,10.29 C0.499013299,10.5492356 0.641376357,10.7877899 0.87,10.91 C1.09469955,11.0446732 1.37530045,11.0446732 1.6,10.91 L6.68,7.61 C6.88140759,7.48140768 7.00330384,7.25895816 7.00330384,7.02 C7.00330384,6.78104184 6.88140759,6.55859232 6.68,6.43 L1.6,3.11 C1.37530045,2.97532677 1.09469955,2.97532677 0.87,3.11 C0.641376357,3.23221008 0.499013299,3.47076439 0.499994904,3.73 L0.499994904,10.29 Z"/><path stroke="currentColor" d="M6.9999949,10.29 C6.9990133,10.5492356 7.14137636,10.7877899 7.37,10.91 C7.59469955,11.0446732 7.87530045,11.0446732 8.1,10.91 L13.18,7.61 C13.3814076,7.48140768 13.5033038,7.25895816 13.5033038,7.02 C13.5033038,6.78104184 13.3814076,6.55859232 13.18,6.43 L8.1,3.11 C7.87530045,2.97532677 7.59469955,2.97532677 7.37,3.11 C7.14761641,3.22877611 7.00628459,3.45796284 6.9999949,3.71 L6.9999949,10.29 Z"/><line x1="13.5" x2="13.5" y1="2.5" y2="11.5" stroke="currentColor"/></g></svg>