<svg xmlns="http://www.w3.org/2000/svg" fill="none" height="14" width="14" viewBox="0 0 14 14"><path stroke="currentColor" stroke-linecap="round" stroke-linejoin="round" d="M7 13.5a6.5 6.5 0 1 0 0-13 6.5 6.5 0 0 0 0 13z"/><path stroke="currentColor" stroke-linecap="round" stroke-linejoin="round" d="M3.7 8c.5 1.8 2.5 2.9 4.3 2.4 1.1-.4 2-1.3 2.3-2.4M4.8 5.45a.25.25 0 0 1 0-.5M4.8 5.45a.25.25 0 0 0 0-.5" /><g stroke="currentColor" stroke-linecap="round" stroke-linejoin="round"><path d="M9.2 5.45a.25.25 0 0 1 0-.5M9.2 5.45a.25.25 0 0 0 0-.5"/></g></svg>