<svg xmlns="http://www.w3.org/2000/svg" fill="none" height="14" width="14" viewBox="0 0 14 14"><path stroke="currentColor" stroke-linecap="round" stroke-linejoin="round" d="M7 13.5a6.5 6.5 0 1 0 0-13 6.5 6.5 0 0 0 0 13z"/><path stroke="currentColor" stroke-linecap="round" stroke-linejoin="round" d="M3.7 10.5C4.2 8.7 6.1 7.6 8 8.1c1.1.3 2 1.2 2.4 2.4M4.85 5.45a.25.25 0 0 1 0-.5M4.85 5.45a.25.25 0 0 0 0-.5"/><g stroke="currentColor" stroke-linecap="round" stroke-linejoin="round"><path d="M9.25 5.45a.25.25 0 0 1 0-.5M9.25 5.45a.25.25 0 0 0 0-.5"/></g></svg>