<svg xmlns="http://www.w3.org/2000/svg" width="14" height="14" viewBox="0 0 14 14"><path fill="none" stroke="currentColor" stroke-linecap="round" stroke-linejoin="round" d="M13.5,6.5 C13.5,5.94771525 13.0522847,5.5 12.5,5.5 L8.5,5.5 L8.5,1.5 C8.5,0.94771525 8.05228475,0.5 7.5,0.5 L6.5,0.5 C5.94771525,0.5 5.5,0.94771525 5.5,1.5 L5.5,5.5 L1.5,5.5 C0.94771525,5.5 0.5,5.94771525 0.5,6.5 L0.5,7.5 C0.5,8.05228475 0.94771525,8.5 1.5,8.5 L5.5,8.5 L5.5,12.5 C5.5,13.0522847 5.94771525,13.5 6.5,13.5 L7.5,13.5 C8.05228475,13.5 8.5,13.0522847 8.5,12.5 L8.5,8.5 L12.5,8.5 C13.0522847,8.5 13.5,8.05228475 13.5,7.5 L13.5,6.5 Z"/></svg>