<svg xmlns="http://www.w3.org/2000/svg" width="14" height="14" viewBox="0 0 14 14"><path fill="none" stroke="currentColor" stroke-linecap="round" stroke-linejoin="round" d="M13.19,3.05 C13.5979478,2.63710251 13.5979478,1.97289749 13.19,1.56 L12.44,0.81 C12.0336615,0.433928018 11.4063385,0.433928018 11,0.81 L7,4.76 L3.05,0.81 C2.63710251,0.402052165 1.97289749,0.402052165 1.56,0.81 L0.81,1.56 C0.402052165,1.97289749 0.402052165,2.63710251 0.81,3.05 L4.81,7.05 L0.81,11 C0.402052165,11.4128975 0.402052165,12.0771025 0.81,12.49 L1.56,13.24 C1.97289749,13.6479478 2.63710251,13.6479478 3.05,13.24 L7,9.24 L11,13.19 C11.4128975,13.5979478 12.0771025,13.5979478 12.49,13.19 L13.24,12.44 C13.6479478,12.0271025 13.6479478,11.3628975 13.24,10.95 L9.24,7 L13.19,3.05 Z"/></svg>