<svg xmlns="http://www.w3.org/2000/svg" width="14" height="14" viewBox="0 0 14 14"><g fill="none" fill-rule="evenodd" stroke-linecap="round" stroke-linejoin="round"><path stroke="currentColor" d="M7 .5 8 .5C9.1045695.5 10 1.3954305 10 2.5L10 7 7 7 7 .5ZM4 7 7 7 7 13.5 6 13.5C4.8954305 13.5 4 12.6045695 4 11.5L4 7Z"/><path stroke="currentColor" d="M8.75,5.25 L9.75,5.25 C10.8545695,5.25 11.75,6.1454305 11.75,7.25 L11.75,11.75 L8.75,11.75 L8.75,5.25 Z" transform="rotate(90 10.25 8.5)"/><path stroke="currentColor" d="M2.25,2.25 L5.25,2.25 L5.25,8.75 L4.25,8.75 C3.1454305,8.75 2.25,7.8545695 2.25,6.75 L2.25,2.25 Z" transform="rotate(90 3.75 5.5)"/></g></svg>