<svg xmlns="http://www.w3.org/2000/svg" width="14" height="14" viewBox="0 0 14 14"><path fill="none" stroke="currentColor" stroke-linecap="round" stroke-linejoin="round" d="M10.7262,5.70639 C10.577,5.69202 10.4267,5.69202 10.2775,5.70639 C10.1135,4.95922 9.6991,4.29053 9.10303,3.8111 C8.50695,3.33168 7.76495,3.07031 7,3.07031 C6.23505,3.07031 5.49305,3.33168 4.89698,3.8111 C4.3009,4.29053 3.88652,4.95922 3.72251,5.70639 C3.57328,5.69202 3.42303,5.69202 3.2738,5.70639 C2.91772,5.68461 2.56096,5.73594 2.22546,5.85722 C1.88996,5.9785 1.58284,6.16716 1.323,6.41159 C1.06316,6.65603 0.856092,6.95106 0.714554,7.27852 C0.573016,7.60599 0.5,7.95896 0.5,8.3157 C0.5,8.67245 0.573016,9.02541 0.714554,9.35288 C0.856092,9.68034 1.06316,9.97538 1.323,10.2198 C1.58284,10.4642 1.88996,10.6529 2.22546,10.7742 C2.56096,10.8955 2.91772,10.9468 3.2738,10.925 L10.7262,10.925 C11.0823,10.9468 11.439,10.8955 11.7745,10.7742 C12.11,10.6529 12.4172,10.4642 12.677,10.2198 C12.9368,9.97538 13.1439,9.68034 13.2854,9.35288 C13.427,9.02541 13.5,8.67245 13.5,8.3157 C13.5,7.95896 13.427,7.60599 13.2854,7.27852 C13.1439,6.95106 12.9368,6.65603 12.677,6.41159 C12.4172,6.16716 12.11,5.9785 11.7745,5.85722 C11.439,5.73594 11.0823,5.68461 10.7262,5.70639 Z"/></svg>