<svg xmlns="http://www.w3.org/2000/svg" width="14" height="14" viewBox="0 0 14 14"><path fill="none" stroke="currentColor" stroke-linecap="round" stroke-linejoin="round" d="M9 1.92983C9.454 1.66768 9.96877 1.52908 10.493 1.52783161 11.0173 1.5266 11.5327 1.66275 11.9879 1.92275 12.4432 2.18274 12.8223 2.55749 13.0876 3.00965 13.3529 3.46181 13.4951 3.9756 13.5 4.49983 13.4979 4.87951 13.4267 5.25563 13.29 5.60983M10.9733 7.16977C10.8202 7.15945 10.6665 7.15945 10.5133 7.16977 10.3499 6.40115 9.92753 5.71195 9.31683 5.21744 8.70613 4.72294 7.94415 4.45312 7.15834 4.45312 6.37254 4.45312 5.61056 4.72294 4.99986 5.21744 4.38916 5.71195 3.96677 6.40115 3.80334 7.16977 3.65352 7.15944 3.50317 7.15944 3.35334 7.16977 2.98964 7.14748 2.62522 7.19987 2.28253 7.32372 1.93984 7.44757 1.62612 7.64025 1.3607 7.88991 1.09528 8.13956.883764 8.4409.739185 8.77538.594605 9.10986.52002 9.47038.52002 9.83477.52002 10.1992.594605 10.5597.739185 10.8942.883764 11.2286 1.09528 11.53 1.3607 11.7796 1.62612 12.0293 1.93984 12.222 2.28253 12.3458 2.62522 12.4697 2.98964 12.5221 3.35334 12.4998L10.9733 12.4998C11.6519 12.4582 12.2891 12.1593 12.7549 11.6641 13.2207 11.1689 13.48 10.5146 13.48 9.83477 13.48 9.15492 13.2207 8.50067 12.7549 8.00545 12.2891 7.51024 11.6519 7.21136 10.9733 7.16977L10.9733 7.16977Z"/></svg>