<svg xmlns="http://www.w3.org/2000/svg" width="14" height="14" viewBox="0 0 14 14"><g fill="none" fill-rule="evenodd"><path fill="currentColor" fill-rule="nonzero" d="M3.25 10C2.83578644 10 2.5 10.3357864 2.5 10.75 2.5 11.1642136 2.83578644 11.5 3.25 11.5 3.66421356 11.5 4 11.1642136 4 10.75 3.99461419 10.3380379 3.66196206 10.0053858 3.25 10L3.25 10ZM1.25 12.5C.835786438 12.5.5 12.8357864.5 13.25.5 13.6642136.835786438 14 1.25 14 1.66421356 14 2 13.6642136 2 13.25 1.99461419 12.8380379 1.66196206 12.5053858 1.25 12.5L1.25 12.5ZM7.25 10C6.83578644 10 6.5 10.3357864 6.5 10.75 6.5 11.1642136 6.83578644 11.5 7.25 11.5 7.66421356 11.5 8 11.1642136 8 10.75 7.99461419 10.3380379 7.66196206 10.0053858 7.25 10L7.25 10ZM5 12.5C4.58578644 12.5 4.25 12.8357864 4.25 13.25 4.25 13.6642136 4.58578644 14 5 14 5.41421356 14 5.75 13.6642136 5.75 13.25 5.74461419 12.8380379 5.41196206 12.5053858 5 12.5L5 12.5ZM10.75 10C10.3357864 10 10 10.3357864 10 10.75 10 11.1642136 10.3357864 11.5 10.75 11.5 11.1642136 11.5 11.5 11.1642136 11.5 10.75 11.4946142 10.3380379 11.1619621 10.0053858 10.75 10ZM9 12.5C8.58578644 12.5 8.25 12.8357864 8.25 13.25 8.25 13.6642136 8.58578644 14 9 14 9.41421356 14 9.75 13.6642136 9.75 13.25 9.74461419 12.8380379 9.41196206 12.5053858 9 12.5L9 12.5ZM12.75 12.5C12.3357864 12.5 12 12.8357864 12 13.25 12 13.6642136 12.3357864 14 12.75 14 13.1642136 14 13.5 13.6642136 13.5 13.25 13.4946142 12.8380379 13.1619621 12.5053858 12.75 12.5L12.75 12.5Z"/><path stroke="currentColor" stroke-linecap="round" stroke-linejoin="round" d="M11,8.00001082 C11.9700005,8.0028456 12.8540942,7.4443322 13.2681404,6.56713504 C13.6821867,5.68993787 13.5514413,4.65240983 12.9327134,3.905359 C12.3139855,3.15830816 11.3189687,2.83659323 10.38,3.08 C9.96902665,1.55121814 8.58305814,0.488625335 7,0.488625335 C5.41694186,0.488625335 4.03097335,1.55121814 3.62,3.08 C2.68103126,2.83659323 1.68601452,3.15830816 1.06728663,3.905359 C0.448558739,4.65240983 0.317813335,5.68993787 0.731859569,6.56713504 C1.1459058,7.4443322 2.02999946,8.0028456 3,8.00001082 L11,8.00001082 Z"/></g></svg>