<svg xmlns="http://www.w3.org/2000/svg" width="14" height="14" viewBox="0 0 14 14"><g fill="none" fill-rule="evenodd"><path fill="currentColor" fill-rule="nonzero" d="M3.25 10C2.83578644 10 2.5 10.3357864 2.5 10.75 2.5 11.1642136 2.83578644 11.5 3.25 11.5 3.66421356 11.5 4 11.1642136 4 10.75 3.99461419 10.3380379 3.66196206 10.0053858 3.25 10L3.25 10ZM1.25 12.5C.835786438 12.5.5 12.8357864.5 13.25.5 13.6642136.835786438 14 1.25 14 1.66421356 14 2 13.6642136 2 13.25 1.99461419 12.8380379 1.66196206 12.5053858 1.25 12.5L1.25 12.5ZM7.25 10C6.83578644 10 6.5 10.3357864 6.5 10.75 6.5 11.1642136 6.83578644 11.5 7.25 11.5 7.66421356 11.5 8 11.1642136 8 10.75 7.99461419 10.3380379 7.66196206 10.0053858 7.25 10L7.25 10ZM5 12.5C4.58578644 12.5 4.25 12.8357864 4.25 13.25 4.25 13.6642136 4.58578644 14 5 14 5.41421356 14 5.75 13.6642136 5.75 13.25 5.74461419 12.8380379 5.41196206 12.5053858 5 12.5L5 12.5ZM10.75 10C10.3357864 10 10 10.3357864 10 10.75 10 11.1642136 10.3357864 11.5 10.75 11.5 11.1642136 11.5 11.5 11.1642136 11.5 10.75 11.4946142 10.3380379 11.1619621 10.0053858 10.75 10ZM9 12.5C8.58578644 12.5 8.25 12.8357864 8.25 13.25 8.25 13.6642136 8.58578644 14 9 14 9.41421356 14 9.75 13.6642136 9.75 13.25 9.74461419 12.8380379 9.41196206 12.5053858 9 12.5L9 12.5ZM12.75 12.5C12.3357864 12.5 12 12.8357864 12 13.25 12 13.6642136 12.3357864 14 12.75 14 13.1642136 14 13.5 13.6642136 13.5 13.25 13.4946142 12.8380379 13.1619621 12.5053858 12.75 12.5L12.75 12.5Z"/><path stroke="currentColor" stroke-linecap="round" stroke-linejoin="round" d="M10.5,8.00000227 C11.8807119,8.00000227 13,6.88071187 13,5.5 C13,4.11928813 11.8807119,3 10.5,3 C9.9297653,3.00190073 9.376758,3.1956294 8.93,3.55 C8.56030255,1.6042954 6.74129355,0.281529015 4.77636468,0.529515114 C2.81143581,0.777501213 1.37811243,2.51073194 1.50342726,4.48727912 C1.62874209,6.4638263 3.26948544,8.00215849 5.25,8.00000227 L10.5,8.00000227 Z"/></g></svg>