<svg xmlns="http://www.w3.org/2000/svg" width="14" height="14" viewBox="0 0 14 14"><g fill="none" fill-rule="evenodd" stroke-linecap="round" stroke-linejoin="round"><line x1="4.25" x2="4.75" y1="11.5" y2="10.5" stroke="currentColor"/><line x1="8.75" x2="9.25" y1="11.5" y2="10.5" stroke="currentColor"/><line x1="6" x2="6.5" y1="13.5" y2="12.5" stroke="currentColor"/><line x1="1.5" x2="2" y1="13.5" y2="12.5" stroke="currentColor"/><line x1="10.5" x2="11" y1="13.5" y2="12.5" stroke="currentColor"/><path stroke="currentColor" d="M11,8.00001082 C11.9700005,8.0028456 12.8540942,7.4443322 13.2681404,6.56713504 C13.6821867,5.68993787 13.5514413,4.65240983 12.9327134,3.905359 C12.3139855,3.15830816 11.3189687,2.83659323 10.38,3.08 C9.96902665,1.55121814 8.58305814,0.488625335 7,0.488625335 C5.41694186,0.488625335 4.03097335,1.55121814 3.62,3.08 C2.68103126,2.83659323 1.68601452,3.15830816 1.06728663,3.905359 C0.448558739,4.65240983 0.317813335,5.68993787 0.731859569,6.56713504 C1.1459058,7.4443322 2.02999946,8.0028456 3,8.00001082 L11,8.00001082 Z"/></g></svg>