<svg xmlns="http://www.w3.org/2000/svg" width="14" height="14" viewBox="0 0 14 14"><g fill="none" fill-rule="evenodd" stroke-linecap="round" stroke-linejoin="round"><line x1="4" x2="4.5" y1="11.5" y2="10.5" stroke="currentColor"/><line x1="8.5" x2="9" y1="11.5" y2="10.5" stroke="currentColor"/><line x1="5.75" x2="6.25" y1="13.5" y2="12.5" stroke="currentColor"/><line x1="1.25" x2="1.75" y1="13.5" y2="12.5" stroke="currentColor"/><line x1="10.25" x2="10.75" y1="13.5" y2="12.5" stroke="currentColor"/><path stroke="currentColor" d="M10.25,8.00000227 C11.6307119,8.00000227 12.75,6.88071187 12.75,5.5 C12.75,4.11928813 11.6307119,3 10.25,3 C9.6797653,3.00190073 9.126758,3.1956294 8.68,3.55 C8.31030255,1.6042954 6.49129355,0.281529015 4.52636468,0.529515114 C2.56143581,0.777501213 1.12811243,2.51073194 1.25342726,4.48727912 C1.37874209,6.4638263 3.01948544,8.00215849 5,8.00000227 L10.25,8.00000227 Z"/></g></svg>