<svg xmlns="http://www.w3.org/2000/svg" width="14" height="14" viewBox="0 0 14 14"><g fill="none" fill-rule="evenodd" stroke-linecap="round" stroke-linejoin="round"><g stroke="currentColor" transform="translate(.5 .5)"><path d="M10,10.5 L12,10.5 C12.5522847,10.5 13,10.0522847 13,9.5 L13,5 C13,4.44771525 12.5522847,4 12,4 L1,4 C0.44771525,4 0,4.44771525 0,5 L0,9.5 C0,10.0522847 0.44771525,10.5 1,10.5 L3,10.5"/><path d="M3 9 3 12.5C3 12.7761424 3.22385763 13 3.5 13L9.5 13C9.77614237 13 10 12.7761424 10 12.5L10 9 3 9ZM10 4 10 .5C10 .223857625 9.77614237 0 9.5 0L3.5 0C3.22385763 0 3 .223857625 3 .5L3 4"/></g><line x1="11" x2="10" y1="7" y2="7" stroke="currentColor"/></g></svg>