<svg xmlns="http://www.w3.org/2000/svg" width="14" height="14" viewBox="0 0 14 14"><g fill="none" fill-rule="evenodd" stroke-linecap="round" stroke-linejoin="round"><path stroke="currentColor" d="M10.5000249,8 C10.5064659,6.27264095 9.2517662,4.7988789 7.54550249,4.52966664 C5.83923878,4.26045438 4.19173023,5.27630946 3.66604048,6.92174599 C3.14035072,8.56718252 3.89370608,10.3500739 5.44,11.12 L5.44,12.84 C5.44542423,13.0514759 5.61845452,13.22 5.83,13.22 L8.17,13.22 C8.38154548,13.22 8.55457577,13.0514759 8.56,12.84 L8.56,11.09 C9.73483593,10.5051657 10.4837844,9.31225292 10.5000249,8 Z"/><line x1="7" x2="7" y1=".81" y2="2.31" stroke="currentColor"/><line x1="11" x2="9.94" y1="2.24" y2="3.31" stroke="currentColor"/><line x1="13.28" x2="11.78" y1="5.34" y2="5.34" stroke="currentColor"/><line x1="3" x2="4.06" y1="2.24" y2="3.31" stroke="currentColor"/><line x1=".72" x2="2.22" y1="5.34" y2="5.34" stroke="currentColor"/></g></svg>