<svg xmlns="http://www.w3.org/2000/svg" width="14" height="14" viewBox="0 0 14 14"><g fill="none" fill-rule="evenodd" stroke-linecap="round" stroke-linejoin="round"><g stroke="currentColor" transform="translate(.223 .501)"><line x1="2.001" x2="11.001" y1="12.999" y2="12.999"/><path d="M12.9308659,2.89882434 C12.7239702,2.04565107 12.0830841,1.36447338 11.2440933,1.10600679 C10.4051026,0.847540196 9.49200079,1.04998323 8.84086591,1.63882434 C8.48297245,0.654925552 7.54783513,3.33066907e-16 6.50086591,3.33066907e-16 C5.45389668,3.33066907e-16 4.51875937,0.654925552 4.16086591,1.63882434 C3.50973103,1.04998323 2.59662926,0.847540196 1.7576385,1.10600679 C0.918647733,1.36447338 0.277761634,2.04565107 0.0708659089,2.89882434 C-0.0896725958,3.56006858 0.0251362359,4.25815721 0.388989848,4.83315903 C0.752843461,5.40816085 1.3345589,5.81079711 2.00086591,5.94882434 L2.00086591,9.49882434 C2.00086591,10.0511091 2.44858116,10.4988243 3.00086591,10.4988243 L10.0008659,10.4988243 C10.5531507,10.4988243 11.0008659,10.0511091 11.0008659,9.49882434 L11.0008659,5.94882434 C11.6671729,5.81079711 12.2488884,5.40816085 12.612742,4.83315903 C12.9765956,4.25815721 13.0914044,3.56006858 12.9308659,2.89882434 L12.9308659,2.89882434 Z"/></g><line x1="2.224" x2="11.224" y1="8.5" y2="8.5" stroke="currentColor"/></g></svg>