<svg xmlns="http://www.w3.org/2000/svg" width="14" height="14" viewBox="0 0 14 14"><g fill="none" fill-rule="evenodd" stroke-linecap="round" stroke-linejoin="round"><g stroke="currentColor" transform="translate(.724 .5)"><line x1="2.5" x2="2.5" y2="10"/><path d="M5,0 L5,2.5 C5,3.16304122 4.7366079,3.79892601 4.26776695,4.26776695 C3.79892601,4.7366079 3.16304122,5 2.5,5 L2.5,5 C1.83695878,5 1.20107399,4.7366079 0.732233047,4.26776695 C0.263392101,3.79892601 -2.22044605e-16,3.16304122 -2.22044605e-16,2.5 L-2.22044605e-16,0"/></g><line x1=".224" x2="13.224" y1="13.5" y2=".5" stroke="currentColor"/><path stroke="currentColor" d="M12.223892 5.5C12.623386 6.96490427 12.7920779 8.48313131 12.723892 10L8.223892 10M8.223892 5.5 8.223892.5C9.28672008 1.05344782 10.1994725 1.85639543 10.883892 2.84"/><line x1="8.224" x2="8.224" y1="13.5" y2="9" stroke="currentColor"/></g></svg>