<svg xmlns="http://www.w3.org/2000/svg" width="14" height="14" viewBox="0 0 14 14"><g fill="none" fill-rule="evenodd" stroke-linecap="round" stroke-linejoin="round"><path stroke="currentColor" d="M8.813892,0.77 L8.723892,0.75 L0.473892,5.61 C0.327830217,5.68705228 0.232923025,5.8351075 0.223892,6 L0.223892,12.71 C0.223892,12.9861424 0.447749625,13.21 0.723892,13.21 L12.723892,13.21 C13.0000344,13.21 13.223892,12.9861424 13.223892,12.71 L13.223892,5.71 C12.9090058,3.31341891 11.1595374,1.35369686 8.813892,0.77 Z"/><line x1=".314" x2="12.724" y1="5.75" y2="5.75" stroke="currentColor"/><path stroke="currentColor" d="M0.223892,10.42 L0.223892,10.42 L0.303892,10.35 C0.678034873,9.96828871 1.18940021,9.75221885 1.723892,9.75 C2.8284615,9.75 3.723892,10.6454305 3.723892,11.75 C3.72165921,12.2795768 3.50947979,12.7866497 3.133892,13.16 L3.053892,13.25"/><circle cx="8.724" cy="9.25" r="1.5" stroke="currentColor"/></g></svg>