<svg xmlns="http://www.w3.org/2000/svg" width="14" height="14" viewBox="0 0 14 14"><g fill="none" fill-rule="evenodd" stroke-linecap="round" stroke-linejoin="round"><path stroke="currentColor" d="M3.723892,0.5 L9.723892,0.5 C11.6568886,0.5 13.223892,2.06700338 13.223892,4 L13.223892,4 C13.223892,4.55228475 12.7761767,5 12.223892,5 L1.223892,5 C0.67160725,5 0.223892,4.55228475 0.223892,4 L0.223892,4 C0.223892,2.06700338 1.79089538,0.5 3.723892,0.5 Z"/><line x1=".224" x2="13.224" y1="7.5" y2="7.5" stroke="currentColor"/><path stroke="currentColor" d="M12.723892,10 L6.723892,10 L5.223892,11.5 L2.223892,10 L0.723892,10 C0.447749625,10 0.223892,10.2238576 0.223892,10.5 L0.223892,10.5 C0.223892,12.1568542 1.56703775,13.5 3.223892,13.5 L10.223892,13.5 C11.8807462,13.5 13.223892,12.1568542 13.223892,10.5 L13.223892,10.5 C13.223892,10.2238576 13.0000344,10 12.723892,10 Z"/></g></svg>