<svg xmlns="http://www.w3.org/2000/svg" width="14" height="14" viewBox="0 0 14 14"><g fill="none" fill-rule="evenodd" stroke-linecap="round" stroke-linejoin="round"><rect width="13" height="8" x=".224" y="5.5" stroke="currentColor" rx="1"/><line x1="2.724" x2="2.724" y1="3.5" y2="1.5" stroke="currentColor"/><line x1="6.724" x2="6.724" y1="3.5" y2="1.5" stroke="currentColor"/><line x1="10.724" x2="10.724" y1="3.5" y2="1.5" stroke="currentColor"/><path stroke="currentColor" d="M13.223892,10 L12.723892,10 C11.6193225,10 10.723892,9.1045695 10.723892,8 C10.723892,9.1045695 9.8284615,10 8.723892,10 C7.6193225,10 6.723892,9.1045695 6.723892,8 C6.723892,9.1045695 5.8284615,10 4.723892,10 C3.6193225,10 2.723892,9.1045695 2.723892,8 C2.723892,9.1045695 1.8284615,10 0.723892,10 L0.223892,10"/></g></svg>