<svg xmlns="http://www.w3.org/2000/svg" width="14" height="14" viewBox="0 0 14 14"><path fill="none" stroke="currentColor" stroke-linecap="round" stroke-linejoin="round" d="M13.213892,9.6 C13.1405609,8.9152316 12.6520313,8.3468571 11.9860516,8.17148245 C11.3200719,7.9961078 10.6149701,8.25015935 10.213892,8.81 L9.213892,7.81 C9.213892,7.81 9.133892,7.76 9.103892,7.73 C9.82227148,5.67449197 9.2840329,3.38892814 7.723892,1.87 C6.93760094,1.00864778 5.8251601,0.517905467 4.658892,0.517905467 C3.4926239,0.517905467 2.38018306,1.00864778 1.593892,1.87 C0.730179459,2.65226247 0.234170016,3.7609289 0.226477522,4.92620831 C0.218962455,6.09148772 0.700461546,7.20653268 1.553892,8 C3.10531701,9.60749145 5.46597636,10.1347054 7.553892,9.34 C7.5519848,9.36663257 7.5519848,9.39336743 7.553892,9.42 L8.723892,10.58 C8.30972721,10.9292036 8.09611683,11.4613557 8.153892,12 C8.24778042,12.9140312 9.06486075,13.5788884 9.978892,13.485 C10.8929232,13.3911116 11.5577804,12.5740313 11.463892,11.66 C11.4519719,11.5889542 11.4352672,11.5187946 11.413892,11.45 L11.723892,11.45 C12.1701037,11.4100826 12.5809032,11.190442 12.861911,10.8415397 C13.1429189,10.4926373 13.2699762,10.0444691 13.213892,9.6 L13.213892,9.6 Z"/></svg>