<svg xmlns="http://www.w3.org/2000/svg" width="14" height="14" viewBox="0 0 14 14"><path fill="none" stroke="currentColor" stroke-linecap="round" stroke-linejoin="round" d="M7.723892 10 7.723892 12.5C7.723892 13.0522847 7.27617675 13.5 6.723892 13.5L6.723892 13.5C6.17160725 13.5 5.723892 13.0522847 5.723892 12.5L5.723892 10M9.473892 3C8.50739369 3 7.723892 2.21649831 7.723892 1.25 7.72627954 1.05911152 7.76006428.869917021 7.823892.69 7.4692148.570330061 7.0981618.506239089 6.723892.5 4.79089538.5 3.223892 2.06700338 3.223892 4L3.223892 9C3.223892 9.55228475 3.67160725 10 4.223892 10L9.223892 10C9.77617675 10 10.223892 9.55228475 10.223892 9L10.223892 4C10.2176529 3.6257302 10.1535619 3.2546772 10.033892 2.9 9.85397498 2.96382772 9.66478048 2.99761246 9.473892 3Z"/></svg>