<svg xmlns="http://www.w3.org/2000/svg" width="14" height="14" viewBox="0 0 14 14"><g fill="none" fill-rule="evenodd" stroke-linecap="round" stroke-linejoin="round"><path stroke="currentColor" d="M2.283892,6 L3.113892,12.62 C3.1749154,13.1249651 3.60526633,13.5036739 4.113892,13.5000265 L9.343892,13.5000265 C9.85251767,13.5036739 10.2828686,13.1249651 10.343892,12.62 L11.163892,6"/><path stroke="currentColor" d="M10.723892,3.07 C10.6023012,3.07191359 10.481402,3.08870515 10.363892,3.12 C10.4552731,2.90138096 10.5028395,2.66694658 10.503892,2.43 C10.4659569,1.34505658 9.5694373,0.488480937 8.483892,0.5 C7.74670452,0.501967052 7.07036873,0.909305655 6.723892,1.56 C6.37741527,0.909305655 5.70107948,0.501967052 4.963892,0.5 C3.88609163,0.499339652 3.00161482,1.35285977 2.963892,2.43 C2.96494451,2.66694658 3.0125109,2.90138096 3.103892,3.12 C2.97990608,3.08704355 2.85218299,3.07023788 2.723892,3.07 C1.89546488,3.07 1.223892,3.74157288 1.223892,4.57 C1.223892,5.39842712 1.89546488,6.07 2.723892,6.07 C3.18720432,6.0707923 3.62689717,5.86560231 3.923892,5.51 C4.14639407,6.11255765 4.72156891,6.51198462 5.363892,6.51 C5.91881071,6.52153284 6.43754033,6.23546872 6.723892,5.76 C7.00540454,6.21928803 7.50519493,6.49947356 8.043892,6.5 C8.68621509,6.50198462 9.26138993,6.10255765 9.483892,5.5 C9.78088683,5.85560231 10.2205797,6.0607923 10.683892,6.06 C11.5123191,6.06 12.183892,5.38842712 12.183892,4.56 C12.183892,3.73157288 11.5123191,3.06 10.683892,3.06 L10.723892,3.07 Z"/></g></svg>