<svg xmlns="http://www.w3.org/2000/svg" width="14" height="14" viewBox="0 0 14 14"><g fill="none" fill-rule="evenodd" stroke-linecap="round" stroke-linejoin="round"><g stroke="currentColor" transform="translate(.964 .94)"><line x1="4.29" x2="5.13" y1="9.91" y2="12.26"/><line x1=".74" x2="1.08" y1=".03" y2=".97"/><line x1="4.29" x2="2.54" y1="9.91" y2="9.48"/><line x1="4.29" x2="5.36" y1="9.91" y2="8.46"/><line x1="3.44" x2="1.69" y1="7.56" y2="7.12"/><line x1="3.44" x2="4.52" y1="7.56" y2="6.11"/><line x1="2.6" x2=".85" y1="5.2" y2="4.77"/><line x1="2.6" x2="3.67" y1="5.2" y2="3.76"/><line x1="1.75" y1="2.85" y2="2.42"/><line x1="1.75" x2="2.83" y1="2.85" y2="1.4"/></g><g stroke="currentColor" transform="translate(8.104 .75)"><line x1="1.13" x2=".57" y1="9.5" y2="11.75"/><line x1="3.47" x2="3.25" y1=".05" y2=".95"/><line x1="1.13" y1="9.5" y2="8.26"/><line x1="1.13" x2="2.7" y1="9.5" y2="8.94"/><line x1="1.68" x2=".56" y1="7.25" y2="6.01"/><line x1="1.68" x2="3.26" y1="7.25" y2="6.68"/><line x1="2.24" x2="1.12" y1="5" y2="3.76"/><line x1="2.24" x2="3.82" y1="5" y2="4.43"/><line x1="2.8" x2="1.68" y1="2.75" y2="1.51"/><line x1="2.8" x2="4.38" y1="2.75" y2="2.18"/></g></g></svg>