<svg xmlns="http://www.w3.org/2000/svg" width="14" height="14" viewBox="0 0 14 14"><g fill="none" fill-rule="evenodd" stroke-linecap="round" stroke-linejoin="round"><path stroke="currentColor" d="M5.223892,5.00000007 C5.223892,4.17157289 5.89546489,3.50000007 6.723892,3.50000007 C7.55231911,3.50000007 8.223892,4.17157289 8.223892,5.00000007 L8.223892,12.0000001 C8.223892,12.8284271 8.89546488,13.5000001 9.723892,13.5000001 C10.5523191,13.5000001 11.223892,12.8284271 11.223892,12.0000001 L11.223892,5.00000007 C11.223892,2.51471865 9.20917335,0.500000067 6.723892,0.500000067 C4.23861065,0.500000067 2.223892,2.51471865 2.223892,5.00000007 L2.223892,6.00000007 C2.223892,6.82842712 2.89546488,7.50000007 3.723892,7.50000007 C4.55231912,7.50000007 5.223892,6.82842712 5.223892,6.00000007 L5.223892,5.00000007 Z"/><line x1="8.224" x2="11.224" y1="10" y2="7" stroke="currentColor"/><line x1="8.144" x2="9.674" y1="4.51" y2="1.6" stroke="currentColor"/><line x1="5.584" x2="2.754" y1="4.02" y2="2.88" stroke="currentColor"/></g></svg>