<svg xmlns="http://www.w3.org/2000/svg" width="14" height="14" viewBox="0 0 14 14"><g fill="none" fill-rule="evenodd" stroke-linecap="round" stroke-linejoin="round"><path stroke="currentColor" d="M5.853892,1 L0.723892,10.65 C0.579971973,10.9188053 0.54973202,11.2340617 0.639929365,11.5253239 C0.73012671,11.8165862 0.933243292,12.0595773 1.203892,12.2 C4.66327791,13.9435934 8.74450609,13.9435934 12.203892,12.2 C12.4815161,12.0667357 12.6934159,11.8268216 12.7913638,11.5348615 C12.8893117,11.2429014 12.8649748,10.9237337 12.723892,10.65 L7.593892,1 C7.41633078,0.686689548 7.08401896,0.493051721 6.723892,0.493051721 C6.36376504,0.493051721 6.03145322,0.686689548 5.853892,1 Z"/><path stroke="currentColor" d="M11.963892,9.29 C8.65514736,10.896026 4.79263664,10.896026 1.483892,9.29"/><line x1="5.224" x2="5.224" y1="7.5" y2="8" stroke="currentColor"/><line x1="8.224" x2="8.224" y1="7.5" y2="8" stroke="currentColor"/><line x1="6.724" x2="6.724" y1="4.5" y2="5" stroke="currentColor"/></g></svg>