<svg xmlns="http://www.w3.org/2000/svg" width="14" height="14" viewBox="0 0 14 14"><g fill="none" fill-rule="evenodd" stroke-linecap="round" stroke-linejoin="round"><path stroke="currentColor" d="M13.223897,3 C13.223897,2.33695878 12.9604999,1.70107399 12.491659,1.23223305 C12.022818,0.763392101 11.3869332,0.5 10.723892,0.5 L2.723892,0.5 C1.64781598,0.5 0.692468871,1.18857524 0.352183755,2.20943058 C0.0118986388,3.23028593 0.363031184,4.35435439 1.223892,5 L1.223892,12.5 C1.223892,13.0522847 1.67160725,13.5 2.223892,13.5 L11.223892,13.5 C11.7761767,13.5 12.223892,13.0522847 12.223892,12.5 L12.223892,5 C12.8546536,4.52890584 13.2254737,3.7872658 13.223897,3 Z"/><line x1="8.224" x2="4.224" y1="3.5" y2="7.5" stroke="currentColor"/><line x1="9.224" x2="5.224" y1="6.5" y2="10.5" stroke="currentColor"/></g></svg>