<svg xmlns="http://www.w3.org/2000/svg" width="14" height="14" viewBox="0 0 14 14"><g fill="none" fill-rule="evenodd" stroke-linecap="round" stroke-linejoin="round"><g stroke="currentColor" transform="translate(.224 3.7)"><path d="M7.73000013,7.36 C8.82915737,6.97475903 9.75934022,6.21788021 10.3600001,5.22 C10.6737957,5.66475969 11.1072063,6.01148815 11.6100001,6.22 C11.9186975,6.35074515 12.2723718,6.31810735 12.5519287,6.13307689 C12.8314856,5.94804642 12.999727,5.63524358 13,5.3 L13,2.69 C12.999727,2.35475642 12.8314856,2.04195358 12.5519287,1.85692311 C12.2723718,1.67189265 11.9186975,1.63925485 11.6100001,1.77 C11.1057774,1.97608794 10.6717446,2.32331423 10.3600001,2.77 C9.36000013,1.21 6.64000013,0 3.91000013,0 C1.73608673,0.0489253677 -0.000550348449,1.82553619 0,4 C0.134234155,6.17421336 1.98356002,7.84127393 4.16000013,7.75 C4.46000013,7.75 4.94000013,7.75 5.24000013,7.75"/><circle cx="3.5" cy="2.99" r="1"/></g><path stroke="currentColor" d="M2.953892 3.87C3.723892 2.68 5.533892 1.34 9.543892 1.8 9.11912244 2.95209471 9.11912244 4.21790529 9.543892 5.37M4.363892 9.53C4.73711537 11.3766 6.50504795 12.5964735 8.363892 12.29L7.353892 9"/></g></svg>