<svg xmlns="http://www.w3.org/2000/svg" width="14" height="14" viewBox="0 0 14 14"><g fill="none" fill-rule="evenodd" stroke-linecap="round" stroke-linejoin="round"><path stroke="currentColor" d="M4 6.49.79 9.67C.600687349 9.8577666.494201676 10.1133625.494201676 10.38.494201676 10.6466375.600687349 10.9022334.79 11.09L2.91 13.21C3.0977666 13.3993127 3.35336246 13.5057983 3.62 13.5057983 3.88663754 13.5057983 4.1422334 13.3993127 4.33 13.21L7.51 10M10 7.51 13.18 4.33C13.3693127 4.1422334 13.4757983 3.88663754 13.4757983 3.62 13.4757983 3.35336246 13.3693127 3.0977666 13.18 2.91L11.09.79C10.9022334.600687349 10.6466375.494201676 10.38.494201676 10.1133625.494201676 9.8577666.600687349 9.67.79L6.49 4"/><line x1="9" x2="5" y1="5" y2="9" stroke="currentColor"/></g></svg>