<svg xmlns="http://www.w3.org/2000/svg" width="14" height="14" viewBox="0 0 14 14"><g fill="none" fill-rule="evenodd" stroke-linecap="round" stroke-linejoin="round"><circle cx="7" cy="7.49" r="3.5" stroke="currentColor"/><path stroke="currentColor" d="M9.35,1.31 C10.6445849,2.60724198 10.643149,4.708112 9.34679214,6.00358318 C8.05043526,7.29905435 5.94956474,7.29905435 4.65320786,6.00358318 C3.35685098,4.708112 3.35541513,2.60724198 4.65,1.31"/><path stroke="currentColor" d="M0.5,8.5 C0.976000803,6.73014216 2.79611028,5.68078169 4.56627437,6.15564235 C6.33643845,6.63050302 7.38697111,8.44993618 6.91325079,10.2204058 C6.43953046,11.9908754 4.62077437,13.0425798 2.85,12.57"/><path stroke="currentColor" d="M11.15,12.57 C9.37922563,13.0425798 7.56046954,11.9908754 7.08674921,10.2204058 C6.61302889,8.44993618 7.66356155,6.63050302 9.43372563,6.15564235 C11.2038897,5.68078169 13.0239992,6.73014216 13.5,8.5"/></g></svg>