<svg xmlns="http://www.w3.org/2000/svg" width="14" height="14" viewBox="0 0 14 14"><path fill="none" stroke="currentColor" stroke-linecap="round" stroke-linejoin="round" d="M6 4.83 3.75.94C1.74021858 2.09796539.501211278 4.24049494.5 6.56L5 6.56C5.00073215 5.84620161 5.38183192 5.18689901 6 4.83ZM9 6.56 13.5 6.56C13.4987887 4.24049494 12.2597814 2.09796539 10.25.94L8 4.83C8.61816808 5.18689901 8.99926785 5.84620161 9 6.56ZM7 8.56C6.64964724 8.56241966 6.30480582 8.4727609 6 8.3L3.75 12.19C5.76165815 13.3490544 8.23834185 13.3490544 10.25 12.19L8 8.3C7.69519418 8.4727609 7.35035276 8.56241966 7 8.56L7 8.56Z"/></svg>