<svg xmlns="http://www.w3.org/2000/svg" width="14" height="14" viewBox="0 0 14 14"><g fill="none" fill-rule="evenodd" stroke-linecap="round" stroke-linejoin="round"><path stroke="currentColor" d="M8.92,1.25 C10.0219018,2.07642638 10.4713515,3.51523401 10.0357866,4.82192885 C9.60022161,6.1286237 8.37737731,7.01 7,7.01 C5.62262269,7.01 4.39977839,6.1286237 3.96421345,4.82192885 C3.5286485,3.51523401 3.97809816,2.07642638 5.08,1.25"/><path stroke="currentColor" d="M0.5,9.17 C0.662552749,7.80169305 1.68276406,6.69108738 3.0323879,6.41323348 C4.38201174,6.13537959 5.75795516,6.75267677 6.44778079,7.94550026 C7.13760643,9.13832376 6.98639609,10.6387942 6.07244361,11.6699965 C5.15849113,12.7011988 3.6870482,13.0315498 2.42,12.49"/><path stroke="currentColor" d="M11.58,12.49 C10.316916,13.0263506 8.85235514,12.6948338 7.94337984,11.6668178 C7.03440453,10.6388017 6.88471889,9.14466782 7.57169858,7.95676544 C8.25867826,6.76886307 9.62836905,6.15340471 10.9727489,6.42853379 C12.3171287,6.70366286 13.334918,7.8077221 13.5,9.17"/></g></svg>