<svg xmlns="http://www.w3.org/2000/svg" width="14" height="14" viewBox="0 0 14 14"><g fill="none" fill-rule="evenodd" stroke-linecap="round" stroke-linejoin="round"><path stroke="currentColor" d="M8.62,1.59 L3.6,0.51 C3.47122692,0.477090588 3.33460946,0.497904507 3.22147884,0.567668389 C3.10834822,0.63743227 3.02841114,0.750160318 3,0.88 L1.64,7.29 L0.63,12 C0.574062268,12.2619683 0.738862507,12.5203038 1,12.58 L2.2,12.84 C2.32731171,12.8666063 2.45997818,12.8415056 2.56877012,12.7702281 C2.67756206,12.6989506 2.75355282,12.5873449 2.78,12.46 L3.78,7.78 L7.22,8.52 C8.25774858,8.74315564 9.34078498,8.48610058 10.1675676,7.82040469 C10.9943503,7.15470881 11.4765825,6.15146544 11.48,5.09 C11.4729134,3.39429565 10.2802947,1.93479717 8.62,1.59 Z M7.26,6.25 L4.26,5.6 L4.81,3 L7.81,3.65 C8.52244731,3.80463974 8.9746397,4.50755268 8.81999997,5.21999999 C8.66536025,5.93244731 7.96244732,6.38463971 7.25,6.23 L7.26,6.25 Z"/><path stroke="currentColor" d="M5.16,13.5 L5.78,10.6 L8.78,11.23 C11.02,11.72 13.38,9.37 13.4100016,6.94 C13.4103809,6.53493743 13.3427751,6.13268341 13.21,5.75"/></g></svg>