<svg xmlns="http://www.w3.org/2000/svg" width="14" height="14" viewBox="0 0 14 14"><path fill="none" stroke="currentColor" stroke-linecap="round" stroke-linejoin="round" d="M11.36,5.83 L8.87,5.83 C8.73298902,5.82997366 8.60172972,5.88507619 8.50579344,5.98289357 C8.40985716,6.08071095 8.35731351,6.21301535 8.36,6.35 L8.36,7.76 C8.36,8.04166522 8.58833478,8.27 8.87,8.27 L10.16,8.27 C10.1746226,9.05172579 9.85580152,9.80271995 9.28326575,10.3351782 C8.71072997,10.8676365 7.9386125,11.1312152 7.16,11.06 C4.92,11.06 3.84,9.16 3.84,7 C3.84,4.84 5,2.94 7.16,2.94 C8.11360075,2.90835874 9.04800809,3.21274901 9.8,3.8 C9.92167947,3.87963696 10.0724459,3.90111189 10.2115217,3.8586165 C10.3505975,3.81612112 10.4636126,3.71404628 10.52,3.58 L11.15,2.14 C11.2568525,1.92112376 11.1940228,1.65723927 11,1.51 C9.85327094,0.824296696 8.53571138,0.477570494 7.2,0.51 C3.56,0.5 1.08,3.33 1.08,7 C1.08,10.67 3.57,13.5 7.16,13.5 C10.75,13.5 12.92,10.94 12.92,7.5 C12.92,6.4 12.48,5.83 11.36,5.83 Z"/></svg>