<svg xmlns="http://www.w3.org/2000/svg" width="14" height="14" viewBox="0 0 14 14"><path fill="none" stroke="currentColor" stroke-linecap="round" stroke-linejoin="round" d="M8,4 C8,3 8.5,3 9,3 L9.6,3 C9.80238522,3.00271695 9.99727681,2.92351851 10.1403977,2.78039766 C10.2835185,2.63727681 10.3627169,2.44238522 10.36,2.24 L10.36,1.3 C10.3600677,1.09669083 10.2785751,0.901850806 10.1338773,0.759032181 C9.98917951,0.616213556 9.79329157,0.537324879 9.59,0.54 L8.17,0.52 C7.33320706,0.487633952 6.52426927,0.823640198 5.95666455,1.43934701 C5.38905984,2.05505382 5.11982103,2.88859507 5.22,3.72 L5.22,5.17 L4.43,5.17 C4.01026359,5.17 3.67,5.51026359 3.67,5.93 L3.67,6.87 C3.67,7.07156453 3.7500712,7.26487351 3.89259885,7.40740115 C4.03512649,7.5499288 4.22843547,7.63 4.43,7.63 L5.22,7.63 L5.22,13 C5.22,13.2761424 5.44385763,13.5 5.72,13.5 L7.53,13.5 C7.79436194,13.4841101 8.00047711,13.2648386 8,13 L8,7.63 L8.88,7.63 C9.29973641,7.63 9.64,7.28973641 9.64,6.87 L9.64,5.93 C9.64,5.51026359 9.29973641,5.17 8.88,5.17 L8,5.17 L8,4 Z"/></svg>