<svg xmlns="http://www.w3.org/2000/svg" width="14" height="14" viewBox="0 0 14 14"><path fill="none" stroke="currentColor" stroke-linecap="round" stroke-linejoin="round" d="M4,9.4 C3.28593806,9.96086748 2.46634779,10.372363 1.59,10.61 C1.39225776,10.6817708 1.26058722,10.8696359 1.26058722,11.08 C1.26058722,11.2903641 1.39225776,11.4782292 1.59,11.55 C8.51,14.39 12.91,10 12.24,5.13 L13.36,2.81 L12.06,2.81 C10.44,0.82 6.14,0.92 6.85,5.16 C6.85,5.16 4.55,5.57 1.61,2.68 C1.47113029,2.54289618 1.26518437,2.49911445 1.08255123,2.56787045 C0.899918085,2.63662646 0.773975792,2.80535434 0.76,3 C0.117758111,5.63998761 1.49211398,8.35476464 4,9.4 L4,9.4 Z"/></svg>