<svg xmlns="http://www.w3.org/2000/svg" width="14" height="14" viewBox="0 0 14 14"><g fill="none" fill-rule="evenodd"><path stroke="currentColor" stroke-linecap="round" stroke-linejoin="round" d="M12.87,8.63 L12.78,8.56 C12.9204571,8.05169574 12.994407,7.52732355 13,7 C13,3.6862915 10.3137085,1 7,1 C6.4764623,1.00319368 5.95551394,1.07377378 5.45,1.21 L5.38,1.12 C4.2059578,0.152747391 2.47252822,0.308711492 1.49,1.47 C0.328711492,2.45252822 0.172747391,4.1859578 1.14,5.36 L1.22,5.42 C1.07559739,5.93430368 1.00159004,6.46581103 1,7 C1,10.3137085 3.6862915,13 7,13 C7.53418897,12.99841 8.06569632,12.9244026 8.58,12.78 L8.64,12.86 C9.8140422,13.8272526 11.5474718,13.6712885 12.53,12.51 C13.6817953,11.5254525 13.8330066,9.79986523 12.87,8.63 Z"/><path fill="currentColor" fill-rule="nonzero" d="M7.15,4.07 C7.57,4.07 8.6,4.22 8.6,4.81 C8.60816769,4.94697178 8.56079722,5.08145643 8.46859007,5.18307247 C8.37638292,5.28468852 8.24711886,5.34486232 8.11,5.35 C7.8,5.35 7.57,5.13 7.11,5.13 C6.65,5.13 6.51,5.3 6.51,5.61 C6.52,6.38 9,5.89 9,7.8 C8.98780875,8.28333993 8.77731551,8.74037926 8.41793751,9.06381946 C8.05855951,9.38725966 7.58194929,9.54861345 7.1,9.51 C6.53,9.51 5.31,9.38 5.31,8.68 C5.30171455,8.54492875 5.34965799,8.41244471 5.44246412,8.31395658 C5.53527025,8.21546844 5.66467511,8.15974612 5.8,8.16 C6.15,8.16 6.56,8.45 7.05,8.45 C7.23659085,8.47572618 7.42528343,8.42050377 7.56856332,8.29823826 C7.71184321,8.17597276 7.79605739,7.99831473 7.8,7.81 C7.8,6.94 5.33,7.46 5.33,5.75 C5.33723859,5.28199257 5.53600193,4.83740933 5.87993653,4.51993124 C6.22387113,4.20245314 6.68290964,4.03983468 7.15,4.07 M7.15,3.07 C6.41512926,3.03456186 5.69762163,3.30054373 5.1634211,3.80642974 C4.62922057,4.31231576 4.32459583,5.01428963 4.32,5.75 C4.2946823,6.3671194 4.54361876,6.96383476 5,7.38 C4.55773911,7.66329339 4.29306463,8.1548317 4.3,8.68 C4.3,9.81 5.37,10.51 7.09,10.51 C7.83974986,10.553758 8.57477713,10.2889749 9.12438336,9.77714227 C9.67398958,9.26530967 9.99035184,8.55096374 10,7.8 C10.029566,7.07858188 9.72301108,6.38421654 9.17,5.92 C9.45165423,5.61963636 9.60580182,5.22172049 9.6,4.81 C9.6,3.61 8.33,3.07 7.15,3.07 L7.15,3.07 Z"/></g></svg>