<svg xmlns="http://www.w3.org/2000/svg" width="14" height="14" viewBox="0 0 14 14"><path fill="none" stroke="currentColor" stroke-linecap="round" stroke-linejoin="round" d="M3.54 1.71C3.54564976 2.43686447 2.96670198 3.03362602 2.24 3.05 1.51617241 3.02344211.940164633 2.43424331.93 1.71.961440361 1.00492448 1.5343854.445100321 2.24.43 2.94379505.445387543 3.51370341 1.00652809 3.54 1.71ZM1.07 5.43C1.07 4.66 1.56 4.78 2.24 4.78 2.92 4.78 3.4 4.66 3.4 5.43L3.4 12.93C3.4 13.71 2.91 13.55 2.24 13.55 1.57 13.55 1.07 13.71 1.07 12.93L1.07 5.43ZM5.42 5.43C5.42 5 5.58 4.84 5.83 4.79 6.08 4.74 6.94 4.79 7.24 4.79 7.54 4.79 7.66 5.28 7.65 5.65 8.17183363 4.94965193 9.02020505 4.57091469 9.89 4.65 10.7394516 4.59806807 11.570987 4.90935961 12.1775108 5.50634687 12.7840346 6.10333412 13.1084643 6.92983213 13.07 7.78L13.07 12.9C13.07 13.68 12.59 13.52 11.91 13.52 11.23 13.52 10.75 13.68 10.75 12.9L10.75 8.9C10.7855723 8.48344197 10.6383518 8.07198784 10.3465926 7.77255078 10.0548334 7.47311371 9.64734134 7.31525756 9.23 7.34 8.81471781 7.32945133 8.414856 7.49752542 8.13181907 7.80159888 7.84878214 8.10567234 7.7097569 8.51653771 7.75 8.93L7.75 12.93C7.75 13.71 7.26 13.55 6.58 13.55 5.9 13.55 5.42 13.71 5.42 12.93L5.42 5.43Z"/></svg>