<svg xmlns="http://www.w3.org/2000/svg" width="14" height="14" viewBox="0 0 14 14"><g fill="none" fill-rule="evenodd" stroke-linecap="round" stroke-linejoin="round"><path stroke="currentColor" d="M10.18,7.5 C10.1819011,6.41534441 10.8857143,5.45670233 11.92,5.13 C11.525073,4.4024944 10.8390022,3.87761257 10.0335213,3.68674032 C9.22804034,3.49586807 8.37938994,3.65707187 7.7,4.13 C7.39059892,4.30863279 7.00940108,4.30863279 6.7,4.13 C5.96478218,3.66367871 5.0669548,3.52915782 4.22735262,3.75952485 C3.38775044,3.98989189 2.68429057,4.56376824 2.29,5.34 C1.73293163,6.36593153 1.54244486,7.55118255 1.75,8.7 C1.91852371,10.277822 2.6000401,11.7567828 3.69,12.91 C4.43204834,13.6139387 5.57454336,13.6774107 6.39,13.06 L6.39,13.06 C6.8564584,12.7149519 7.4935416,12.7149519 7.96,13.06 C8.74241129,13.6920744 9.8668846,13.6667103 10.62,13 C11.4432706,12.1688975 12.0300873,11.1333386 12.32,10 C11.0768795,9.82814315 10.1580564,8.75475173 10.18,7.5 Z"/><line x1="8.18" x2="9.68" y1="2" y2=".5" stroke="currentColor"/></g></svg>