<svg xmlns="http://www.w3.org/2000/svg" width="14" height="14" viewBox="0 0 14 14"><path fill="none" stroke="currentColor" stroke-linecap="round" stroke-linejoin="round" d="M7 5.82 13.5000259 5.82 13.5000259 1.32C13.5014683 1.17695394 13.4403519 1.04040937 13.3326931.946207919 13.2250343.85200647 13.0815852.809556237 12.94.83L7 1.54 7 5.82ZM5 5.82 5 1.71.94 2.21C.687517468 2.2405117.498163062 2.45568716.499986749 2.71L.499986749 5.82 5 5.82ZM5 7.82.5 7.82.5 10.82C.500963891 11.0661945.677667069 11.2765555.92 11.32L5 12 5 7.82ZM7 7.82 7 12.22 12.92 13.17C13.0640865 13.1933585 13.2111859 13.1525868 13.3226885 13.0583864 13.4341911 12.9641859 13.4989617 12.8259639 13.5 12.68L13.5 7.82 7 7.82Z"/></svg>