<svg xmlns="http://www.w3.org/2000/svg" width="14" height="14" viewBox="0 0 14 14"><path fill="none" stroke="currentColor" stroke-linecap="round" stroke-linejoin="round" d="M0.5,12.5 L0.5,1.5 C0.5,0.94771525 0.94771525,0.5 1.5,0.5 L12.5,0.5 C13.0522847,0.5 13.5,0.94771525 13.5,1.5 L13.5,12.5 C13.5,13.0522847 13.0522847,13.5 12.5,13.5 L9.5,13.5 L9.5,8.76 L10.21,8.76 C10.5468937,8.76 10.82,8.4868937 10.82,8.15 L10.82,7.38 C10.82,7.21821794 10.7557323,7.06306205 10.6413351,6.94866486 C10.5269379,6.83426767 10.3717821,6.77 10.21,6.77 L9.54,6.77 L9.54,5.83 C9.54,4.99 9.92,4.99 10.3,4.99 L10.79,4.99 C10.9529299,4.99671157 11.1104379,4.930778 11.22,4.81 C11.3374939,4.69814627 11.4027743,4.54219859 11.4,4.38 L11.4,3.64 C11.4053907,3.47554232 11.3451857,3.31568692 11.2326459,3.19564449 C11.1201061,3.07560205 10.9644632,3.00521961 10.8,3 L9.65,3 C8.97089223,2.97446912 8.31473799,3.24798155 7.85482731,3.7483028 C7.39491662,4.24862404 7.17750107,4.92543858 7.26,5.6 L7.26,6.77 L6.62,6.77 C6.4564923,6.76731918 6.29875498,6.83040143 6.18218579,6.94509047 C6.06561659,7.05977952 5.99997802,7.21647033 6,7.38 L6,8.15 C5.99997802,8.31352967 6.06561659,8.47022048 6.18218579,8.58490953 C6.29875498,8.69959857 6.4564923,8.76268082 6.62,8.76 L7.26,8.76 L7.26,13.5 L1.5,13.5 C0.94771525,13.5 0.5,13.0522847 0.5,12.5 Z"/></svg>