<svg xmlns="http://www.w3.org/2000/svg" fill="none" viewBox="0 0 14 14"><path stroke="#003366" stroke-linecap="round" stroke-linejoin="round" d="M10.726 13.2501V8.44241"></path><path stroke="#003366" stroke-linecap="round" stroke-linejoin="round" d="M8.32214 10.8465H13.1298"></path><path fill="#e0e7ed" stroke="#003366" stroke-linecap="round" stroke-linejoin="round" d="M0.950896 4.41091C1.01018 4.96501 1.45583 5.41066 2.00966 5.4724C2.42103 5.51825 2.8434 5.55763 3.27402 5.55763C3.70465 5.55763 4.12702 5.51825 4.53839 5.4724C5.09221 5.41067 5.53787 4.96501 5.59715 4.41091C5.64092 4.00187 5.67787 3.58192 5.67787 3.15378C5.67787 2.72565 5.64092 2.3057 5.59715 1.89666C5.53787 1.34256 5.09221 0.896905 4.53839 0.835173C4.12702 0.789321 3.70465 0.749939 3.27402 0.749939C2.8434 0.749939 2.42103 0.789321 2.00966 0.835173C1.45583 0.896905 1.01018 1.34256 0.950896 1.89666C0.907133 2.3057 0.870178 2.72565 0.870178 3.15378C0.870178 3.58192 0.907133 4.00187 0.950896 4.41091Z"></path><path fill="#e0e7ed" stroke="#003366" stroke-linecap="round" stroke-linejoin="round" d="M0.950896 12.1033C1.01018 12.6574 1.45583 13.1031 2.00966 13.1648C2.42103 13.2107 2.8434 13.2501 3.27402 13.2501C3.70465 13.2501 4.12702 13.2107 4.53839 13.1648C5.09221 13.1031 5.53787 12.6574 5.59715 12.1033C5.64092 11.6943 5.67787 11.2744 5.67787 10.8462C5.67787 10.4181 5.64092 9.99813 5.59715 9.58909C5.53787 9.03499 5.09221 8.58933 4.53839 8.5276C4.12702 8.48175 3.70465 8.44237 3.27402 8.44237C2.8434 8.44237 2.42103 8.48175 2.00966 8.5276C1.45583 8.58933 1.01018 9.03499 0.950896 9.58909C0.907133 9.99813 0.870178 10.4181 0.870178 10.8462C0.870178 11.2744 0.907133 11.6943 0.950896 12.1033Z"></path><path fill="#e0e7ed" stroke="#003366" stroke-linecap="round" stroke-linejoin="round" d="M8.40286 4.41091C8.46214 4.96501 8.9078 5.41066 9.46163 5.4724C9.87299 5.51825 10.2954 5.55763 10.726 5.55763C11.1566 5.55763 11.579 5.51825 11.9904 5.4724C12.5442 5.41067 12.9898 4.96501 13.0491 4.41091C13.0929 4.00187 13.1298 3.58192 13.1298 3.15378C13.1298 2.72565 13.0929 2.3057 13.0491 1.89666C12.9898 1.34256 12.5442 0.896905 11.9904 0.835173C11.579 0.789321 11.1566 0.749939 10.726 0.749939C10.2954 0.749939 9.87299 0.789321 9.46163 0.835173C8.9078 0.896905 8.46214 1.34256 8.40286 1.89666C8.3591 2.3057 8.32214 2.72565 8.32214 3.15378C8.32214 3.58192 8.3591 4.00187 8.40286 4.41091Z"></path></svg>