<svg width="736" height="180" viewBox="0 0 736 180" fill="none" xmlns="http://www.w3.org/2000/svg">
<path fill-rule="evenodd" clip-rule="evenodd" d="M395.139 8.89483C399.538 3.98623 399.12 0.00747941 394.208 0.00747941H370.086C365.18 0.00747941 362.718 -0.523864 354.818 7.37038L287.451 80.3036L287.268 8.89483C287.268 3.98623 283.286 0.00747941 278.375 0.00747941H262C257.088 0.00747941 253.1 3.98623 253.1 8.89483L253.094 171.119C253.094 176.021 257.075 180 261.987 180H278.438C283.35 180 287.331 176.021 287.331 171.119L287.344 128.7L317.271 96.383L363.477 171.119C366.484 176.021 370.706 180 375.618 180H400.297C405.216 180 406.76 176.021 403.753 171.119L340.02 70.9924L395.139 8.89483Z" fill="#CCD7E6"/>
<path fill-rule="evenodd" clip-rule="evenodd" d="M0 171.107C0 176.016 3.98138 179.995 8.88691 179.995H26.8823C31.8004 179.995 35.7818 176.016 35.7818 171.107L35.8578 8.8893C35.8578 3.9807 31.8764 0.00195312 26.9645 0.00195312H8.98185C4.06367 0.00195312 0.0886159 3.9807 0.0886159 8.8893L0 171.107Z" fill="#CCD7E6"/>
<path fill-rule="evenodd" clip-rule="evenodd" d="M180.231 8.89126C180.231 3.98266 184.212 0.00390625 189.124 0.00390625H206.904C211.822 0.00390625 215.804 3.98266 215.804 8.89126L215.778 171.115C215.778 176.018 211.797 179.996 206.885 179.996H189.225C184.313 179.996 180.332 176.018 180.332 171.115L180.269 104.293H108.705L108.718 171.115C108.718 176.018 104.742 179.996 99.8243 179.996H82.0505C77.1386 179.996 73.1572 176.018 73.1572 171.115L73.1636 8.89126C73.1636 3.98266 77.145 0.00390625 82.0568 0.00390625H99.8876C104.793 0.00390625 108.781 3.98266 108.781 8.89126L108.705 74.1516H180.269L180.231 8.89126Z" fill="#CCD7E6"/>
<path d="M491.715 178.039C499.286 173.753 505.429 170.753 511 167.039C535 151.182 544.858 127.753 546.715 100.324C547 94.8959 547 89.4674 546.858 84.0388C546.715 77.8959 543.715 74.3245 537.143 74.3245C514.715 74.3245 492.429 74.3245 470 74.3245C463.715 74.3245 460.858 77.4674 460.429 83.3245C460.286 85.8959 460.286 88.4674 460.429 91.1816C460.715 99.0388 463.286 101.896 471.143 102.039C482.572 102.182 494 102.039 505.429 102.182C514.143 102.182 514.715 103.61 513.143 111.753C505.715 151.182 461.858 159.896 429.286 142.896C406.715 131.182 393.572 104.182 398.429 77.4674C402.429 55.6102 418.715 36.6102 445.143 30.4674C467.143 25.3245 486 30.8959 503.286 43.8959C511.286 50.0388 515 49.7531 522.286 42.4674C523.858 40.8959 525.429 39.6102 527 38.0388C532.715 32.4674 533 25.8959 526.286 21.1816C517.858 15.1816 508.715 10.1816 499.858 4.75307C497.279 3.14164 494.655 1.99064 492.142 0.181641H547.286C558.429 0.324498 561.286 3.18164 561.429 14.0388V161.61C561.429 175.61 558.286 178.753 544.286 178.753C529.715 178.753 515.286 178.753 500.715 178.753C498.286 178.896 495.858 178.467 491.715 178.039Z" fill="#003366"/>
<path fill-rule="evenodd" clip-rule="evenodd" d="M692.855 171.107C692.855 176.016 696.837 179.995 701.742 179.995H719.738C724.656 179.995 728.637 176.016 728.637 171.107L728.713 8.8893C728.713 3.9807 724.732 0.00195312 719.82 0.00195312H701.837C696.919 0.00195312 692.944 3.9807 692.944 8.8893L692.855 171.107Z" fill="#003366"/>
<path fill-rule="evenodd" clip-rule="evenodd" d="M607.141 174.85C607.141 177.694 611.107 179.999 615.993 179.999H633.916C638.814 179.999 642.78 177.694 642.78 174.85L642.855 80.8627C642.855 78.0187 638.89 75.7135 633.998 75.7135H616.087C611.189 75.7135 607.229 78.0187 607.229 80.8627L607.141 174.85Z" fill="#003366"/>
<path d="M661.712 0.610776C631.426 -3.8178 606.712 16.4277 606.569 44.6108C606.603 53.6247 606.629 62.5614 606.649 71.4466L590.766 71.4277C586.397 71.4277 582.855 75.076 582.855 79.571L582.855 96.0604C582.855 100.567 586.397 104.215 590.766 104.215L659.23 104.285C663.6 104.285 667.141 100.637 667.141 96.1359V79.658C667.141 75.1514 663.6 71.5089 659.23 71.5089L643.011 71.4897C643.003 64.1491 642.997 56.8085 642.997 49.4679C642.997 35.8965 645.712 32.8965 659.14 31.6108C665.14 31.0394 669.426 27.8965 669.712 22.0393C669.776 20.9421 669.883 19.8254 669.99 18.702C670.595 12.3658 671.221 5.81475 664.426 1.32506C663.712 0.89649 662.712 0.753633 661.712 0.610776Z" fill="#003366"/>
</svg>
