<svg xmlns="http://www.w3.org/2000/svg" width="14" height="14" viewBox="0 0 14 14"><g fill="none" fill-rule="evenodd" stroke-linecap="round" stroke-linejoin="round"><path stroke="currentColor" d="M10,3 C8.60688543,1.33244093 7.18932752,0.499086502 5.74732627,0.499936723 C3.81264222,0.50054056 2.03511431,1.56526244 1.12160875,3.27069795 C0.208103191,4.97613347 0.306716909,7.04579854 1.37823437,8.65665329 L0.497955228,10.9987806 L3.44567896,10.4656673"/><path stroke="currentColor" d="M9.24999056,5 C7.68385836,5.00048828 6.2449445,5.86238365 5.50545917,7.24293851 C4.76597384,8.62349338 4.84580193,10.2988931 5.71319834,11.6028846 L5.00060989,13.4988432 L7.38680057,13.0672865 C8.95996788,13.8360472 10.8436174,13.5611584 12.1314771,12.3748761 C13.4193369,11.1885938 13.8477091,9.33381714 13.210493,7.70292657 C12.5732769,6.07203599 11.0009467,4.99896709 9.24999056,5 Z" transform="matrix(-1 0 0 1 18.503 0)"/></g></svg>