<svg xmlns="http://www.w3.org/2000/svg" width="14" height="14" viewBox="0 0 14 14"><path fill="none" stroke="currentColor" stroke-linecap="round" stroke-linejoin="round" d="M3.59897099 1.875 3.81397099 1.32C3.88818312 1.12767405 4.07282458 1.00060896 4.27897099 1L4.68897099 1C4.8951174 1.00060896 5.07975885 1.12767405 5.15397099 1.32L5.36897099 1.875 6.09897099 2.295 6.68897099 2.205C6.88989787 2.17772701 7.08740111 2.27450359 7.18897099 2.45L7.38897099 2.8C7.49388333 2.97845485 7.47797883 3.20310587 7.34897099 3.365L6.98397099 3.83 6.98397099 4.67 7.35897099 5.135C7.48797883 5.29689413 7.50388333 5.52154515 7.39897099 5.7L7.19897099 6.05C7.09740111 6.22549641 6.89989787 6.32227299 6.69897099 6.295L6.10897099 6.205 5.37897099 6.625 5.16397099 7.18C5.08975885 7.37232595 4.9051174 7.49939104 4.69897099 7.5L4.27897099 7.5C4.07282458 7.49939104 3.88818312 7.37232595 3.81397099 7.18L3.59897099 6.625 2.86897099 6.205 2.27897099 6.295C2.0780441 6.32227299 1.88054086 6.22549641 1.77897099 6.05L1.57897099 5.7C1.47405864 5.52154515 1.48996314 5.29689413 1.61897099 5.135L1.98397099 4.67 1.98397099 3.83 1.60897099 3.365C1.47996314 3.20310587 1.46405864 2.97845485 1.56897099 2.8L1.76897099 2.45C1.87054086 2.27450359 2.0680441 2.17772701 2.26897099 2.205L2.85897099 2.295 3.59897099 1.875ZM3.48397099 4.25C3.48397099 4.80228475 3.93168624 5.25 4.48397099 5.25 5.03625574 5.25 5.48397099 4.80228475 5.48397099 4.25 5.48397099 3.69771525 5.03625574 3.25 4.48397099 3.25 3.93168624 3.25 3.48397099 3.69771525 3.48397099 4.25ZM8.59897099 7.375 8.81397099 6.82C8.88818312 6.62767405 9.07282458 6.50060896 9.27897099 6.5L9.68897099 6.5C9.8951174 6.50060896 10.0797589 6.62767405 10.153971 6.82L10.368971 7.375 11.098971 7.795 11.688971 7.705C11.8898979 7.67772701 12.0874011 7.77450359 12.188971 7.95L12.388971 8.3C12.4938833 8.47845485 12.4779788 8.70310587 12.348971 8.865L11.983971 9.33 11.983971 10.17 12.358971 10.635C12.4879788 10.7968941 12.5038833 11.0215452 12.398971 11.2L12.198971 11.55C12.0974011 11.7254964 11.8998979 11.822273 11.698971 11.795L11.108971 11.705 10.378971 12.125 10.163971 12.68C10.0897589 12.872326 9.9051174 12.999391 9.69897099 13L9.27897099 13C9.07282458 12.999391 8.88818312 12.872326 8.81397099 12.68L8.59897099 12.125 7.86897099 11.705 7.27897099 11.795C7.0780441 11.822273 6.88054086 11.7254964 6.77897099 11.55L6.57897099 11.2C6.47405864 11.0215452 6.48996314 10.7968941 6.61897099 10.635L6.98397099 10.17 6.98397099 9.33 6.60897099 8.865C6.47996314 8.70310587 6.46405864 8.47845485 6.56897099 8.3L6.76897099 7.95C6.87054086 7.77450359 7.0680441 7.67772701 7.26897099 7.705L7.85897099 7.795 8.59897099 7.375ZM8.48397099 9.75C8.48397099 10.3022847 8.93168624 10.75 9.48397099 10.75 10.0362557 10.75 10.483971 10.3022847 10.483971 9.75 10.483971 9.19771525 10.0362557 8.75 9.48397099 8.75 8.93168624 8.75 8.48397099 9.19771525 8.48397099 9.75Z"/></svg>