<svg xmlns="http://www.w3.org/2000/svg" width="14" height="14" viewBox="0 0 14 14"><path fill="none" stroke="currentColor" stroke-linecap="round" stroke-linejoin="round" d="M13.43,3.59 C13.3909186,3.37806551 13.2636984,3.19268751 13.08,3.08 L11.08,5.08 C10.8915168,5.27555187 10.6315998,5.38602594 10.36,5.38602594 C10.0884002,5.38602594 9.82848323,5.27555187 9.64,5.08 L8.88,4.4 C8.49885712,4.01115649 8.49885712,3.38884351 8.88,3 L10.88,1 C10.7916967,0.792568013 10.6158578,0.635045601 10.4,0.57 C8.97626803,0.286079361 7.51518027,0.838163932 6.63496322,1.99265152 C5.75474617,3.1471391 5.60923519,4.70226011 6.26,6 L0.8,11.41 C0.607587273,11.5981405 0.499124452,11.8558913 0.499124452,12.125 C0.499124452,12.3941087 0.607587273,12.6518595 0.8,12.84 L1.16,13.2 C1.34814048,13.3924127 1.60589129,13.5008755 1.875,13.5008755 C2.14410871,13.5008755 2.40185952,13.3924127 2.59,13.2 L8.05,7.75 C9.34745741,8.36815405 10.8823573,8.20361036 12.0193039,7.32448435 C13.1562505,6.44535834 13.701756,5.00126143 13.43,3.59 Z"/></svg>