<svg xmlns="http://www.w3.org/2000/svg" width="14" height="14" viewBox="0 0 14 14"><path fill="none" stroke="currentColor" stroke-linecap="round" stroke-linejoin="round" d="M5.23,2.25 L5.66,1.14 C5.80842426,0.755348091 6.17770718,0.501217913 6.59,0.5 L7.41,0.5 C7.82229282,0.501217913 8.19157574,0.755348091 8.34,1.14 L8.77,2.25 L10.23,3.09 L11.41,2.91 C11.8118538,2.85545402 12.2068602,3.04900719 12.41,3.4 L12.81,4.1 C13.0198247,4.4569097 12.9880157,4.90621175 12.73,5.23 L12,6.16 L12,7.84 L12.75,8.77 C13.0080157,9.09378825 13.0398247,9.5430903 12.83,9.9 L12.43,10.6 C12.2268602,10.9509928 11.8318538,11.144546 11.43,11.09 L10.25,10.91 L8.79,11.75 L8.36,12.86 C8.21157574,13.2446519 7.84229282,13.4987821 7.43,13.5 L6.59,13.5 C6.17770718,13.4987821 5.80842426,13.2446519 5.66,12.86 L5.23,11.75 L3.77,10.91 L2.59,11.09 C2.18814623,11.144546 1.79313976,10.9509928 1.59,10.6 L1.19,9.9 C0.980175315,9.5430903 1.01198431,9.09378825 1.27,8.77 L2,7.84 L2,6.16 L1.25,5.23 C0.99198431,4.90621175 0.960175315,4.4569097 1.17,4.1 L1.57,3.4 C1.77313976,3.04900719 2.16814623,2.85545402 2.57,2.91 L3.75,3.09 L5.23,2.25 Z M5,7 C5,8.1045695 5.8954305,9 7,9 C8.1045695,9 9,8.1045695 9,7 C9,5.8954305 8.1045695,5 7,5 C5.8954305,5 5,5.8954305 5,7 Z"/></svg>