<svg xmlns="http://www.w3.org/2000/svg" width="14" height="14" viewBox="0 0 14 14"><g fill="none" fill-rule="evenodd" stroke-linecap="round" stroke-linejoin="round"><path stroke="currentColor" d="M11.5.5 12.5.5C13.0522847.5 13.5.94771525 13.5 1.5L13.5 2.5M.5 2.5.5 1.5C.5.94771525.94771525.5 1.5.5L2.5.5"/><line x1="5.5" x2="8.5" y1=".5" y2=".5" stroke="currentColor"/><line x1="13.5" x2="13.5" y1="5.5" y2="8.25" stroke="currentColor"/><line x1=".5" x2=".5" y1="5.5" y2="8.5" stroke="currentColor"/><path stroke="currentColor" d="M0.5,11.5 L0.5,12.5 C0.5,13.0522847 0.94771525,13.5 1.5,13.5 L2.5,13.5"/><line x1="5.5" x2="8.25" y1="13.5" y2="13.5" stroke="currentColor"/><circle cx="8" cy="8" r="3.5" stroke="currentColor"/><line x1="10.47" x2="13" y1="10.47" y2="13" stroke="currentColor"/></g></svg>