<svg xmlns="http://www.w3.org/2000/svg" width="14" height="14" viewBox="0 0 14 14"><g fill="none" fill-rule="evenodd" stroke-linecap="round" stroke-linejoin="round"><path stroke="currentColor" d="M2.36741218,7.07930348 L5.36741218,7.07930348 C5.6380317,7.07930348 5.85741201,7.29868396 5.85741201,7.56930348 L5.85741201,11.9893035 C5.85741201,13.093873 4.96198168,13.9893035 3.85741201,13.9893035 L3.85741201,13.9893035 C2.75284268,13.9893035 1.85741201,13.093873 1.85741201,11.9893035 L1.85741201,7.56930348 C1.85730093,7.43580679 1.91166209,7.30804386 2.00792722,7.21555384 C2.10419235,7.12306381 2.23402668,7.07385459 2.36741218,7.07930348 Z" transform="rotate(45 3.857 10.534)"/><line x1="6.306" x2="10.786" y1="8.09" y2="3.61" stroke="currentColor"/><polygon stroke="currentColor" points="11.136 3.95 10.446 3.26 10.446 1.88 12.516 .5 13.896 1.88 12.516 3.95"/></g></svg>