<svg xmlns="http://www.w3.org/2000/svg" width="14" height="14" viewBox="0 0 14 14"><g fill="none" fill-rule="evenodd" stroke-linecap="round" stroke-linejoin="round"><path stroke="currentColor" d="M2.5,13.5 L1.5,13.5 C0.94771525,13.5 0.5,13.0522847 0.5,12.5 L0.5,4.5 L13.5,4.5 L13.5,12.5 C13.5,13.0522847 13.0522847,13.5 12.5,13.5 L11.5,13.5"/><polyline stroke="currentColor" points="4.5 11 7 13.5 9.5 11"/><line x1="7" x2="7" y1="13.5" y2="7.5" stroke="currentColor"/><path stroke="currentColor" d="M11.29,1 C11.116093,0.698507926 10.7979336,0.509127303 10.45,0.5 L3.55,0.5 C3.2020664,0.509127303 2.88390695,0.698507926 2.71,1 L0.5,4.5 L13.5,4.5 L11.29,1 Z"/><line x1="7" x2="7" y1=".5" y2="4.5" stroke="currentColor"/></g></svg>