<svg xmlns="http://www.w3.org/2000/svg" width="14" height="14" viewBox="0 0 14 14"><g fill="none" fill-rule="evenodd" stroke-linecap="round" stroke-linejoin="round"><path stroke="currentColor" d="M1.91,9.5 L0.61,12.05 C0.431367205,12.3594011 0.431367205,12.7405989 0.61,13.05 C0.796832574,13.3491187 1.12741102,13.527707 1.48,13.52 L12.48,13.52 C12.832589,13.527707 13.1631674,13.3491187 13.35,13.05 C13.5286328,12.7405989 13.5286328,12.3594011 13.35,12.05 L12.09,9.5 L1.91,9.5 Z"/><polyline stroke="currentColor" points="5 4.5 7 6.5 9 4.5"/><line x1="7" x2="7" y1="6.5" y2=".5" stroke="currentColor"/><path stroke="currentColor" d="M2.49999208,4.63 C2.18936581,4.80934097 1.99857599,5.14131524 1.99999208,5.5 L1.99999208,9.5 L12.0000079,9.5 L12.0000079,5.5 C12.001424,5.14131524 11.8106342,4.80934097 11.4999921,4.63"/></g></svg>