<svg xmlns="http://www.w3.org/2000/svg" width="14" height="14" viewBox="0 0 14 14"><g fill="none" fill-rule="evenodd" stroke-linecap="round" stroke-linejoin="round"><path stroke="currentColor" d="M1.91,9.5 L0.61,12.05 C0.431367205,12.3594011 0.431367205,12.7405989 0.61,13.05 C0.796832574,13.3491187 1.12741102,13.527707 1.48,13.52 L12.48,13.52 C12.832589,13.527707 13.1631674,13.3491187 13.35,13.05 C13.5286328,12.7405989 13.5286328,12.3594011 13.35,12.05 L12.09,9.5 L1.91,9.5 Z"/><polyline stroke="currentColor" points="5 2.5 7 .5 9 2.5"/><line x1="7" x2="7" y1=".5" y2="6.5" stroke="currentColor"/><path stroke="currentColor" d="M3,4.5 C2.44771525,4.5 2,4.94771525 2,5.5 L2,9.5 L12,9.5 L12,5.5 C12,4.94771525 11.5522847,4.5 11,4.5"/></g></svg>