<svg xmlns="http://www.w3.org/2000/svg" width="14" height="14" viewBox="0 0 14 14"><g fill="none" fill-rule="evenodd" stroke-linejoin="round"><path stroke="currentColor" stroke-linecap="round" d="M13.4310135,3.59131449 C13.3919321,3.37938 13.2647119,3.19400199 13.0810135,3.08131449 L11.0810135,5.08131449 C10.8925302,5.27686636 10.6326133,5.38734042 10.3610135,5.38734042 C10.0894136,5.38734042 9.82949669,5.27686636 9.64101346,5.08131449 L8.88101346,4.40131449 C8.49987059,4.01247098 8.49987059,3.390158 8.88101346,3.00131449 L10.8810135,1.00131449 C10.7927102,0.793882498 10.6168712,0.636360086 10.4010135,0.571314485 C8.97728149,0.287393846 7.51619374,0.839478417 6.63597668,1.993966 C5.75575963,3.14845359 5.61024865,4.7035746 6.26101346,6.00131449 L0.801013462,11.4113145 C0.608600735,11.599455 0.500137915,11.8572058 0.500137915,12.1263145 C0.500137915,12.3954232 0.608600735,12.653174 0.801013462,12.8413145 L1.16101346,13.2013145 C1.34915394,13.3937272 1.60690475,13.50219 1.87601346,13.50219 C2.14512217,13.50219 2.40287298,13.3937272 2.59101346,13.2013145 L8.05101346,7.75131449 C9.34847087,8.36946853 10.8833707,8.20492484 12.0203173,7.32579883 C13.157264,6.44667282 13.7027695,5.00257591 13.4310135,3.59131449 Z"/><path stroke="currentColor" stroke-linecap="round" d="M11.9998621,6.5 L6.30087555,11.4113145 C6.10846282,11.599455 6,11.8572058 6,12.1263145 C6,12.3954232 6.10846282,12.653174 6.30087555,12.8413145 L6.66087555,13.2013145 C6.84901603,13.3937272 7.10676684,13.50219 7.37587555,13.50219 C7.64498426,13.50219 7.90273507,13.3937272 8.09087555,13.2013145 L13.4998621,8" transform="matrix(-1 0 0 1 19.5 0)"/><path stroke="currentColor" d="M6.99965278,2.10289189 C6.99798386,2.08082399 6.99258442,2.05915955 6.98433787,2.03850194 C6.98306165,2.03527741 6.98178547,2.03225435 6.98041101,2.02923129 C6.97098653,2.00887653 6.95842055,1.98993333 6.94251706,1.97320448 L6.05624464,1.06203758 C5.98261558,0.986361785 5.86539768,0.979004703 5.78323632,1.04500795 L4.93355041,1.72860782 C4.84136644,1.80267136 4.74211536,1.93719349 4.69754637,2.04935805 L4.59358306,2.31224734 L0.810282927,6.30252304 L1.76582781,7.30252304 L5.72281202,3.47093925 L5.97865521,3.36402681 C6.08762481,3.318481 6.21907745,3.21670717 6.29114581,3.12208663 L6.95724287,2.24994217 C6.97245951,2.23019206 6.98266886,2.20802331 6.99003252,2.18555222 C6.9907197,2.18353689 6.99170143,2.18162242 6.99229045,2.17960696 C6.99837715,2.15763993 7.00063501,2.1349666 6.99984963,2.1122943 C6.99984913,2.10893801 7,2.10611642 6.99965278,2.10289189 Z" transform="matrix(-1 0 0 1 7.81 0)"/></g></svg>