<svg xmlns="http://www.w3.org/2000/svg" width="14" height="14" viewBox="0 0 14 14"><g fill="none" fill-rule="evenodd" stroke-linecap="round" stroke-linejoin="round"><path stroke="currentColor" d="M7,13.5 L7,8.25 C7,7.55964406 7.55964406,7 8.25,7 L8.25,7 C8.94035594,7 9.5,7.55964406 9.5,8.25 L9.5,11 L11.5,11 C12.6045695,11 13.5,11.8954305 13.5,13 L13.5,13.5"/><circle cx="1" cy="1" r="1" stroke="currentColor"/><circle cx="5" cy="1" r="1" stroke="currentColor"/><circle cx="9" cy="1" r="1" stroke="currentColor"/><circle cx="1" cy="4.5" r="1" stroke="currentColor"/><circle cx="5" cy="4.5" r="1" stroke="currentColor"/><circle cx="9" cy="4.5" r="1" stroke="currentColor"/><circle cx="1" cy="8" r="1" stroke="currentColor"/><path stroke="currentColor" d="M5,8.5 C4.72385763,8.5 4.5,8.27614237 4.5,8 C4.5,7.72385763 4.72385763,7.5 5,7.5 L5,8.5 Z"/></g></svg>