<svg xmlns="http://www.w3.org/2000/svg" width="14" height="14" viewBox="0 0 14 14"><g fill="none" fill-rule="evenodd"><path stroke="currentColor" stroke-linecap="round" stroke-linejoin="round" d="M12,2 L13,2 C13.2761424,2 13.5,2.22385763 13.5,2.5 L13.5,10.5 C13.5,10.7761424 13.2761424,11 13,11 L1,11 C0.723857625,11 0.5,10.7761424 0.5,10.5 L0.5,2.5 C0.5,2.22385763 0.723857625,2 1,2 L2,2"/><line x1="6" x2="5" y1="11" y2="13.5" stroke="currentColor" stroke-linecap="round" stroke-linejoin="round"/><line x1="8" x2="9" y1="11" y2="13.5" stroke="currentColor" stroke-linecap="round" stroke-linejoin="round"/><line x1="4" x2="10" y1="13.5" y2="13.5" stroke="currentColor" stroke-linecap="round" stroke-linejoin="round"/><path stroke="currentColor" stroke-linecap="round" stroke-linejoin="round" d="M5,2.5 C5,1.3954305 5.8954305,0.5 7,0.5 C8.1045695,0.5 9,1.3954305 9,2.5 C9,3.6045695 8.1045695,4.5 7,4.5 L7,5.5"/><path fill="currentColor" fill-rule="nonzero" d="M7,7.5 C6.58578644,7.5 6.25,7.83578644 6.25,8.25 C6.25,8.66421356 6.58578644,9 7,9 C7.41421356,9 7.75,8.66421356 7.75,8.25 C7.75,7.83578644 7.41421356,7.5 7,7.5 L7,7.5 Z"/></g></svg>