<svg xmlns="http://www.w3.org/2000/svg" width="14" height="14" viewBox="0 0 14 14"><g fill="none" fill-rule="evenodd" stroke-linecap="round" stroke-linejoin="round"><path stroke="currentColor" d="M10.5,2 L13,2 C13.2761424,2 13.5,2.22385763 13.5,2.5 L13.5,10.5 C13.5,10.7761424 13.2761424,11 13,11 L1,11 C0.723857625,11 0.5,10.7761424 0.5,10.5 L0.5,2.5 C0.5,2.22385763 0.723857625,2 1,2 L3.5,2"/><line x1="6" x2="5" y1="11" y2="13.5" stroke="currentColor"/><line x1="8" x2="9" y1="11" y2="13.5" stroke="currentColor"/><line x1="4" x2="10" y1="13.5" y2="13.5" stroke="currentColor"/><rect width="4" height="3" x="5" y="5.5" stroke="currentColor"/><path stroke="currentColor" d="M5.5,5.50000003 L5.5,4.50000003 C5.5,3.67157289 6.17157289,3.00000003 7,3.00000003 C7.82842711,3.00000003 8.5,3.67157289 8.5,4.50000003 L8.5,5.50000003"/></g></svg>