<svg xmlns="http://www.w3.org/2000/svg" width="14" height="14" viewBox="0 0 14 14"><g fill="none" fill-rule="evenodd" stroke-linecap="round" stroke-linejoin="round"><line x1="6" x2="5" y1="11" y2="13.5" stroke="currentColor"/><line x1="8" x2="9" y1="11" y2="13.5" stroke="currentColor"/><line x1="4" x2="10" y1="13.5" y2="13.5" stroke="currentColor"/><path stroke="currentColor" d="M13,2 C13.2761424,2 13.5,2.22385763 13.5,2.5 L13.5,10.5 C13.5,10.7761424 13.2761424,11 13,11 L1,11 C0.723857625,11 0.5,10.7761424 0.5,10.5 L0.5,2.5 C0.5,2.22385763 0.723857625,2 1,2"/><path stroke="currentColor" d="M7,4 C8.17,1.41 10.5,2.71 10.5,4.65 C10.5,7.2 7,8.5 7,8.5 C7,8.5 3.5,7.2 3.5,4.6 C3.5,2.66 5.83,1.36 7,4 Z"/></g></svg>