<svg xmlns="http://www.w3.org/2000/svg" width="14" height="14" viewBox="0 0 14 14"><g fill="none" fill-rule="evenodd" stroke-linecap="round" stroke-linejoin="round"><path stroke="currentColor" d="M11.5,2 L13,2 C13.2761424,2 13.5,2.22385763 13.5,2.5 L13.5,10.5 C13.5,10.7761424 13.2761424,11 13,11 L1,11 C0.723857625,11 0.5,10.7761424 0.5,10.5 L0.5,2.5 C0.5,2.22385763 0.723857625,2 1,2 L2.5,2"/><line x1="6" x2="5" y1="11" y2="13.5" stroke="currentColor"/><line x1="8" x2="9" y1="11" y2="13.5" stroke="currentColor"/><line x1="4" x2="10" y1="13.5" y2="13.5" stroke="currentColor"/><path stroke="currentColor" d="M6.45,2.36 C6.53811025,2.13306228 6.75655772,1.98354157 7,1.98354157 C7.24344228,1.98354157 7.46188975,2.13306228 7.55,2.36 L8.19,4 L9.9,4 C10.148725,4.00365865 10.3703131,4.15797896 10.46,4.39 C10.5289254,4.60717042 10.466644,4.84461826 10.3,5 L8.79,6.34 L9.43,7.62 C9.54905071,7.85091777 9.50002181,8.13283398 9.31,8.31 C9.12469812,8.49495166 8.83967627,8.53566907 8.61,8.41 L7,7.53 L5.39,8.41 C5.16032373,8.53566907 4.87530188,8.49495166 4.69,8.31 C4.49997819,8.13283398 4.45094929,7.85091777 4.57,7.62 L5.21,6.34 L3.7,5 C3.51701974,4.83748624 3.45336308,4.57888106 3.54,4.35 C3.64191536,4.1336428 3.86086208,3.9968011 4.1,4 L5.81,4 L6.45,2.36 Z"/></g></svg>