<svg xmlns="http://www.w3.org/2000/svg" width="14" height="14" viewBox="0 0 14 14"><g fill="none" fill-rule="evenodd" stroke-linecap="round" stroke-linejoin="round"><path stroke="currentColor" d="M12,2 L13,2 C13.2761424,2 13.5,2.22385763 13.5,2.5 L13.5,10.5 C13.5,10.7761424 13.2761424,11 13,11 L1,11 C0.723857625,11 0.5,10.7761424 0.5,10.5 L0.5,2.5 C0.5,2.22385763 0.723857625,2 1,2 L2,2"/><line x1="6" x2="5" y1="11" y2="13.5" stroke="currentColor"/><line x1="8" x2="9" y1="11" y2="13.5" stroke="currentColor"/><line x1="4" x2="10" y1="13.5" y2="13.5" stroke="currentColor"/><line x1="7.03" x2="7.03" y1="2" y2="3.5" stroke="currentColor"/><line x1="4" x2="5.3" y1="3.75" y2="4.5" stroke="currentColor"/><line x1="4" x2="5.3" y1="7.25" y2="6.5" stroke="currentColor"/><line x1="7.03" x2="7.03" y1="9" y2="7.5" stroke="currentColor"/><line x1="10.06" x2="8.76" y1="7.25" y2="6.5" stroke="currentColor"/><line x1="10.06" x2="8.76" y1="3.75" y2="4.5" stroke="currentColor"/><circle cx="7.03" cy="5.5" r="2" stroke="currentColor"/></g></svg>