<svg xmlns="http://www.w3.org/2000/svg" width="14" height="14" viewBox="0 0 14 14"><path fill="none" stroke="currentColor" stroke-linecap="round" stroke-linejoin="round" d="M4.65 2.24 4.26 2.33C4.33134779 2.64048681 4.27522141 2.9666171 4.10418416 3.23538992 3.93314691 3.50416274 3.66148241 3.69313241 3.35 3.76 2.69952204 3.89683157 2.05921836 3.48774866 1.91 2.84L1.13 3C.913844243 3.04716365.726387209 3.18069148.611173756 3.36956599.495960304 3.5584405.463018328 3.78622252.52 4 .52 4 .88 5.67 1.3 7.55M12.15 2.23C11.987224 2.68866511 11.5852646 3.02054852 11.1040822 3.09357688 10.6228997 3.16660524 10.1405699 2.96892909 9.84903639 2.57921387 9.55750292 2.18949864 9.50406949 1.67097885 9.71 1.23L8.9.85C8.44986921.662412154 7.93260537.87199319 7.74 1.32L4.38 9.23 3.94 10.23C3.75241215 10.6801308 3.96199319 11.1973946 4.41 11.39L8.47 13.12C8.92013079 13.3075878 9.43739463 13.0980068 9.63 12.65L13.43 3.71C13.603772 3.27883787 13.4164471 2.78656545 13 2.58L12.15 2.23Z"/></svg>