<svg xmlns="http://www.w3.org/2000/svg" width="14" height="14" viewBox="0 0 14 14"><g fill="none" fill-rule="evenodd" stroke-linecap="round" stroke-linejoin="round"><circle cx="5" cy="2.75" r="2.25" stroke="currentColor"/><path stroke="currentColor" d="M6 6.61C4.6641146 6.30158814 3.26052596 6.62042793 2.18898613 7.47571155 1.11744629 8.33099516.495396145 9.62898341.499974624 11L.499974624 12.5 6 12.5M10.67 13.47 10.67 13.47C10.5601462 13.5097164 10.4398538 13.5097164 10.33 13.47L10.33 13.47C8.62355329 12.7939912 7.50208218 11.1454683 7.5 9.31L7.5 8C7.49105903 7.86484852 7.54085927 7.73241012 7.6366347 7.6366347 7.73241012 7.54085927 7.86484852 7.49105903 8 7.5L13 7.5C13.1351515 7.49105903 13.2675899 7.54085927 13.3633653 7.6366347 13.4591407 7.73241012 13.508941 7.86484852 13.5 8L13.5 9.31C13.4979178 11.1454683 12.3764467 12.7939912 10.67 13.47Z"/></g></svg>