<svg xmlns="http://www.w3.org/2000/svg" width="14" height="14" viewBox="0 0 14 14"><g fill="none" fill-rule="evenodd" stroke-linecap="round" stroke-linejoin="round"><rect width="13" height="6" x=".5" y="7.5" stroke="currentColor"/><path stroke="currentColor" d="M7,0.5 C7,0.5 8.5,3 6.5,4 C5.5,4.5 4,3 4,3 C3.54213966,4.00183553 3.6353373,5.16926572 4.24634164,6.08577224 C4.85734599,7.00227876 5.89912861,7.53731895 7,7.5 C7.94169051,7.5463031 8.85908671,7.19244712 9.52576691,6.52576691 C10.1924471,5.85908671 10.5463031,4.94169051 10.5,4 C10.5463031,3.05830949 10.1924471,2.14091329 9.52576691,1.47423309 C8.85908671,0.807552878 7.94169051,0.453696899 7,0.5 Z"/><line x1=".5" x2="13.5" y1="10.5" y2="10.5" stroke="currentColor"/><line x1="5.5" x2="5.5" y1="10.5" y2="13.5" stroke="currentColor"/><line x1="8.5" x2="8.5" y1="7.5" y2="10.5" stroke="currentColor"/></g></svg>