<svg xmlns="http://www.w3.org/2000/svg" width="14" height="14" viewBox="0 0 14 14"><g fill="none" fill-rule="evenodd" stroke-linecap="round" stroke-linejoin="round"><path stroke="currentColor" d="M12.9999923,6.94 C12.9808753,9.06292861 11.77123,10.9952693 9.87,11.94 L6.99999228,13.5 L4.13,12 C2.20950305,11.0455906 0.996462528,9.084573 0.999992284,6.94 L0.999992284,1.5 C0.999992284,0.94771525 1.44771525,0.5 1.99999228,0.5 L11.9999923,0.5 C12.5522847,0.5 12.9999923,0.94771525 12.9999923,1.5 L12.9999923,6.94 Z"/><path stroke="currentColor" d="M5.5,8 C5.5,8.82842712 6.17157288,9.5 7,9.5 C7.40634006,9.53022722 7.80568739,9.3819268 8.09380709,9.09380709 C8.3819268,8.80568739 8.53022722,8.40634006 8.5,8 C8.5,6.5 5.5,6.5 5.5,5 C5.46977278,4.59365994 5.6180732,4.19431261 5.90619291,3.90619291 C6.19431261,3.6180732 6.59365994,3.46977278 7,3.5 C7.39782473,3.5 7.7793556,3.65803526 8.06066017,3.93933983 C8.34196474,4.2206444 8.5,4.60217527 8.5,5"/><line x1="7" x2="7" y1="3.5" y2="2.5" stroke="currentColor"/><line x1="7" x2="7" y1="10.5" y2="9.5" stroke="currentColor"/></g></svg>