<svg xmlns="http://www.w3.org/2000/svg" width="14" height="14" viewBox="0 0 14 14"><path fill="none" stroke="currentColor" stroke-linecap="round" stroke-linejoin="round" d="M13.5 6.5.5 6.5.5 11.5C.5 12.0522847.94771525 12.5 1.5 12.5L4.5 12.5C4.80427197 12.4985972 5.09135261 12.3587374 5.28 12.12L6.59 10.49C6.68489838 10.3717144 6.82835174 10.3028898 6.98 10.3028898 7.13164826 10.3028898 7.27510162 10.3717144 7.37 10.49L8.7 12.12C8.88864739 12.3587374 9.17572803 12.4985972 9.48 12.5L12.48 12.5C13.0322847 12.5 13.48 12.0522847 13.48 11.5L13.5 6.5ZM13.5 6.5 10.79 2C10.6099357 1.69630055 10.2830673 1.51006158 9.93 1.51L4.07 1.51C3.71693271 1.51006158 3.39006432 1.69630055 3.21 2L.5 6.5"/></svg>