<svg xmlns="http://www.w3.org/2000/svg" width="14" height="14" viewBox="0 0 14 14"><g fill="none" fill-rule="evenodd" stroke-linecap="round" stroke-linejoin="round"><rect width="13" height="13" x=".5" y=".5" stroke="currentColor" rx="3"/><path stroke="currentColor" d="M4.51362901,1.27787995 L5.41362901,1.27787995 C5.57931443,1.27787995 5.71362901,1.42707923 5.71362901,1.61112587 L5.71362901,6.27656865 L4.21362901,6.27656865 L4.21362901,1.61112587 C4.21362901,1.42707923 4.34794358,1.27787995 4.51362901,1.27787995 Z" transform="rotate(90 4.964 3.777)"/><path stroke="currentColor" d="M6.58571534,2.5272243 L7.48571534,2.5272243 C7.65140077,2.5272243 7.78571534,2.79585345 7.78571534,3.1272243 L7.78571534,11.5272243 L6.28571534,11.5272243 L6.28571534,3.1272243 C6.28571534,2.79585345 6.42002992,2.5272243 6.58571534,2.5272243 Z" transform="rotate(90 7.036 7.027)"/><path stroke="currentColor" d="M3.57960658,8.77484202 L4.47960658,8.77484202 C4.64529201,8.77484202 4.77960658,8.86452728 4.77960658,8.97515966 L4.77960658,11.7796066 L3.27960658,11.7796066 L3.27960658,8.97515966 C3.27960658,8.86452728 3.41392116,8.77484202 3.57960658,8.77484202 Z" transform="rotate(90 4.03 10.277)"/></g></svg>