<svg xmlns="http://www.w3.org/2000/svg" width="14" height="14" viewBox="0 0 14 14"><g fill="none" fill-rule="evenodd" stroke-linecap="round" stroke-linejoin="round"><path stroke="currentColor" d="M3.3 6.56425095 4.2 6.56425095C4.36568542 6.56425095 4.5 6.71345022 4.5 6.89749686L4.5 11.5629396 3 11.5629396 3 6.89749686C3 6.71345022 3.13431458 6.56425095 3.3 6.56425095ZM6.55 2.49150896 7.45 2.49150896C7.61568542 2.49150896 7.75 2.76013811 7.75 3.09150896L7.75 11.491509 6.25 11.491509 6.25 3.09150896C6.25 2.76013811 6.38431458 2.49150896 6.55 2.49150896ZM9.8 8.49523544 10.7 8.49523544C10.8656854 8.49523544 11 8.5849207 11 8.69555308L11 11.5 9.5 11.5 9.5 8.69555308C9.5 8.5849207 9.63431458 8.49523544 9.8 8.49523544Z"/><rect width="13" height="13" x=".5" y=".5" stroke="currentColor" rx="3"/></g></svg>