<svg xmlns="http://www.w3.org/2000/svg" width="14" height="14" viewBox="0 0 14 14"><g fill="none" fill-rule="evenodd" stroke-linecap="round" stroke-linejoin="round"><path stroke="currentColor" d="M11.85 13.2 5.17 10.71C4.76817042 10.5680916 4.46632192 10.2312458 4.36916781 9.81631681 4.27201369 9.40138779 4.39294129 8.96555055 4.69 8.66L8.88 4.47C9.19457207 4.17515964 9.63805852 4.06163284 10.0556059 4.16906008 10.4731533 4.27648732 10.8067828 4.58995171 10.94 5L13.42 11.68C13.5605169 12.1214249 13.4389034 12.6043502 13.106079 12.9265751 12.7732547 13.2487999 12.2866475 13.3547252 11.85 13.2L11.85 13.2ZM2.05 7.13C2.49406439 6.88219263 3.01409528 6.80739366 3.51 6.92M4.33 4.28C4.04682171 3.85309677 3.92945743 3.33740522 4 2.83M6.63.72C6.27950751 1.79367323 6.32563218 2.95743404 6.76 4"/><circle cx="1" cy="3.28" r="1" stroke="currentColor"/></g></svg>