<svg xmlns="http://www.w3.org/2000/svg" width="14" height="14" viewBox="0 0 14 14"><g fill="none" fill-rule="evenodd" stroke-linecap="round" stroke-linejoin="round"><path stroke="currentColor" d="M.91 12.56.5 5.56C.482753004 5.41734513.527714283 5.27416557.623416536 5.16697905.719118789 5.05979253.856310081 4.9989612 1 4.99998691L5.61 4.99998691C5.84042361 5.0014258 6.04126786 5.15718256 6.1 5.38L6.5 7 13 7C13.1398388 6.99955174 13.273475 7.0576847 13.3684831 7.16029342 13.4634912 7.26290213 13.5111879 7.40060878 13.5 7.54L13.11 12.54C13.068203 13.0608219 12.6324937 13.4616745 12.11 13.4600128L1.91 13.4600128C1.39452193 13.4625832.961541981 13.0729013.91 12.56ZM3.5 3 3.5 1C3.5.723857625 3.72385763.5 4 .5L12.5.5C12.7761424.5 13 .723857625 13 1L13 5"/><line x1="7.5" x2="10.5" y1="3" y2="3" stroke="currentColor"/></g></svg>