<svg xmlns="http://www.w3.org/2000/svg" width="14" height="14" viewBox="0 0 14 14"><path fill="none" stroke="currentColor" stroke-linecap="round" stroke-linejoin="round" d="M12.81,11.2 C12.9577287,11.2748405 13.1322713,11.2748405 13.28,11.2 C13.4176829,11.1090877 13.5003698,10.9549894 13.4999988,10.79 L13.4999988,3.26 C13.5003698,3.0950106 13.4176829,2.94091234 13.28,2.85 C13.140397,2.7589818 12.9656274,2.74038929 12.81,2.8 C9.1017774,4.39941105 4.8982226,4.39941105 1.19,2.8 C1.03437265,2.74038929 0.859603,2.7589818 0.72,2.85 C0.582317088,2.94091234 0.499630214,3.0950106 0.499998765,3.26 L0.499998765,10.74 C0.499630214,10.9049894 0.582317088,11.0590877 0.72,11.15 C0.86772873,11.2248405 1.04227127,11.2248405 1.19,11.15 C4.90510148,9.56652902 9.10866295,9.58461664 12.81,11.2 Z"/></svg>