<svg xmlns="http://www.w3.org/2000/svg" width="14" height="14" viewBox="0 0 14 14"><path fill="none" stroke="currentColor" stroke-linecap="round" stroke-linejoin="round" d="M11.2,1.19 C11.2748405,1.04227127 11.2748405,0.86772873 11.2,0.72 C11.0999045,0.566378297 10.9224178,0.481493336 10.74,0.5 L3.26,0.5 C3.0950106,0.499630214 2.94091234,0.582317088 2.85,0.72 C2.7589818,0.859603 2.74038929,1.03437265 2.8,1.19 C4.39941105,4.8982226 4.39941105,9.1017774 2.8,12.81 C2.74038929,12.9656274 2.7589818,13.140397 2.85,13.28 C2.94091234,13.4176829 3.0950106,13.5003698 3.26,13.5000012 L10.74,13.5000012 C10.9049894,13.5003698 11.0590877,13.4176829 11.15,13.28 C11.2248405,13.1322713 11.2248405,12.9577287 11.15,12.81 C9.56652902,9.09489852 9.58461664,4.89133705 11.2,1.19 L11.2,1.19 Z"/></svg>