<svg xmlns="http://www.w3.org/2000/svg" width="14" height="14" viewBox="0 0 14 14"><path fill="none" stroke="currentColor" stroke-linecap="round" stroke-linejoin="round" d="M7.47 6.9C7.17018987 7.03018862 6.82981013 7.03018862 6.53 6.9L.83 4.26C.641243953 4.16479507.522190404 3.97140677.522190404 3.76.522190404 3.54859323.641243953 3.35520493.83 3.26L6.53.6C6.82981013.469811381 7.17018987.469811381 7.47.6L13.17 3.24C13.358756 3.33520493 13.4778096 3.52859323 13.4778096 3.74 13.4778096 3.95140677 13.358756 4.14479507 13.17 4.24L7.47 6.9ZM13.5 7.35 7.4 10.16C7.13639707 10.2802381 6.83360293 10.2802381 6.57 10.16L.5 7.35M13.5 10.6 7.4 13.41C7.13639707 13.5302381 6.83360293 13.5302381 6.57 13.41L.5 10.6"/></svg>