<svg xmlns="http://www.w3.org/2000/svg" width="14" height="14" viewBox="0 0 14 14"><g fill="none" fill-rule="evenodd" stroke-linecap="round" stroke-linejoin="round"><line x1="7" x2="7" y1="3.14" y2="4.64" stroke="currentColor"/><path stroke="currentColor" d="M8.51,7.15 C9.46727895,6.45375037 10.0236882,5.33346331 10,4.15 C10.1268088,2.3569047 8.79096744,0.793970343 7,0.64 C5.21054633,0.78881595 3.87338402,2.34883864 4,4.14 C3.97631181,5.32346331 4.53272105,6.44375037 5.49,7.14 L2.28,10.82 C2.1240441,11.0086025 2.1240441,11.2813975 2.28,11.47 L3.65,13.17 C3.73918023,13.2902359 3.88030318,13.3607973 4.03,13.3600281 C4.17829391,13.3615392 4.3201894,13.2996873 4.42,13.19 C5.39118474,12.0916049 6.25511632,10.9028618 7,9.64 C7.75121908,10.9037083 8.62186921,12.0924806 9.6,13.19 C9.6998106,13.2996873 9.84170609,13.3615392 9.99,13.3600281 C10.1396968,13.3607973 10.2808198,13.2902359 10.37,13.17 L11.74,11.47 C11.8944167,11.2846095 11.8944167,11.0153905 11.74,10.83 L8.51,7.15 Z"/></g></svg>