<svg xmlns="http://www.w3.org/2000/svg" width="14" height="14" viewBox="0 0 14 14"><g fill="none" fill-rule="evenodd" stroke-linecap="round" stroke-linejoin="round"><path stroke="currentColor" d="M12.43,3.43 C13.1208627,3.22849837 13.5712693,2.56474557 13.5032934,1.84831449 C13.4353176,1.1318834 12.8681166,0.56468245 12.1516855,0.496706588 C11.4352544,0.428730726 10.7715016,0.879137272 10.57,1.57 C8.40384443,0.14318573 5.59615557,0.14318573 3.43,1.57 C3.22849837,0.879137272 2.56474557,0.428730726 1.84831449,0.496706588 C1.1318834,0.56468245 0.56468245,1.1318834 0.496706588,1.84831449 C0.428730726,2.56474557 0.879137272,3.22849837 1.57,3.43 C0.873577625,4.49054396 0.50171667,5.73123892 0.5,7 C0.498256054,8.11061482 0.784208437,9.20274621 1.33,10.17 C0.702514085,10.4749572 0.370646529,11.1744857 0.531375253,11.8533847 C0.692103977,12.5322836 1.30238923,13.0087582 2,13 C2.50951443,12.9973125 2.98331328,12.7378512 3.26,12.31 C5.50070415,13.8973106 8.49929585,13.8973106 10.74,12.31 C11.1004402,12.8680196 11.7849846,13.122495 12.4224074,12.9354253 C13.0598303,12.7483555 13.4982853,12.1643042 13.5,11.5 C13.4977796,10.9351857 13.1763874,10.4201838 12.67,10.17 C13.2157916,9.20274621 13.5017439,8.11061482 13.5,7 C13.4982833,5.73123892 13.1264224,4.49054396 12.43,3.43 Z"/><circle cx="7" cy="7" r="3.5" stroke="currentColor"/><circle cx="7" cy="7" r="1" stroke="currentColor"/></g></svg>