<svg xmlns="http://www.w3.org/2000/svg" width="14" height="14" viewBox="0 0 14 14"><g fill="none" fill-rule="evenodd" stroke-linecap="round" stroke-linejoin="round"><path stroke="currentColor" d="M13.5,5.5 C13.5,5.22385763 13.2761424,5 13,5 L12,5 L12,4 C12,3.44771525 11.5522847,3 11,3 L1.5,3 C0.94771525,3 0.5,3.44771525 0.5,4 L0.5,10 C0.5,10.5522847 0.94771525,11 1.5,11 L11,11 C11.5522847,11 12,10.5522847 12,10 L12,9 L13,9 C13.2761424,9 13.5,8.77614237 13.5,8.5 L13.5,5.5 Z"/><line x1="3.25" x2="3.25" y1="5.5" y2="8.5" stroke="currentColor"/></g></svg>