<svg xmlns="http://www.w3.org/2000/svg" width="14" height="14" viewBox="0 0 14 14"><g fill="none" fill-rule="evenodd" stroke-linecap="round" stroke-linejoin="round"><path stroke="currentColor" d="M12.5,12.5 C12.5,13.0522847 12.0522847,13.5 11.5,13.5 L2.5,13.5 C1.94771525,13.5 1.5,13.0522847 1.5,12.5 L1.5,1.5 C1.5,0.94771525 1.94771525,0.5 2.5,0.5 L7.5,0.5 L12.5,5.5 L12.5,12.5 Z"/><circle cx="4" cy="5.259" r="1" stroke="currentColor" transform="rotate(-2 4 5.259)"/><path stroke="currentColor" d="M5.8068428,8.81461647 L7.2768428,9.81461647 C7.62400711,10.0617945 8.0896785,10.0617945 8.4368428,9.81461647 L9.3268428,9.14461647 C9.68239836,8.87794981 10.1712872,8.87794981 10.5268428,9.14461647 L11,9.5"/><path stroke="currentColor" d="M12.5,11.4392177 L8.71,6.19581821 C8.5222334,5.99728984 8.26663754,5.88562046 8,5.88562046 C7.73336246,5.88562046 7.4777666,5.99728984 7.29,6.19581821 L2,13.2997631"/></g></svg>