<svg xmlns="http://www.w3.org/2000/svg" width="14" height="14" viewBox="0 0 14 14"><g fill="none" fill-rule="evenodd" stroke-linecap="round" stroke-linejoin="round"><path stroke="currentColor" d="M12.5,12.5 C12.5,13.0522847 12.0522847,13.5 11.5,13.5 L2.5,13.5 C1.94771525,13.5 1.5,13.0522847 1.5,12.5 L1.5,1.5 C1.5,0.94771525 1.94771525,0.5 2.5,0.5 L7.5,0.5 L12.5,5.5 L12.5,12.5 Z"/><polygon stroke="currentColor" points="3 11 3 9 3 8 4.5 8 4.5 9.5 3 9.5"/><path stroke="currentColor" d="M6,11 C7,11 7.5,10.5 7.5,9.5 C7.5,8.5 7,8 6,8 L6,11 Z"/><polyline stroke="currentColor" points="9 11 9 8 10.5 8"/><line x1="9" x2="10.5" y1="9.5" y2="9.5" stroke="currentColor"/></g></svg>