<svg xmlns="http://www.w3.org/2000/svg" width="14" height="14" viewBox="0 0 14 14"><g fill="none" fill-rule="evenodd" stroke-linecap="round" stroke-linejoin="round"><g stroke="currentColor" transform="translate(.5 1)"><g transform="translate(.86 7.5)"><polyline points="9.64 .5 11.64 0 12.14 2"/><path d="M11.64,0 C10.769374,2.60103598 8.38076981,4.39248915 5.64,4.5 L5.64,4.5 C3.11638944,4.50045121 0.86223358,2.92174276 -2.22044605e-16,0.55"/></g><polyline points="2.5 4 .5 4.5 0 2.5"/><path d="M0.5,4.5 C1.41499077,1.93130694 3.77785725,0.159157082 6.5,-1.11022302e-16 L6.5,-1.11022302e-16 C9.03650984,0.00712873142 11.2945034,1.60854261 12.14,4"/></g><line x1="7" x2="7" y1="3.5" y2="7.5" stroke="currentColor"/><circle cx="7" cy="10" r="1" stroke="currentColor"/></g></svg>