<svg xmlns="http://www.w3.org/2000/svg" width="14" height="14" viewBox="0 0 14 14"><path fill="none" stroke="currentColor" stroke-linecap="round" stroke-linejoin="round" d="M5,10.43 C4.5814886,10.7886361 4.05106763,10.9901961 3.5,11 C2.68282934,11.0783795 1.873372,10.7875856 1.29289322,10.2071068 C0.712414436,9.626628 0.421620516,8.81717066 0.5,8 C0.421620516,7.18282934 0.712414436,6.373372 1.29289322,5.79289322 C1.873372,5.21241444 2.68282934,4.92162052 3.5,5 C6.25,5 7.75,11 10.5,11 C11.3171707,11.0783795 12.126628,10.7875856 12.7071068,10.2071068 C13.2875856,9.626628 13.5783795,8.81717066 13.5,8 C13.5783795,7.18282934 13.2875856,6.373372 12.7071068,5.79289322 C12.126628,5.21241444 11.3171707,4.92162052 10.5,5 L8.5,5 L10.5,3"/></svg>