<svg xmlns="http://www.w3.org/2000/svg" width="14" height="14" viewBox="0 0 14 14"><g fill="none" fill-rule="evenodd"><path stroke="currentColor" stroke-linecap="round" stroke-linejoin="round" d="M12.5,0.5 L1.5,0.5 C0.94771525,0.5 0.5,0.94771525 0.5,1.5 L0.5,10 C0.5,10.5522847 0.94771525,11 1.5,11 L3.5,11 L3.5,13.5 L6.62,11 L12.5,11 C13.0522847,11 13.5,10.5522847 13.5,10 L13.5,1.5 C13.5,0.94771525 13.0522847,0.5 12.5,0.5 Z"/><path stroke="currentColor" stroke-linecap="round" stroke-linejoin="round" d="M5.5,4.5 C5.5,3.67157288 6.17157288,3 7,3 C7.82842712,3 8.5,3.67157288 8.5,4.5 C8.5,5.32842712 7.82842712,6 7,6 L7,6.5"/><path fill="currentColor" fill-rule="nonzero" d="M7,8 C6.58578644,8 6.25,8.33578644 6.25,8.75 C6.25,9.16421356 6.58578644,9.5 7,9.5 C7.41421356,9.5 7.75,9.16421356 7.75,8.75 C7.74461419,8.33803794 7.41196206,8.00538581 7,8 L7,8 Z"/></g></svg>