<svg xmlns="http://www.w3.org/2000/svg" width="14" height="14" viewBox="0 0 14 14"><path fill="none" stroke="currentColor" stroke-linecap="round" stroke-linejoin="round" d="M2.5,7.5 L3.5,7.5 C4.05228475,7.5 4.5,7.94771525 4.5,8.5 L4.5,12.5 C4.5,13.0522847 4.05228475,13.5 3.5,13.5 L1.5,13.5 C0.94771525,13.5 0.5,13.0522847 0.5,12.5 L0.5,7 C0.5,3.41014913 3.41014913,0.5 7,0.5 C10.5898509,0.5 13.5,3.41014913 13.5,7 L13.5,12.5 C13.5,13.0522847 13.0522847,13.5 12.5,13.5 L10.5,13.5 C9.94771525,13.5 9.5,13.0522847 9.5,12.5 L9.5,8.5 C9.5,7.94771525 9.94771525,7.5 10.5,7.5 L11.5,7.5"/></svg>