<svg xmlns="http://www.w3.org/2000/svg" width="14" height="14" viewBox="0 0 14 14"><g fill="none" fill-rule="evenodd" stroke-linecap="round" stroke-linejoin="round"><path stroke="currentColor" d="M3 7 3 4.37C3.01577452 3.32589823 3.44642811 2.33100049 4.19689823 1.60492065 4.94736835.878840808 5.95594686.48128149 7 .5L7 .5C8.04405314.48128149 9.05263165.878840808 9.80310177 1.60492065 10.5535719 2.33100049 10.9842255 3.32589823 11 4.37L11 7M1.5 5.5 2.5 5.5C2.77614237 5.5 3 5.72385763 3 6L3 9C3 9.27614237 2.77614237 9.5 2.5 9.5L1.5 9.5C.94771525 9.5.5 9.05228475.5 8.5L.5 6.5C.5 5.94771525.94771525 5.5 1.5 5.5Z"/><path stroke="currentColor" d="M12,5.5 L13,5.5 C13.2761424,5.5 13.5,5.72385763 13.5,6 L13.5,9 C13.5,9.27614237 13.2761424,9.5 13,9.5 L12,9.5 C11.4477153,9.5 11,9.05228475 11,8.5 L11,6.5 C11,5.94771525 11.4477153,5.5 12,5.5 Z" transform="rotate(-180 12.25 7.5)"/><path stroke="currentColor" d="M9 12.25C10.1045695 12.25 11 11.3545695 11 10.25L11 10.25 11 8M9 12.25C9 12.9403559 8.44035594 13.5 7.75 13.5L6.25 13.5C5.55964406 13.5 5 12.9403559 5 12.25 5 11.5596441 5.55964406 11 6.25 11L7.75 11C8.44035594 11 9 11.5596441 9 12.25Z"/></g></svg>