<svg xmlns="http://www.w3.org/2000/svg" width="14" height="14" viewBox="0 0 14 14"><g fill="none" fill-rule="evenodd" stroke-linecap="round" stroke-linejoin="round"><path stroke="currentColor" d="M1.5,6 L2.5,6 C2.77614237,6 3,6.22385763 3,6.5 L3,9 C3,9.27614237 2.77614237,9.5 2.5,9.5 L1.5,9.5 C0.94771525,9.5 0.5,9.05228475 0.5,8.5 L0.5,7 C0.5,6.44771525 0.94771525,6 1.5,6 Z"/><path stroke="currentColor" d="M12,6 L13,6 C13.2761424,6 13.5,6.22385763 13.5,6.5 L13.5,9 C13.5,9.27614237 13.2761424,9.5 13,9.5 L12,9.5 C11.4477153,9.5 11,9.05228475 11,8.5 L11,7 C11,6.44771525 11.4477153,6 12,6 Z" transform="rotate(-180 12.25 7.75)"/><path stroke="currentColor" d="M9.5 12.25C10.6045695 12.25 11.5 11.3545695 11.5 10.25L11.5 10.25 11.5 9.5M8.25 11C8.94035594 11 9.5 11.5596441 9.5 12.25 9.5 12.9403559 8.94035594 13.5 8.25 13.5L6.75 13.5C6.05964406 13.5 5.5 12.9403559 5.5 12.25 5.5 11.5596441 6.05964406 11 6.75 11L8.25 11ZM2.5 6.00000007 2.5 5.00000007C2.5 2.51471865 4.51471865.500000067 7 .500000067 9.48528135.500000067 11.5 2.51471865 11.5 5.00000007L11.5 6.00000007"/><line x1="5.5" x2="5.5" y1="4" y2="5.5" stroke="currentColor"/><line x1="8.5" x2="8.5" y1="4" y2="5.5" stroke="currentColor"/><path stroke="currentColor" d="M5.5,7.5 C5.5,8.83 8.5,8.83 8.5,7.5"/></g></svg>