<svg xmlns="http://www.w3.org/2000/svg" width="14" height="14" viewBox="0 0 14 14"><g fill="none" fill-rule="evenodd" stroke-linecap="round" stroke-linejoin="round"><path stroke="currentColor" d="M2.89694595,12.103054 L2.89694595,7.85305405 C2.89694595,6.61041336 3.67839126,5.42103195 4.92103195,5.42103195 C6.16367264,5.42103195 6.92103195,6.42103195 6.92103195,7.92103195 C6.92103195,9.42103195 7.42103195,10.421032 8.92103195,10.421032 C10.421032,10.421032 11.421032,9.42103195 11.396946,8.10305405 L11.421032,6.42103195" transform="rotate(-90 15.921 0)"/><path stroke="currentColor" d="M13.5 2.5C13.5 3.32999998 12 5 12 5 12 5 10.5 3.32999998 10.5 2.5 10.5 1.67157286 11.1715729 1 12 1 12.8284271 1 13.5 1.67157286 13.5 2.5ZM3.5 10.5C3.5 11.33 2 13 2 13 2 13 .5 11.33.5 10.5.5 9.67157286 1.17157288 9 2 9 2.82842712 9 3.5 9.67157286 3.5 10.5Z"/></g></svg>