<svg xmlns="http://www.w3.org/2000/svg" width="14" height="14" viewBox="0 0 14 14"><g fill="none" fill-rule="evenodd" stroke-linecap="round" stroke-linejoin="round"><path stroke="currentColor" d="M11.5,0.5 L12.5,0.5 C13.0522847,0.5 13.5,0.94771525 13.5,1.5 L13.5,2.5"/><line x1="4.5" x2="8.5" y1=".5" y2=".5" stroke="currentColor"/><line x1="13.5" x2="13.5" y1="5.5" y2="8.5" stroke="currentColor"/><line x1=".5" x2=".5" y1=".5" y2="13.5" stroke="currentColor"/><line x1="7" x2="7" y1="5.5" y2="8.5" stroke="currentColor"/><line x1="8.5" x2="5.5" y1="7" y2="7" stroke="currentColor"/><line x1="13.5" x2="11.5" y1="7" y2="7" stroke="currentColor"/><path stroke="currentColor" d="M11.5,13.5 L12.5,13.5 C13.0522847,13.5 13.5,13.0522847 13.5,12.5 L13.5,11.5"/><line x1="4.5" x2="8.5" y1="13.5" y2="13.5" stroke="currentColor"/><line x1="7" x2="7" y1=".5" y2="2.5" stroke="currentColor"/><line x1="7" x2="7" y1="11.5" y2="13.5" stroke="currentColor"/></g></svg>